<?xml version="1.0" encoding="utf-8"?>
<!-- Generator: Adobe Illustrator 22.1.0, SVG Export Plug-In . SVG Version: 6.00 Build 0)  -->
<svg version="1.1" id="Layer_1" xmlns="http://www.w3.org/2000/svg" xmlns:xlink="http://www.w3.org/1999/xlink" x="0px" y="0px"
	 viewBox="0 0 314.5 419.8" style="enable-background:new 0 0 314.5 419.8;" xml:space="preserve">
<style type="text/css">
	.st0{fill:none;stroke:#293249;stroke-width:2;stroke-linecap:round;stroke-miterlimit:10;}
	.st1{fill:#FE533D;}
	.st2{fill:#E9ECEE;}
	.st3{fill:#101628;}
	.st4{fill:#F6F6F6;}
	.st5{fill:#B4C4CC;}
</style>
<line class="st0" x1="172.2" y1="269.5" x2="138.4" y2="269.5"/>
<polyline class="st0" points="165.2,261.8 174.7,269.5 165.2,277.2 "/>
<path class="st1" d="M290.7,302.8H189.6c-2.3,0-4.1-1.8-4.1-4.1v-58.4c0-2.3,1.8-4.1,4.1-4.1h101.1c2.3,0,4.1,1.8,4.1,4.1v58.4
	C294.8,301,292.9,302.8,290.7,302.8z"/>
<g>
	<g>
		<path class="st2" d="M214.9,265.6v-9.9h6.5v0.9h-5.5v3.7h4.7v0.8h-4.7v4.6H214.9z"/>
		<path class="st2" d="M225.5,265.7c-0.5,0-1-0.1-1.5-0.3c-0.4-0.2-0.8-0.5-1.1-0.8c-0.3-0.3-0.6-0.7-0.7-1.2
			c-0.2-0.5-0.3-0.9-0.3-1.4c0-0.5,0.1-1,0.3-1.5s0.4-0.9,0.8-1.2c0.3-0.3,0.7-0.6,1.1-0.8c0.4-0.2,0.9-0.3,1.4-0.3s1,0.1,1.4,0.3
			c0.4,0.2,0.8,0.5,1.1,0.8c0.3,0.3,0.6,0.7,0.8,1.2c0.2,0.5,0.3,0.9,0.3,1.5c0,0.5-0.1,1-0.3,1.4c-0.2,0.5-0.4,0.9-0.7,1.2
			c-0.3,0.3-0.7,0.6-1.1,0.8C226.6,265.6,226.1,265.7,225.5,265.7z M222.9,262c0,0.4,0.1,0.8,0.2,1.1c0.1,0.3,0.3,0.7,0.6,0.9
			c0.2,0.3,0.5,0.5,0.8,0.6c0.3,0.1,0.7,0.2,1,0.2s0.7-0.1,1-0.2c0.3-0.2,0.6-0.4,0.8-0.6c0.2-0.3,0.4-0.6,0.6-0.9
			c0.1-0.4,0.2-0.7,0.2-1.1c0-0.4-0.1-0.8-0.2-1.1c-0.1-0.4-0.3-0.7-0.6-0.9c-0.2-0.3-0.5-0.5-0.8-0.6c-0.3-0.2-0.7-0.2-1-0.2
			s-0.7,0.1-1,0.2c-0.3,0.2-0.6,0.4-0.8,0.6c-0.2,0.3-0.4,0.6-0.6,0.9C223,261.2,222.9,261.6,222.9,262z"/>
		<path class="st2" d="M230.8,255.4h1v8.6c0,0.3,0.1,0.5,0.2,0.6c0.1,0.2,0.4,0.2,0.6,0.2c0.1,0,0.2,0,0.4,0c0.1,0,0.3-0.1,0.4-0.1
			l0.2,0.8c-0.2,0.1-0.4,0.1-0.7,0.2c-0.3,0-0.5,0.1-0.7,0.1c-0.4,0-0.8-0.1-1-0.4s-0.4-0.6-0.4-1V255.4z"/>
		<path class="st2" d="M234.6,255.4h1v8.6c0,0.3,0.1,0.5,0.2,0.6c0.1,0.2,0.4,0.2,0.6,0.2c0.1,0,0.2,0,0.4,0c0.1,0,0.3-0.1,0.4-0.1
			l0.2,0.8c-0.2,0.1-0.4,0.1-0.7,0.2c-0.3,0-0.5,0.1-0.7,0.1c-0.4,0-0.8-0.1-1-0.4c-0.3-0.2-0.4-0.6-0.4-1V255.4z"/>
		<path class="st2" d="M241.5,265.7c-0.5,0-1-0.1-1.5-0.3c-0.4-0.2-0.8-0.5-1.1-0.8c-0.3-0.3-0.6-0.7-0.7-1.2
			c-0.2-0.5-0.3-0.9-0.3-1.4c0-0.5,0.1-1,0.3-1.5s0.4-0.9,0.8-1.2c0.3-0.3,0.7-0.6,1.1-0.8c0.4-0.2,0.9-0.3,1.4-0.3s1,0.1,1.4,0.3
			c0.4,0.2,0.8,0.5,1.1,0.8c0.3,0.3,0.6,0.7,0.8,1.2c0.2,0.5,0.3,0.9,0.3,1.5c0,0.5-0.1,1-0.3,1.4c-0.2,0.5-0.4,0.9-0.7,1.2
			c-0.3,0.3-0.7,0.6-1.1,0.8C242.5,265.6,242,265.7,241.5,265.7z M238.8,262c0,0.4,0.1,0.8,0.2,1.1c0.1,0.3,0.3,0.7,0.6,0.9
			c0.2,0.3,0.5,0.5,0.8,0.6c0.3,0.1,0.7,0.2,1,0.2s0.7-0.1,1-0.2c0.3-0.2,0.6-0.4,0.8-0.6c0.2-0.3,0.4-0.6,0.6-0.9
			c0.1-0.4,0.2-0.7,0.2-1.1c0-0.4-0.1-0.8-0.2-1.1c-0.1-0.4-0.3-0.7-0.6-0.9c-0.2-0.3-0.5-0.5-0.8-0.6c-0.3-0.2-0.7-0.2-1-0.2
			s-0.7,0.1-1,0.2c-0.3,0.2-0.6,0.4-0.8,0.6c-0.2,0.3-0.4,0.6-0.6,0.9C238.9,261.2,238.8,261.6,238.8,262z"/>
		<path class="st2" d="M255.6,258.3h0.9l-3.1,7.3h-0.8l-1.6-3.7l-1.6,3.7h-0.8l-3.1-7.3h0.9l2.7,6.3l1.4-3.3l-1.2-3h0.8l1,2.4l1-2.4
			h0.8l-1.2,3l1.4,3.3L255.6,258.3z"/>
		<path class="st2" d="M260.1,265.7c-0.6,0-1.1-0.1-1.7-0.3s-1-0.5-1.4-0.8l0.4-0.6c0.4,0.3,0.8,0.6,1.3,0.8s0.9,0.3,1.4,0.3
			c0.6,0,1.1-0.1,1.4-0.4c0.3-0.2,0.5-0.6,0.5-1c0-0.2,0-0.4-0.1-0.5c-0.1-0.1-0.2-0.3-0.4-0.4c-0.2-0.1-0.4-0.2-0.7-0.3
			c-0.3-0.1-0.6-0.2-1-0.2c-0.4-0.1-0.8-0.2-1.1-0.3c-0.3-0.1-0.6-0.2-0.8-0.3c-0.2-0.1-0.4-0.3-0.4-0.5c-0.1-0.2-0.1-0.4-0.1-0.7
			c0-0.4,0.1-0.7,0.2-1c0.1-0.3,0.3-0.5,0.6-0.7c0.2-0.2,0.5-0.3,0.9-0.4c0.3-0.1,0.7-0.1,1.1-0.1c0.6,0,1.1,0.1,1.5,0.3
			c0.5,0.2,0.8,0.4,1.1,0.7l-0.5,0.6c-0.3-0.3-0.6-0.5-1-0.6c-0.4-0.1-0.8-0.2-1.2-0.2c-0.3,0-0.5,0-0.7,0.1
			c-0.2,0.1-0.4,0.1-0.6,0.2c-0.2,0.1-0.3,0.3-0.4,0.4c-0.1,0.2-0.1,0.4-0.1,0.6c0,0.2,0,0.4,0.1,0.5s0.2,0.2,0.3,0.3
			s0.3,0.2,0.6,0.2c0.2,0.1,0.5,0.1,0.8,0.2c0.5,0.1,0.9,0.2,1.2,0.3c0.4,0.1,0.7,0.2,0.9,0.4s0.4,0.3,0.5,0.5s0.2,0.5,0.2,0.8
			c0,0.7-0.3,1.2-0.8,1.6C261.6,265.5,260.9,265.7,260.1,265.7z"/>
		<path class="st2" d="M214.3,282.4h-1v-4.1c0-0.9-0.1-1.5-0.4-1.9c-0.3-0.4-0.7-0.6-1.2-0.6c-0.3,0-0.6,0.1-0.8,0.2
			c-0.3,0.1-0.5,0.2-0.8,0.4c-0.2,0.2-0.5,0.4-0.6,0.7s-0.3,0.5-0.4,0.8v4.5h-1v-7.3h0.9v1.7c0.3-0.5,0.7-1,1.3-1.3
			c0.6-0.3,1.2-0.5,1.8-0.5c0.4,0,0.7,0.1,1,0.2c0.3,0.1,0.5,0.4,0.7,0.6c0.2,0.3,0.3,0.6,0.4,1c0.1,0.4,0.1,0.8,0.1,1.3V282.4z"/>
		<path class="st2" d="M219.5,282.5c-0.5,0-1-0.1-1.5-0.3c-0.4-0.2-0.8-0.5-1.2-0.8c-0.3-0.3-0.6-0.8-0.8-1.2
			c-0.2-0.5-0.3-0.9-0.3-1.5c0-0.5,0.1-1,0.3-1.4c0.2-0.5,0.4-0.8,0.8-1.2s0.7-0.6,1.2-0.8c0.4-0.2,0.9-0.3,1.5-0.3
			c0.5,0,1,0.1,1.5,0.3c0.4,0.2,0.8,0.5,1.1,0.8c0.3,0.3,0.6,0.7,0.7,1.2c0.2,0.4,0.3,0.9,0.3,1.4c0,0.1,0,0.1,0,0.2
			c0,0.1,0,0.1,0,0.2h-6.2c0,0.4,0.1,0.8,0.3,1.1c0.2,0.3,0.4,0.6,0.6,0.9c0.2,0.2,0.5,0.4,0.8,0.6c0.3,0.1,0.6,0.2,1,0.2
			c0.2,0,0.5,0,0.7-0.1s0.4-0.2,0.6-0.3c0.2-0.1,0.4-0.2,0.5-0.4c0.2-0.2,0.3-0.3,0.4-0.5l0.8,0.2c-0.1,0.3-0.3,0.5-0.5,0.7
			c-0.2,0.2-0.4,0.4-0.7,0.6s-0.6,0.3-0.9,0.4C220.2,282.5,219.8,282.5,219.5,282.5z M222.1,278.4c0-0.4-0.1-0.7-0.3-1.1
			c-0.2-0.3-0.3-0.6-0.6-0.8s-0.5-0.4-0.8-0.5c-0.3-0.1-0.6-0.2-1-0.2s-0.7,0.1-1,0.2c-0.3,0.1-0.6,0.3-0.8,0.5s-0.4,0.5-0.6,0.8
			c-0.1,0.3-0.2,0.7-0.3,1.1H222.1z"/>
		<path class="st2" d="M233.5,275.1h0.9l-3.1,7.3h-0.8l-1.6-3.7l-1.6,3.7h-0.8l-3.1-7.3h0.9l2.7,6.3l1.4-3.3l-1.2-3h0.8l1,2.4l1-2.4
			h0.8l-1.2,3l1.4,3.3L233.5,275.1z"/>
		<path class="st2" d="M242.5,275.9c-0.6,0-1.2,0.2-1.7,0.5c-0.5,0.3-0.8,0.8-1,1.4v4.5h-1v-7.3h0.9v1.8c0.3-0.6,0.6-1,1.1-1.3
			c0.5-0.3,0.9-0.5,1.5-0.5c0.1,0,0.1,0,0.2,0V275.9z"/>
		<path class="st2" d="M246.1,282.5c-0.8,0-1.4-0.3-1.8-0.8c-0.4-0.5-0.6-1.3-0.6-2.4v-4.3h1v4.1c0,1.7,0.6,2.5,1.7,2.5
			c0.3,0,0.6,0,0.8-0.1c0.3-0.1,0.5-0.2,0.7-0.4c0.2-0.2,0.4-0.4,0.6-0.6c0.2-0.2,0.3-0.5,0.4-0.8v-4.6h1v6.1c0,0.3,0.1,0.4,0.3,0.4
			v0.8c-0.1,0-0.2,0-0.3,0c-0.1,0-0.1,0-0.1,0c-0.2,0-0.4-0.1-0.5-0.2c-0.1-0.1-0.2-0.3-0.2-0.6v-0.8c-0.3,0.6-0.7,1-1.3,1.3
			C247.3,282.4,246.7,282.5,246.1,282.5z"/>
		<path class="st2" d="M252.2,272.2h1v8.6c0,0.3,0.1,0.5,0.2,0.6c0.1,0.2,0.4,0.2,0.6,0.2c0.1,0,0.2,0,0.4,0c0.1,0,0.3-0.1,0.4-0.1
			l0.2,0.8c-0.2,0.1-0.4,0.1-0.7,0.2c-0.3,0-0.5,0.1-0.7,0.1c-0.4,0-0.8-0.1-1-0.4s-0.4-0.6-0.4-1V272.2z"/>
		<path class="st2" d="M259.1,282.5c-0.5,0-1-0.1-1.5-0.3c-0.4-0.2-0.8-0.5-1.2-0.8c-0.3-0.3-0.6-0.8-0.8-1.2
			c-0.2-0.5-0.3-0.9-0.3-1.5c0-0.5,0.1-1,0.3-1.4c0.2-0.5,0.4-0.8,0.8-1.2c0.3-0.3,0.7-0.6,1.2-0.8c0.4-0.2,0.9-0.3,1.5-0.3
			c0.5,0,1,0.1,1.5,0.3c0.4,0.2,0.8,0.5,1.1,0.8c0.3,0.3,0.6,0.7,0.7,1.2c0.2,0.4,0.3,0.9,0.3,1.4c0,0.1,0,0.1,0,0.2
			c0,0.1,0,0.1,0,0.2h-6.2c0,0.4,0.1,0.8,0.3,1.1c0.2,0.3,0.4,0.6,0.6,0.9c0.2,0.2,0.5,0.4,0.8,0.6c0.3,0.1,0.6,0.2,1,0.2
			c0.2,0,0.5,0,0.7-0.1s0.4-0.2,0.6-0.3s0.4-0.2,0.5-0.4c0.2-0.2,0.3-0.3,0.4-0.5l0.8,0.2c-0.1,0.3-0.3,0.5-0.5,0.7
			c-0.2,0.2-0.4,0.4-0.7,0.6c-0.3,0.2-0.6,0.3-0.9,0.4S259.4,282.5,259.1,282.5z M261.8,278.4c0-0.4-0.1-0.7-0.3-1.1
			c-0.2-0.3-0.4-0.6-0.6-0.8c-0.2-0.2-0.5-0.4-0.8-0.5c-0.3-0.1-0.6-0.2-1-0.2c-0.4,0-0.7,0.1-1,0.2c-0.3,0.1-0.6,0.3-0.8,0.5
			c-0.2,0.2-0.4,0.5-0.6,0.8c-0.1,0.3-0.2,0.7-0.3,1.1H261.8z"/>
		<path class="st2" d="M266.6,282.5c-0.6,0-1.1-0.1-1.7-0.3s-1-0.5-1.4-0.8l0.4-0.6c0.4,0.3,0.8,0.6,1.3,0.8s0.9,0.3,1.4,0.3
			c0.6,0,1.1-0.1,1.4-0.4c0.3-0.2,0.5-0.6,0.5-1c0-0.2,0-0.4-0.1-0.5c-0.1-0.1-0.2-0.3-0.4-0.4c-0.2-0.1-0.4-0.2-0.7-0.3
			c-0.3-0.1-0.6-0.2-1-0.2c-0.4-0.1-0.8-0.2-1.1-0.3c-0.3-0.1-0.6-0.2-0.8-0.3c-0.2-0.1-0.4-0.3-0.4-0.5c-0.1-0.2-0.1-0.4-0.1-0.7
			c0-0.4,0.1-0.7,0.2-1c0.1-0.3,0.3-0.5,0.6-0.7c0.2-0.2,0.5-0.3,0.9-0.4c0.3-0.1,0.7-0.1,1.1-0.1c0.6,0,1.1,0.1,1.5,0.3
			c0.5,0.2,0.8,0.4,1.1,0.7l-0.5,0.6c-0.3-0.3-0.6-0.5-1-0.6c-0.4-0.1-0.8-0.2-1.2-0.2c-0.3,0-0.5,0-0.7,0.1
			c-0.2,0.1-0.4,0.1-0.6,0.2c-0.2,0.1-0.3,0.3-0.4,0.4c-0.1,0.2-0.1,0.4-0.1,0.6c0,0.2,0,0.4,0.1,0.5s0.2,0.2,0.3,0.3
			s0.3,0.2,0.6,0.2c0.2,0.1,0.5,0.1,0.8,0.2c0.5,0.1,0.9,0.2,1.2,0.3c0.4,0.1,0.7,0.2,0.9,0.4s0.4,0.3,0.5,0.5s0.2,0.5,0.2,0.8
			c0,0.7-0.3,1.2-0.8,1.6C268.1,282.3,267.4,282.5,266.6,282.5z"/>
	</g>
</g>
<path class="st3" d="M143.9,65.8H4.7C2.1,65.8,0,63.6,0,61V4.7C0,2.1,2.1,0,4.7,0h139.2c2.6,0,4.7,2.1,4.7,4.7V61
	C148.6,63.6,146.5,65.8,143.9,65.8z"/>
<path class="st1" d="M13.6,65.8H4.1c-2.3,0-4.1-2.5-4.1-5.5V5.5C0,2.5,1.8,0,4.1,0h9.6L13.6,65.8z"/>
<g>
	<g>
		<path class="st4" d="M36.2,17c0,0.4-0.1,0.7-0.2,1c-0.1,0.3-0.4,0.6-0.6,0.8s-0.5,0.4-0.9,0.5s-0.7,0.2-1.1,0.2h-4.7V9.6h4.8
			c0.3,0,0.7,0.1,0.9,0.2c0.3,0.1,0.5,0.3,0.7,0.6c0.2,0.2,0.3,0.5,0.5,0.8c0.1,0.3,0.2,0.6,0.2,0.9c0,0.5-0.1,1-0.4,1.4
			c-0.3,0.4-0.6,0.7-1,0.9c0.6,0.2,1,0.5,1.4,0.9C36,15.9,36.2,16.4,36.2,17z M29.7,10.5v3.7h3.4c0.2,0,0.5-0.1,0.7-0.2
			c0.2-0.1,0.4-0.2,0.5-0.4c0.1-0.2,0.3-0.4,0.4-0.6c0.1-0.2,0.1-0.5,0.1-0.7c0-0.3,0-0.5-0.1-0.7c-0.1-0.2-0.2-0.4-0.3-0.6
			s-0.3-0.3-0.5-0.4c-0.2-0.1-0.4-0.1-0.6-0.1H29.7z M35.2,16.9c0-0.2,0-0.5-0.1-0.7c-0.1-0.2-0.2-0.4-0.4-0.6
			c-0.2-0.2-0.3-0.3-0.5-0.4S33.8,15,33.5,15h-3.8v3.8h3.7c0.3,0,0.5-0.1,0.7-0.2s0.4-0.2,0.6-0.4c0.2-0.2,0.3-0.4,0.4-0.6
			C35.2,17.3,35.2,17.1,35.2,16.9z"/>
		<path class="st4" d="M37.9,9.4h1v8.6c0,0.3,0.1,0.5,0.2,0.6c0.1,0.2,0.4,0.2,0.6,0.2c0.1,0,0.2,0,0.4,0c0.1,0,0.3-0.1,0.4-0.1
			l0.2,0.8c-0.2,0.1-0.4,0.1-0.7,0.2c-0.3,0-0.5,0.1-0.7,0.1c-0.4,0-0.8-0.1-1-0.4c-0.3-0.2-0.4-0.6-0.4-1V9.4z"/>
		<path class="st4" d="M44.8,19.7c-0.5,0-1-0.1-1.5-0.3c-0.4-0.2-0.8-0.5-1.1-0.8c-0.3-0.3-0.6-0.7-0.7-1.2
			c-0.2-0.5-0.3-0.9-0.3-1.4c0-0.5,0.1-1,0.3-1.5c0.2-0.5,0.4-0.9,0.8-1.2c0.3-0.3,0.7-0.6,1.1-0.8c0.4-0.2,0.9-0.3,1.4-0.3
			c0.5,0,1,0.1,1.4,0.3c0.4,0.2,0.8,0.5,1.1,0.8c0.3,0.3,0.6,0.7,0.8,1.2c0.2,0.5,0.3,0.9,0.3,1.5c0,0.5-0.1,1-0.3,1.4
			c-0.2,0.5-0.4,0.9-0.7,1.2c-0.3,0.3-0.7,0.6-1.1,0.8C45.8,19.6,45.3,19.7,44.8,19.7z M42.1,16c0,0.4,0.1,0.8,0.2,1.1
			c0.1,0.3,0.3,0.7,0.6,0.9c0.2,0.3,0.5,0.5,0.8,0.6c0.3,0.1,0.7,0.2,1,0.2c0.4,0,0.7-0.1,1-0.2c0.3-0.2,0.6-0.4,0.8-0.6
			c0.2-0.3,0.4-0.6,0.6-0.9c0.1-0.4,0.2-0.7,0.2-1.1c0-0.4-0.1-0.8-0.2-1.1s-0.3-0.7-0.6-0.9c-0.2-0.3-0.5-0.5-0.8-0.6
			c-0.3-0.2-0.7-0.2-1-0.2c-0.4,0-0.7,0.1-1,0.2c-0.3,0.2-0.6,0.4-0.8,0.6s-0.4,0.6-0.6,0.9C42.2,15.2,42.1,15.6,42.1,16z"/>
		<path class="st4" d="M49.5,15.9c0-0.5,0.1-1,0.3-1.5s0.4-0.9,0.7-1.2c0.3-0.3,0.7-0.6,1.2-0.8c0.4-0.2,0.9-0.3,1.5-0.3
			c0.7,0,1.3,0.2,1.8,0.5s0.9,0.7,1.2,1.3l-0.9,0.3c-0.2-0.4-0.5-0.7-0.9-0.9S53.5,13,53.1,13c-0.4,0-0.7,0.1-1,0.2
			c-0.3,0.1-0.6,0.4-0.8,0.6c-0.2,0.3-0.4,0.6-0.6,0.9s-0.2,0.7-0.2,1.2c0,0.4,0.1,0.8,0.2,1.2c0.1,0.4,0.3,0.7,0.6,0.9
			c0.2,0.3,0.5,0.5,0.8,0.6c0.3,0.2,0.7,0.2,1,0.2c0.2,0,0.5,0,0.7-0.1c0.2-0.1,0.4-0.2,0.6-0.3c0.2-0.1,0.4-0.2,0.5-0.4
			c0.1-0.1,0.2-0.3,0.3-0.5l0.9,0.3c-0.1,0.3-0.3,0.5-0.4,0.7c-0.2,0.2-0.4,0.4-0.7,0.6c-0.3,0.2-0.6,0.3-0.9,0.4
			c-0.3,0.1-0.7,0.1-1,0.1c-0.5,0-1-0.1-1.5-0.3c-0.4-0.2-0.8-0.5-1.2-0.8c-0.3-0.3-0.6-0.8-0.8-1.2C49.6,16.9,49.5,16.4,49.5,15.9z
			"/>
		<path class="st4" d="M62.9,19.6l-2.7-3.7l-1.6,1.5v2.3h-1V9.4h1v6.9l4.1-4h1.1l-3,3l3.1,4.3H62.9z"/>
		<path class="st4" d="M67.5,19.7c-0.6,0-1.1-0.1-1.7-0.3c-0.5-0.2-1-0.5-1.4-0.8l0.4-0.6c0.4,0.3,0.8,0.6,1.3,0.8S67,19,67.5,19
			c0.6,0,1.1-0.1,1.4-0.4c0.3-0.2,0.5-0.6,0.5-1c0-0.2,0-0.4-0.1-0.5c-0.1-0.1-0.2-0.3-0.4-0.4s-0.4-0.2-0.7-0.3
			c-0.3-0.1-0.6-0.2-1-0.2c-0.4-0.1-0.8-0.2-1.1-0.3c-0.3-0.1-0.6-0.2-0.8-0.3s-0.4-0.3-0.4-0.5c-0.1-0.2-0.1-0.4-0.1-0.7
			c0-0.4,0.1-0.7,0.2-1c0.1-0.3,0.3-0.5,0.6-0.7c0.2-0.2,0.5-0.3,0.9-0.4c0.3-0.1,0.7-0.1,1.1-0.1c0.6,0,1.1,0.1,1.5,0.3
			c0.5,0.2,0.8,0.4,1.1,0.7l-0.5,0.6c-0.3-0.3-0.6-0.5-1-0.6s-0.8-0.2-1.2-0.2c-0.3,0-0.5,0-0.7,0.1c-0.2,0.1-0.4,0.1-0.6,0.2
			c-0.2,0.1-0.3,0.3-0.4,0.4s-0.1,0.4-0.1,0.6c0,0.2,0,0.4,0.1,0.5s0.2,0.2,0.3,0.3s0.3,0.2,0.6,0.2c0.2,0.1,0.5,0.1,0.8,0.2
			c0.5,0.1,0.9,0.2,1.2,0.3c0.4,0.1,0.7,0.2,0.9,0.4c0.2,0.1,0.4,0.3,0.5,0.5c0.1,0.2,0.2,0.5,0.2,0.8c0,0.7-0.3,1.2-0.8,1.6
			C69.1,19.5,68.4,19.7,67.5,19.7z"/>
		<path class="st4" d="M75.8,19.6V13h-1v-0.8h1v-0.2c0-0.9,0.2-1.6,0.6-2.1c0.4-0.5,0.9-0.8,1.6-0.8c0.3,0,0.6,0,0.8,0.1
			c0.3,0.1,0.5,0.2,0.7,0.3l-0.3,0.7c-0.1-0.1-0.3-0.2-0.5-0.2c-0.2-0.1-0.4-0.1-0.6-0.1c-0.4,0-0.8,0.2-1,0.5
			c-0.2,0.3-0.4,0.8-0.4,1.5v0.2h2V13h-2v6.5H75.8z"/>
		<path class="st4" d="M83.7,13.1c-0.6,0-1.2,0.2-1.7,0.5c-0.5,0.3-0.8,0.8-1,1.4v4.5h-1v-7.3H81V14c0.3-0.6,0.6-1,1.1-1.3
			c0.5-0.3,0.9-0.5,1.5-0.5c0.1,0,0.1,0,0.2,0V13.1z"/>
		<path class="st4" d="M87.8,19.7c-0.5,0-1-0.1-1.5-0.3c-0.4-0.2-0.8-0.5-1.1-0.8c-0.3-0.3-0.6-0.7-0.7-1.2
			c-0.2-0.5-0.3-0.9-0.3-1.4c0-0.5,0.1-1,0.3-1.5c0.2-0.5,0.4-0.9,0.8-1.2c0.3-0.3,0.7-0.6,1.1-0.8c0.4-0.2,0.9-0.3,1.4-0.3
			c0.5,0,1,0.1,1.4,0.3c0.4,0.2,0.8,0.5,1.1,0.8c0.3,0.3,0.6,0.7,0.8,1.2c0.2,0.5,0.3,0.9,0.3,1.5c0,0.5-0.1,1-0.3,1.4
			c-0.2,0.5-0.4,0.9-0.7,1.2c-0.3,0.3-0.7,0.6-1.1,0.8C88.8,19.6,88.3,19.7,87.8,19.7z M85.1,16c0,0.4,0.1,0.8,0.2,1.1
			c0.1,0.3,0.3,0.7,0.6,0.9c0.2,0.3,0.5,0.5,0.8,0.6c0.3,0.1,0.7,0.2,1,0.2c0.4,0,0.7-0.1,1-0.2c0.3-0.2,0.6-0.4,0.8-0.6
			c0.2-0.3,0.4-0.6,0.6-0.9c0.1-0.4,0.2-0.7,0.2-1.1c0-0.4-0.1-0.8-0.2-1.1s-0.3-0.7-0.6-0.9c-0.2-0.3-0.5-0.5-0.8-0.6
			c-0.3-0.2-0.7-0.2-1-0.2c-0.4,0-0.7,0.1-1,0.2c-0.3,0.2-0.6,0.4-0.8,0.6s-0.4,0.6-0.6,0.9C85.2,15.2,85.1,15.6,85.1,16z"/>
		<path class="st4" d="M103.8,19.6h-1v-4.1c0-0.8-0.1-1.5-0.4-1.9c-0.3-0.4-0.7-0.6-1.2-0.6c-0.3,0-0.5,0.1-0.8,0.2
			c-0.2,0.1-0.5,0.2-0.7,0.4s-0.4,0.4-0.6,0.7s-0.3,0.5-0.4,0.8v4.5h-1v-4.1c0-0.9-0.1-1.5-0.4-1.9c-0.3-0.4-0.7-0.6-1.2-0.6
			c-0.6,0-1,0.2-1.5,0.6s-0.7,0.9-0.9,1.5v4.5h-1v-7.3h0.9v1.7c0.3-0.6,0.7-1,1.2-1.3c0.5-0.3,1-0.5,1.6-0.5c0.6,0,1.1,0.2,1.5,0.5
			c0.4,0.3,0.6,0.8,0.7,1.4c0.7-1.3,1.6-1.9,2.8-1.9c0.4,0,0.8,0.1,1,0.2c0.3,0.1,0.5,0.4,0.7,0.6s0.3,0.6,0.4,1
			c0.1,0.4,0.1,0.8,0.1,1.3V19.6z"/>
		<path class="st4" d="M34.7,36.4h-1v-4.1c0-0.9-0.1-1.5-0.4-1.9c-0.3-0.4-0.7-0.6-1.2-0.6c-0.3,0-0.6,0.1-0.8,0.2
			c-0.3,0.1-0.5,0.2-0.8,0.4c-0.2,0.2-0.5,0.4-0.6,0.7c-0.2,0.3-0.3,0.5-0.4,0.8v4.5h-1v-7.3h0.9v1.7c0.3-0.5,0.7-1,1.3-1.3
			c0.6-0.3,1.2-0.5,1.8-0.5c0.4,0,0.7,0.1,1,0.2c0.3,0.1,0.5,0.4,0.7,0.6c0.2,0.3,0.3,0.6,0.4,1c0.1,0.4,0.1,0.8,0.1,1.3V36.4z"/>
		<path class="st4" d="M39.8,36.5c-0.5,0-1-0.1-1.5-0.3c-0.4-0.2-0.8-0.5-1.1-0.8c-0.3-0.3-0.6-0.7-0.7-1.2
			c-0.2-0.5-0.3-0.9-0.3-1.4c0-0.5,0.1-1,0.3-1.5c0.2-0.5,0.4-0.9,0.8-1.2c0.3-0.3,0.7-0.6,1.1-0.8c0.4-0.2,0.9-0.3,1.4-0.3
			c0.5,0,1,0.1,1.4,0.3c0.4,0.2,0.8,0.5,1.1,0.8c0.3,0.3,0.6,0.7,0.8,1.2c0.2,0.5,0.3,0.9,0.3,1.5c0,0.5-0.1,1-0.3,1.4
			c-0.2,0.5-0.4,0.9-0.7,1.2c-0.3,0.3-0.7,0.6-1.1,0.8C40.8,36.4,40.3,36.5,39.8,36.5z M37.2,32.8c0,0.4,0.1,0.8,0.2,1.1
			c0.1,0.3,0.3,0.7,0.6,0.9c0.2,0.3,0.5,0.5,0.8,0.6c0.3,0.1,0.7,0.2,1,0.2c0.4,0,0.7-0.1,1-0.2c0.3-0.2,0.6-0.4,0.8-0.6
			c0.2-0.3,0.4-0.6,0.6-0.9c0.1-0.4,0.2-0.7,0.2-1.1c0-0.4-0.1-0.8-0.2-1.1s-0.3-0.7-0.6-0.9c-0.2-0.3-0.5-0.5-0.8-0.6
			c-0.3-0.2-0.7-0.2-1-0.2c-0.4,0-0.7,0.1-1,0.2c-0.3,0.2-0.6,0.4-0.8,0.6s-0.4,0.6-0.6,0.9C37.2,32,37.2,32.4,37.2,32.8z"/>
		<path class="st4" d="M51.2,36.4h-1v-4.1c0-0.9-0.1-1.5-0.4-1.9c-0.3-0.4-0.7-0.6-1.2-0.6c-0.3,0-0.6,0.1-0.8,0.2
			c-0.3,0.1-0.5,0.2-0.8,0.4c-0.2,0.2-0.5,0.4-0.6,0.7c-0.2,0.3-0.3,0.5-0.4,0.8v4.5h-1v-7.3h0.9v1.7c0.3-0.5,0.7-1,1.3-1.3
			c0.6-0.3,1.2-0.5,1.8-0.5c0.4,0,0.7,0.1,1,0.2c0.3,0.1,0.5,0.4,0.7,0.6c0.2,0.3,0.3,0.6,0.4,1c0.1,0.4,0.1,0.8,0.1,1.3V36.4z"/>
		<path class="st4" d="M53,33v-0.9h4.1V33H53z"/>
		<path class="st4" d="M61.4,36.5c-0.8,0-1.4-0.3-1.8-0.8c-0.4-0.5-0.6-1.3-0.6-2.4v-4.3h1v4.1c0,1.7,0.6,2.5,1.7,2.5
			c0.3,0,0.6,0,0.8-0.1c0.3-0.1,0.5-0.2,0.7-0.4c0.2-0.2,0.4-0.4,0.6-0.6c0.2-0.2,0.3-0.5,0.4-0.8v-4.6h1v6.1c0,0.3,0.1,0.4,0.3,0.4
			v0.8c-0.1,0-0.2,0-0.3,0s-0.1,0-0.1,0c-0.2,0-0.4-0.1-0.5-0.2s-0.2-0.3-0.2-0.6v-0.8c-0.3,0.6-0.7,1-1.3,1.3
			C62.6,36.4,62,36.5,61.4,36.5z"/>
		<path class="st4" d="M71.1,36.5c-0.6,0-1.2-0.2-1.6-0.5c-0.5-0.3-0.9-0.7-1.1-1.2v4.5h-1V29.1h0.9v1.4c0.3-0.5,0.7-0.8,1.2-1.1
			c0.5-0.3,1-0.4,1.6-0.4c0.5,0,1,0.1,1.4,0.3c0.4,0.2,0.8,0.5,1.1,0.8c0.3,0.3,0.5,0.8,0.7,1.2s0.3,0.9,0.3,1.4
			c0,0.5-0.1,1-0.2,1.5c-0.2,0.5-0.4,0.9-0.7,1.2c-0.3,0.3-0.6,0.6-1.1,0.8C72.1,36.4,71.6,36.5,71.1,36.5z M70.9,35.7
			c0.4,0,0.7-0.1,1.1-0.3c0.3-0.2,0.6-0.4,0.8-0.7c0.2-0.3,0.4-0.6,0.5-0.9c0.1-0.4,0.2-0.7,0.2-1.1c0-0.4-0.1-0.8-0.2-1.1
			c-0.1-0.4-0.3-0.7-0.6-0.9c-0.2-0.3-0.5-0.5-0.9-0.6c-0.3-0.2-0.7-0.2-1.1-0.2c-0.2,0-0.5,0-0.8,0.1c-0.3,0.1-0.5,0.2-0.7,0.4
			c-0.2,0.2-0.4,0.4-0.6,0.6c-0.2,0.2-0.3,0.5-0.3,0.7v2.2c0.1,0.3,0.3,0.5,0.4,0.7c0.2,0.2,0.4,0.4,0.6,0.6
			c0.2,0.2,0.5,0.3,0.7,0.4C70.3,35.6,70.6,35.7,70.9,35.7z"/>
		<path class="st4" d="M79,36.5c-0.5,0-1-0.1-1.4-0.3c-0.4-0.2-0.8-0.5-1.1-0.8c-0.3-0.3-0.5-0.7-0.7-1.2s-0.3-0.9-0.3-1.4
			c0-0.5,0.1-1,0.2-1.4c0.2-0.5,0.4-0.9,0.7-1.2c0.3-0.3,0.7-0.6,1.1-0.8c0.4-0.2,0.9-0.3,1.4-0.3c0.6,0,1.2,0.2,1.6,0.5
			c0.5,0.3,0.8,0.7,1.2,1.2v-1.5h0.9v7.3c0,0.5-0.1,0.9-0.3,1.3c-0.2,0.4-0.4,0.7-0.8,1c-0.3,0.3-0.7,0.5-1.1,0.6s-0.9,0.2-1.4,0.2
			c-0.8,0-1.5-0.1-2-0.4s-0.9-0.7-1.2-1.2l0.6-0.5c0.3,0.5,0.7,0.8,1.1,1c0.5,0.2,1,0.3,1.5,0.3c0.4,0,0.7,0,1-0.1
			c0.3-0.1,0.6-0.2,0.8-0.4c0.2-0.2,0.4-0.4,0.6-0.7s0.2-0.6,0.2-1V35c-0.3,0.5-0.7,0.8-1.1,1.1S79.5,36.5,79,36.5z M79.2,35.7
			c0.3,0,0.6-0.1,0.8-0.2c0.3-0.1,0.5-0.2,0.7-0.4c0.2-0.2,0.4-0.4,0.6-0.6s0.2-0.4,0.3-0.7v-2.3c-0.1-0.3-0.2-0.5-0.4-0.7
			c-0.2-0.2-0.4-0.4-0.6-0.6c-0.2-0.2-0.5-0.3-0.7-0.4c-0.3-0.1-0.5-0.1-0.8-0.1c-0.4,0-0.8,0.1-1.1,0.3c-0.3,0.2-0.6,0.4-0.8,0.7
			c-0.2,0.3-0.4,0.6-0.5,1c-0.1,0.4-0.2,0.7-0.2,1.1c0,0.4,0.1,0.8,0.2,1.1c0.1,0.4,0.3,0.7,0.6,0.9c0.2,0.3,0.5,0.5,0.9,0.6
			C78.5,35.6,78.9,35.7,79.2,35.7z"/>
		<path class="st4" d="M88.3,29.9c-0.6,0-1.2,0.2-1.7,0.5c-0.5,0.3-0.8,0.8-1,1.4v4.5h-1v-7.3h0.9v1.8c0.3-0.6,0.6-1,1.1-1.3
			c0.5-0.3,0.9-0.5,1.5-0.5c0.1,0,0.1,0,0.2,0V29.9z"/>
		<path class="st4" d="M91.3,36.5c-0.3,0-0.7-0.1-1-0.2c-0.3-0.1-0.6-0.3-0.8-0.5c-0.2-0.2-0.4-0.4-0.5-0.7
			c-0.1-0.3-0.2-0.6-0.2-0.9s0.1-0.6,0.2-0.9c0.1-0.3,0.4-0.5,0.6-0.7s0.6-0.3,1-0.5c0.4-0.1,0.8-0.2,1.2-0.2c0.4,0,0.8,0,1.1,0.1
			s0.7,0.2,1,0.3v-0.7c0-0.6-0.2-1.2-0.5-1.5c-0.4-0.4-0.9-0.6-1.5-0.6c-0.4,0-0.8,0.1-1.1,0.2c-0.4,0.1-0.8,0.4-1.2,0.6l-0.3-0.6
			c0.9-0.6,1.9-1,2.7-1c0.9,0,1.6,0.3,2.2,0.8c0.5,0.5,0.8,1.2,0.8,2.1v3.3c0,0.3,0.1,0.4,0.4,0.4v0.8c-0.2,0-0.3,0-0.4,0
			c-0.2,0-0.4-0.1-0.6-0.2s-0.2-0.3-0.2-0.5l0-0.6c-0.3,0.4-0.8,0.8-1.3,1S91.9,36.5,91.3,36.5z M91.6,35.8c0.5,0,0.9-0.1,1.4-0.3
			c0.4-0.2,0.7-0.4,0.9-0.7c0.1-0.1,0.1-0.2,0.2-0.3c0-0.1,0.1-0.2,0.1-0.3V33c-0.3-0.1-0.6-0.2-1-0.3c-0.3-0.1-0.7-0.1-1-0.1
			c-0.7,0-1.2,0.1-1.6,0.4c-0.4,0.3-0.6,0.6-0.6,1.1c0,0.2,0,0.4,0.1,0.6c0.1,0.2,0.2,0.4,0.4,0.5c0.2,0.1,0.3,0.3,0.6,0.3
			S91.3,35.8,91.6,35.8z"/>
		<path class="st4" d="M100.1,36.5c-0.5,0-1-0.1-1.4-0.3s-0.8-0.5-1.1-0.8s-0.5-0.7-0.7-1.2c-0.2-0.5-0.3-0.9-0.3-1.4
			c0-0.5,0.1-1,0.3-1.5s0.4-0.9,0.7-1.2c0.3-0.3,0.6-0.6,1.1-0.8c0.4-0.2,0.9-0.3,1.3-0.3c0.6,0,1.2,0.2,1.6,0.5
			c0.5,0.3,0.8,0.7,1.1,1.2v-4.5h1v9c0,0.3,0.1,0.4,0.3,0.4v0.8c-0.1,0-0.3,0-0.3,0c-0.2,0-0.4-0.1-0.6-0.2s-0.3-0.3-0.3-0.5V35
			c-0.3,0.5-0.7,0.9-1.2,1.1C101.2,36.4,100.7,36.5,100.1,36.5z M100.4,35.7c0.2,0,0.5,0,0.7-0.1c0.3-0.1,0.5-0.2,0.7-0.4
			c0.2-0.2,0.4-0.4,0.6-0.6c0.2-0.2,0.3-0.5,0.3-0.7v-2.3c-0.1-0.3-0.2-0.5-0.4-0.7c-0.2-0.2-0.4-0.4-0.6-0.6
			c-0.2-0.2-0.5-0.3-0.7-0.4c-0.3-0.1-0.5-0.1-0.8-0.1c-0.4,0-0.7,0.1-1.1,0.3s-0.6,0.4-0.8,0.7c-0.2,0.3-0.4,0.6-0.5,0.9
			c-0.1,0.4-0.2,0.7-0.2,1.1c0,0.4,0.1,0.8,0.2,1.1s0.3,0.7,0.6,0.9c0.2,0.3,0.5,0.5,0.9,0.6C99.6,35.6,100,35.7,100.4,35.7z"/>
		<path class="st4" d="M109,36.5c-0.5,0-1-0.1-1.5-0.3c-0.4-0.2-0.8-0.5-1.2-0.8c-0.3-0.3-0.6-0.8-0.8-1.2c-0.2-0.5-0.3-0.9-0.3-1.5
			c0-0.5,0.1-1,0.3-1.4c0.2-0.5,0.4-0.8,0.8-1.2c0.3-0.3,0.7-0.6,1.2-0.8c0.4-0.2,0.9-0.3,1.5-0.3c0.5,0,1,0.1,1.5,0.3
			c0.4,0.2,0.8,0.5,1.1,0.8c0.3,0.3,0.6,0.7,0.7,1.2c0.2,0.4,0.3,0.9,0.3,1.4c0,0.1,0,0.1,0,0.2c0,0.1,0,0.1,0,0.2h-6.2
			c0,0.4,0.1,0.8,0.3,1.1s0.4,0.6,0.6,0.9c0.2,0.2,0.5,0.4,0.8,0.6c0.3,0.1,0.6,0.2,1,0.2c0.2,0,0.5,0,0.7-0.1s0.4-0.2,0.6-0.3
			c0.2-0.1,0.4-0.2,0.5-0.4c0.2-0.2,0.3-0.3,0.4-0.5l0.8,0.2c-0.1,0.3-0.3,0.5-0.5,0.7c-0.2,0.2-0.4,0.4-0.7,0.6
			c-0.3,0.2-0.6,0.3-0.9,0.4C109.7,36.5,109.4,36.5,109,36.5z M111.7,32.4c0-0.4-0.1-0.7-0.3-1.1c-0.2-0.3-0.4-0.6-0.6-0.8
			c-0.2-0.2-0.5-0.4-0.8-0.5c-0.3-0.1-0.6-0.2-1-0.2c-0.4,0-0.7,0.1-1,0.2c-0.3,0.1-0.6,0.3-0.8,0.5c-0.2,0.2-0.4,0.5-0.6,0.8
			c-0.1,0.3-0.2,0.7-0.3,1.1H111.7z"/>
		<path class="st4" d="M117.1,36.5c-0.5,0-1-0.1-1.4-0.3s-0.8-0.5-1.1-0.8s-0.5-0.7-0.7-1.2c-0.2-0.5-0.3-0.9-0.3-1.4
			c0-0.5,0.1-1,0.3-1.5s0.4-0.9,0.7-1.2c0.3-0.3,0.6-0.6,1.1-0.8c0.4-0.2,0.9-0.3,1.3-0.3c0.6,0,1.2,0.2,1.6,0.5
			c0.5,0.3,0.8,0.7,1.1,1.2v-4.5h1v9c0,0.3,0.1,0.4,0.3,0.4v0.8c-0.1,0-0.3,0-0.3,0c-0.2,0-0.4-0.1-0.6-0.2s-0.3-0.3-0.3-0.5V35
			c-0.3,0.5-0.7,0.9-1.2,1.1C118.1,36.4,117.6,36.5,117.1,36.5z M117.3,35.7c0.2,0,0.5,0,0.7-0.1c0.3-0.1,0.5-0.2,0.7-0.4
			c0.2-0.2,0.4-0.4,0.6-0.6c0.2-0.2,0.3-0.5,0.3-0.7v-2.3c-0.1-0.3-0.2-0.5-0.4-0.7c-0.2-0.2-0.4-0.4-0.6-0.6
			c-0.2-0.2-0.5-0.3-0.7-0.4c-0.3-0.1-0.5-0.1-0.8-0.1c-0.4,0-0.7,0.1-1.1,0.3s-0.6,0.4-0.8,0.7c-0.2,0.3-0.4,0.6-0.5,0.9
			c-0.1,0.4-0.2,0.7-0.2,1.1c0,0.4,0.1,0.8,0.2,1.1s0.3,0.7,0.6,0.9c0.2,0.3,0.5,0.5,0.9,0.6C116.5,35.6,116.9,35.7,117.3,35.7z"/>
		<path class="st4" d="M34.7,53.2h-1v-4.1c0-0.9-0.1-1.5-0.4-1.9c-0.3-0.4-0.7-0.6-1.2-0.6c-0.3,0-0.6,0.1-0.8,0.2
			c-0.3,0.1-0.5,0.2-0.8,0.4c-0.2,0.2-0.5,0.4-0.6,0.7c-0.2,0.3-0.3,0.5-0.4,0.8v4.5h-1v-7.3h0.9v1.7c0.3-0.5,0.7-1,1.3-1.3
			c0.6-0.3,1.2-0.5,1.8-0.5c0.4,0,0.7,0.1,1,0.2c0.3,0.1,0.5,0.4,0.7,0.6c0.2,0.3,0.3,0.6,0.4,1c0.1,0.4,0.1,0.8,0.1,1.3V53.2z"/>
		<path class="st4" d="M39.8,53.3c-0.5,0-1-0.1-1.5-0.3c-0.4-0.2-0.8-0.5-1.1-0.8c-0.3-0.3-0.6-0.7-0.7-1.2
			c-0.2-0.5-0.3-0.9-0.3-1.4c0-0.5,0.1-1,0.3-1.5c0.2-0.5,0.4-0.9,0.8-1.2c0.3-0.3,0.7-0.6,1.1-0.8c0.4-0.2,0.9-0.3,1.4-0.3
			c0.5,0,1,0.1,1.4,0.3c0.4,0.2,0.8,0.5,1.1,0.8c0.3,0.3,0.6,0.7,0.8,1.2c0.2,0.5,0.3,0.9,0.3,1.5c0,0.5-0.1,1-0.3,1.4
			c-0.2,0.5-0.4,0.9-0.7,1.2c-0.3,0.3-0.7,0.6-1.1,0.8C40.8,53.2,40.3,53.3,39.8,53.3z M37.2,49.6c0,0.4,0.1,0.8,0.2,1.1
			c0.1,0.3,0.3,0.7,0.6,0.9c0.2,0.3,0.5,0.5,0.8,0.6c0.3,0.1,0.7,0.2,1,0.2c0.4,0,0.7-0.1,1-0.2c0.3-0.2,0.6-0.4,0.8-0.6
			c0.2-0.3,0.4-0.6,0.6-0.9c0.1-0.4,0.2-0.7,0.2-1.1c0-0.4-0.1-0.8-0.2-1.1s-0.3-0.7-0.6-0.9c-0.2-0.3-0.5-0.5-0.8-0.6
			c-0.3-0.2-0.7-0.2-1-0.2c-0.4,0-0.7,0.1-1,0.2c-0.3,0.2-0.6,0.4-0.8,0.6s-0.4,0.6-0.6,0.9C37.2,48.8,37.2,49.2,37.2,49.6z"/>
		<path class="st4" d="M48,53.3c-0.5,0-1-0.1-1.4-0.3s-0.8-0.5-1.1-0.8S45,51.4,44.8,51c-0.2-0.5-0.3-0.9-0.3-1.4
			c0-0.5,0.1-1,0.3-1.5s0.4-0.9,0.7-1.2c0.3-0.3,0.6-0.6,1.1-0.8c0.4-0.2,0.9-0.3,1.3-0.3c0.6,0,1.2,0.2,1.6,0.5
			c0.5,0.3,0.8,0.7,1.1,1.2V43h1v9c0,0.3,0.1,0.4,0.3,0.4v0.8c-0.1,0-0.3,0-0.3,0c-0.2,0-0.4-0.1-0.6-0.2s-0.3-0.3-0.3-0.5v-0.7
			c-0.3,0.5-0.7,0.9-1.2,1.1C49.1,53.2,48.6,53.3,48,53.3z M48.2,52.5c0.2,0,0.5,0,0.7-0.1c0.3-0.1,0.5-0.2,0.7-0.4
			c0.2-0.2,0.4-0.4,0.6-0.6c0.2-0.2,0.3-0.5,0.3-0.7v-2.3c-0.1-0.3-0.2-0.5-0.4-0.7c-0.2-0.2-0.4-0.4-0.6-0.6
			c-0.2-0.2-0.5-0.3-0.7-0.4c-0.3-0.1-0.5-0.1-0.8-0.1c-0.4,0-0.7,0.1-1.1,0.3s-0.6,0.4-0.8,0.7c-0.2,0.3-0.4,0.6-0.5,0.9
			c-0.1,0.4-0.2,0.7-0.2,1.1c0,0.4,0.1,0.8,0.2,1.1s0.3,0.7,0.6,0.9c0.2,0.3,0.5,0.5,0.9,0.6C47.5,52.4,47.8,52.5,48.2,52.5z"/>
		<path class="st4" d="M56.9,53.3c-0.5,0-1-0.1-1.5-0.3c-0.4-0.2-0.8-0.5-1.2-0.8c-0.3-0.3-0.6-0.8-0.8-1.2
			c-0.2-0.5-0.3-0.9-0.3-1.5c0-0.5,0.1-1,0.3-1.4c0.2-0.5,0.4-0.8,0.8-1.2c0.3-0.3,0.7-0.6,1.2-0.8c0.4-0.2,0.9-0.3,1.5-0.3
			c0.5,0,1,0.1,1.5,0.3c0.4,0.2,0.8,0.5,1.1,0.8c0.3,0.3,0.6,0.7,0.7,1.2c0.2,0.4,0.3,0.9,0.3,1.4c0,0.1,0,0.1,0,0.2
			c0,0.1,0,0.1,0,0.2h-6.2c0,0.4,0.1,0.8,0.3,1.1s0.4,0.6,0.6,0.9c0.2,0.2,0.5,0.4,0.8,0.6c0.3,0.1,0.6,0.2,1,0.2
			c0.2,0,0.5,0,0.7-0.1s0.4-0.2,0.6-0.3c0.2-0.1,0.4-0.2,0.5-0.4c0.2-0.2,0.3-0.3,0.4-0.5l0.8,0.2c-0.1,0.3-0.3,0.5-0.5,0.7
			c-0.2,0.2-0.4,0.4-0.7,0.6c-0.3,0.2-0.6,0.3-0.9,0.4C57.6,53.3,57.2,53.3,56.9,53.3z M59.6,49.2c0-0.4-0.1-0.7-0.3-1.1
			c-0.2-0.3-0.4-0.6-0.6-0.8c-0.2-0.2-0.5-0.4-0.8-0.5c-0.3-0.1-0.6-0.2-1-0.2c-0.4,0-0.7,0.1-1,0.2c-0.3,0.1-0.6,0.3-0.8,0.5
			c-0.2,0.2-0.4,0.5-0.6,0.8c-0.1,0.3-0.2,0.7-0.3,1.1H59.6z"/>
		<path class="st4" d="M64.4,53.3c-0.6,0-1.1-0.1-1.7-0.3c-0.5-0.2-1-0.5-1.4-0.8l0.4-0.6c0.4,0.3,0.8,0.6,1.3,0.8s0.9,0.3,1.4,0.3
			c0.6,0,1.1-0.1,1.4-0.4c0.3-0.2,0.5-0.6,0.5-1c0-0.2,0-0.4-0.1-0.5c-0.1-0.1-0.2-0.3-0.4-0.4s-0.4-0.2-0.7-0.3
			c-0.3-0.1-0.6-0.2-1-0.2c-0.4-0.1-0.8-0.2-1.1-0.3c-0.3-0.1-0.6-0.2-0.8-0.3s-0.4-0.3-0.4-0.5c-0.1-0.2-0.1-0.4-0.1-0.7
			c0-0.4,0.1-0.7,0.2-1c0.1-0.3,0.3-0.5,0.6-0.7c0.2-0.2,0.5-0.3,0.9-0.4c0.3-0.1,0.7-0.1,1.1-0.1c0.6,0,1.1,0.1,1.5,0.3
			c0.5,0.2,0.8,0.4,1.1,0.7l-0.5,0.6c-0.3-0.3-0.6-0.5-1-0.6s-0.8-0.2-1.2-0.2c-0.3,0-0.5,0-0.7,0.1c-0.2,0.1-0.4,0.1-0.6,0.2
			c-0.2,0.1-0.3,0.3-0.4,0.4s-0.1,0.4-0.1,0.6c0,0.2,0,0.4,0.1,0.5s0.2,0.2,0.3,0.3s0.3,0.2,0.6,0.2c0.2,0.1,0.5,0.1,0.8,0.2
			c0.5,0.1,0.9,0.2,1.2,0.3c0.4,0.1,0.7,0.2,0.9,0.4c0.2,0.1,0.4,0.3,0.5,0.5c0.1,0.2,0.2,0.5,0.2,0.8c0,0.7-0.3,1.2-0.8,1.6
			C65.9,53.1,65.2,53.3,64.4,53.3z"/>
	</g>
</g>
<path class="st5" d="M123.8,183.4h-99c-2.2,0-4.1-1.8-4.1-4.1v-58.5c0-2.2,1.8-4.1,4.1-4.1h99c2.2,0,4.1,1.8,4.1,4.1v58.5
	C127.9,181.6,126,183.4,123.8,183.4z"/>
<g>
	<g>
		<path class="st3" d="M50.8,146.2v-9.9h6.5v0.9h-5.5v3.7h4.7v0.8h-4.7v4.6H50.8z"/>
		<path class="st3" d="M61.4,146.3c-0.5,0-1-0.1-1.5-0.3c-0.4-0.2-0.8-0.5-1.1-0.8c-0.3-0.3-0.6-0.7-0.7-1.2
			c-0.2-0.5-0.3-0.9-0.3-1.4c0-0.5,0.1-1,0.3-1.5c0.2-0.5,0.4-0.9,0.8-1.2c0.3-0.3,0.7-0.6,1.1-0.8c0.4-0.2,0.9-0.3,1.4-0.3
			c0.5,0,1,0.1,1.4,0.3c0.4,0.2,0.8,0.5,1.1,0.8c0.3,0.3,0.6,0.7,0.8,1.2c0.2,0.5,0.3,0.9,0.3,1.5c0,0.5-0.1,1-0.3,1.4
			c-0.2,0.5-0.4,0.9-0.7,1.2c-0.3,0.3-0.7,0.6-1.1,0.8C62.5,146.2,62,146.3,61.4,146.3z M58.8,142.6c0,0.4,0.1,0.8,0.2,1.1
			c0.1,0.3,0.3,0.7,0.6,0.9c0.2,0.3,0.5,0.5,0.8,0.6c0.3,0.1,0.7,0.2,1,0.2c0.4,0,0.7-0.1,1-0.2c0.3-0.2,0.6-0.4,0.8-0.6
			c0.2-0.3,0.4-0.6,0.6-0.9c0.1-0.4,0.2-0.7,0.2-1.1c0-0.4-0.1-0.8-0.2-1.1s-0.3-0.7-0.6-0.9c-0.2-0.3-0.5-0.5-0.8-0.6
			c-0.3-0.2-0.7-0.2-1-0.2c-0.4,0-0.7,0.1-1,0.2c-0.3,0.2-0.6,0.4-0.8,0.6s-0.4,0.6-0.6,0.9C58.9,141.8,58.8,142.2,58.8,142.6z"/>
		<path class="st3" d="M66.7,136h1v8.6c0,0.3,0.1,0.5,0.2,0.6c0.1,0.2,0.4,0.2,0.6,0.2c0.1,0,0.2,0,0.4,0c0.1,0,0.3-0.1,0.4-0.1
			l0.2,0.8c-0.2,0.1-0.4,0.1-0.7,0.2c-0.3,0-0.5,0.1-0.7,0.1c-0.4,0-0.8-0.1-1-0.4c-0.3-0.2-0.4-0.6-0.4-1V136z"/>
		<path class="st3" d="M70.5,136h1v8.6c0,0.3,0.1,0.5,0.2,0.6c0.1,0.2,0.4,0.2,0.6,0.2c0.1,0,0.2,0,0.4,0c0.1,0,0.3-0.1,0.4-0.1
			l0.2,0.8c-0.2,0.1-0.4,0.1-0.7,0.2c-0.3,0-0.5,0.1-0.7,0.1c-0.4,0-0.8-0.1-1-0.4c-0.3-0.2-0.4-0.6-0.4-1V136z"/>
		<path class="st3" d="M77.4,146.3c-0.5,0-1-0.1-1.5-0.3c-0.4-0.2-0.8-0.5-1.1-0.8c-0.3-0.3-0.6-0.7-0.7-1.2
			c-0.2-0.5-0.3-0.9-0.3-1.4c0-0.5,0.1-1,0.3-1.5c0.2-0.5,0.4-0.9,0.8-1.2c0.3-0.3,0.7-0.6,1.1-0.8c0.4-0.2,0.9-0.3,1.4-0.3
			c0.5,0,1,0.1,1.4,0.3c0.4,0.2,0.8,0.5,1.1,0.8c0.3,0.3,0.6,0.7,0.8,1.2c0.2,0.5,0.3,0.9,0.3,1.5c0,0.5-0.1,1-0.3,1.4
			c-0.2,0.5-0.4,0.9-0.7,1.2c-0.3,0.3-0.7,0.6-1.1,0.8C78.4,146.2,77.9,146.3,77.4,146.3z M74.7,142.6c0,0.4,0.1,0.8,0.2,1.1
			c0.1,0.3,0.3,0.7,0.6,0.9c0.2,0.3,0.5,0.5,0.8,0.6c0.3,0.1,0.7,0.2,1,0.2c0.4,0,0.7-0.1,1-0.2c0.3-0.2,0.6-0.4,0.8-0.6
			c0.2-0.3,0.4-0.6,0.6-0.9c0.1-0.4,0.2-0.7,0.2-1.1c0-0.4-0.1-0.8-0.2-1.1s-0.3-0.7-0.6-0.9c-0.2-0.3-0.5-0.5-0.8-0.6
			c-0.3-0.2-0.7-0.2-1-0.2c-0.4,0-0.7,0.1-1,0.2c-0.3,0.2-0.6,0.4-0.8,0.6s-0.4,0.6-0.6,0.9C74.8,141.8,74.7,142.2,74.7,142.6z"/>
		<path class="st3" d="M91.5,138.9h0.9l-3.1,7.3h-0.8l-1.6-3.7l-1.6,3.7h-0.8l-3.1-7.3h0.9l2.7,6.3l1.4-3.3l-1.2-3H86l1,2.4l1-2.4
			h0.8l-1.2,3l1.4,3.3L91.5,138.9z"/>
		<path class="st3" d="M96,146.3c-0.6,0-1.1-0.1-1.7-0.3c-0.5-0.2-1-0.5-1.4-0.8l0.4-0.6c0.4,0.3,0.8,0.6,1.3,0.8s0.9,0.3,1.4,0.3
			c0.6,0,1.1-0.1,1.4-0.4c0.3-0.2,0.5-0.6,0.5-1c0-0.2,0-0.4-0.1-0.5c-0.1-0.1-0.2-0.3-0.4-0.4s-0.4-0.2-0.7-0.3
			c-0.3-0.1-0.6-0.2-1-0.2c-0.4-0.1-0.8-0.2-1.1-0.3c-0.3-0.1-0.6-0.2-0.8-0.3s-0.4-0.3-0.4-0.5c-0.1-0.2-0.1-0.4-0.1-0.7
			c0-0.4,0.1-0.7,0.2-1c0.1-0.3,0.3-0.5,0.6-0.7c0.2-0.2,0.5-0.3,0.9-0.4c0.3-0.1,0.7-0.1,1.1-0.1c0.6,0,1.1,0.1,1.5,0.3
			c0.5,0.2,0.8,0.4,1.1,0.7l-0.5,0.6c-0.3-0.3-0.6-0.5-1-0.6s-0.8-0.2-1.2-0.2c-0.3,0-0.5,0-0.7,0.1c-0.2,0.1-0.4,0.1-0.6,0.2
			c-0.2,0.1-0.3,0.3-0.4,0.4s-0.1,0.4-0.1,0.6c0,0.2,0,0.4,0.1,0.5s0.2,0.2,0.3,0.3s0.3,0.2,0.6,0.2c0.2,0.1,0.5,0.1,0.8,0.2
			c0.5,0.1,0.9,0.2,1.2,0.3c0.4,0.1,0.7,0.2,0.9,0.4c0.2,0.1,0.4,0.3,0.5,0.5c0.1,0.2,0.2,0.5,0.2,0.8c0,0.7-0.3,1.2-0.8,1.6
			C97.5,146.2,96.8,146.3,96,146.3z"/>
		<path class="st3" d="M50.3,163.1c-0.5,0-1-0.1-1.5-0.3c-0.4-0.2-0.8-0.5-1.1-0.8c-0.3-0.3-0.6-0.7-0.7-1.2
			c-0.2-0.5-0.3-0.9-0.3-1.4c0-0.5,0.1-1,0.3-1.5c0.2-0.5,0.4-0.9,0.8-1.2c0.3-0.3,0.7-0.6,1.1-0.8c0.4-0.2,0.9-0.3,1.4-0.3
			c0.5,0,1,0.1,1.4,0.3c0.4,0.2,0.8,0.5,1.1,0.8c0.3,0.3,0.6,0.7,0.8,1.2c0.2,0.5,0.3,0.9,0.3,1.5c0,0.5-0.1,1-0.3,1.4
			c-0.2,0.5-0.4,0.9-0.7,1.2c-0.3,0.3-0.7,0.6-1.1,0.8C51.3,163,50.9,163.1,50.3,163.1z M47.7,159.4c0,0.4,0.1,0.8,0.2,1.1
			c0.1,0.3,0.3,0.7,0.6,0.9c0.2,0.3,0.5,0.5,0.8,0.6c0.3,0.1,0.7,0.2,1,0.2c0.4,0,0.7-0.1,1-0.2c0.3-0.2,0.6-0.4,0.8-0.6
			c0.2-0.3,0.4-0.6,0.6-0.9c0.1-0.4,0.2-0.7,0.2-1.1c0-0.4-0.1-0.8-0.2-1.1s-0.3-0.7-0.6-0.9c-0.2-0.3-0.5-0.5-0.8-0.6
			c-0.3-0.2-0.7-0.2-1-0.2c-0.4,0-0.7,0.1-1,0.2c-0.3,0.2-0.6,0.4-0.8,0.6s-0.4,0.6-0.6,0.9C47.8,158.6,47.7,159,47.7,159.4z"/>
		<path class="st3" d="M55.6,152.8h1v8.6c0,0.3,0.1,0.5,0.2,0.6c0.1,0.2,0.4,0.2,0.6,0.2c0.1,0,0.2,0,0.4,0c0.1,0,0.3-0.1,0.4-0.1
			l0.2,0.8c-0.2,0.1-0.4,0.1-0.7,0.2c-0.3,0-0.5,0.1-0.7,0.1c-0.4,0-0.8-0.1-1-0.4c-0.3-0.2-0.4-0.6-0.4-1V152.8z"/>
		<path class="st3" d="M62.4,163.1c-0.5,0-1-0.1-1.4-0.3s-0.8-0.5-1.1-0.8s-0.5-0.7-0.7-1.2c-0.2-0.5-0.3-0.9-0.3-1.4
			c0-0.5,0.1-1,0.3-1.5s0.4-0.9,0.7-1.2c0.3-0.3,0.6-0.6,1.1-0.8c0.4-0.2,0.9-0.3,1.3-0.3c0.6,0,1.2,0.2,1.6,0.5
			c0.5,0.3,0.8,0.7,1.1,1.2v-4.5h1v9c0,0.3,0.1,0.4,0.3,0.4v0.8c-0.1,0-0.3,0-0.3,0c-0.2,0-0.4-0.1-0.6-0.2s-0.3-0.3-0.3-0.5v-0.7
			c-0.3,0.5-0.7,0.9-1.2,1.1C63.4,163,62.9,163.1,62.4,163.1z M62.6,162.3c0.2,0,0.5,0,0.7-0.1c0.3-0.1,0.5-0.2,0.7-0.4
			c0.2-0.2,0.4-0.4,0.6-0.6c0.2-0.2,0.3-0.5,0.3-0.7v-2.3c-0.1-0.3-0.2-0.5-0.4-0.7c-0.2-0.2-0.4-0.4-0.6-0.6
			c-0.2-0.2-0.5-0.3-0.7-0.4c-0.3-0.1-0.5-0.1-0.8-0.1c-0.4,0-0.7,0.1-1.1,0.3s-0.6,0.4-0.8,0.7c-0.2,0.3-0.4,0.6-0.5,0.9
			c-0.1,0.4-0.2,0.7-0.2,1.1c0,0.4,0.1,0.8,0.2,1.1s0.3,0.7,0.6,0.9c0.2,0.3,0.5,0.5,0.9,0.6C61.8,162.2,62.2,162.3,62.6,162.3z"/>
		<path class="st3" d="M75.3,156.6c-0.6,0-1.2,0.2-1.7,0.5c-0.5,0.3-0.8,0.8-1,1.4v4.5h-1v-7.3h0.9v1.8c0.3-0.6,0.6-1,1.1-1.3
			c0.5-0.3,0.9-0.5,1.5-0.5c0.1,0,0.1,0,0.2,0V156.6z"/>
		<path class="st3" d="M78.8,163.1c-0.8,0-1.4-0.3-1.8-0.8c-0.4-0.5-0.6-1.3-0.6-2.4v-4.3h1v4.1c0,1.7,0.6,2.5,1.7,2.5
			c0.3,0,0.6,0,0.8-0.1c0.3-0.1,0.5-0.2,0.7-0.4c0.2-0.2,0.4-0.4,0.6-0.6c0.2-0.2,0.3-0.5,0.4-0.8v-4.6h1v6.1c0,0.3,0.1,0.4,0.3,0.4
			v0.8c-0.1,0-0.2,0-0.3,0s-0.1,0-0.1,0c-0.2,0-0.4-0.1-0.5-0.2s-0.2-0.3-0.2-0.6v-0.8c-0.3,0.6-0.7,1-1.3,1.3
			C80,163,79.4,163.1,78.8,163.1z"/>
		<path class="st3" d="M84.9,152.8h1v8.6c0,0.3,0.1,0.5,0.2,0.6c0.1,0.2,0.4,0.2,0.6,0.2c0.1,0,0.2,0,0.4,0c0.1,0,0.3-0.1,0.4-0.1
			l0.2,0.8c-0.2,0.1-0.4,0.1-0.7,0.2c-0.3,0-0.5,0.1-0.7,0.1c-0.4,0-0.8-0.1-1-0.4c-0.3-0.2-0.4-0.6-0.4-1V152.8z"/>
		<path class="st3" d="M91.8,163.1c-0.5,0-1-0.1-1.5-0.3c-0.4-0.2-0.8-0.5-1.2-0.8c-0.3-0.3-0.6-0.8-0.8-1.2
			c-0.2-0.5-0.3-0.9-0.3-1.5c0-0.5,0.1-1,0.3-1.4c0.2-0.5,0.4-0.8,0.8-1.2c0.3-0.3,0.7-0.6,1.2-0.8c0.4-0.2,0.9-0.3,1.5-0.3
			c0.5,0,1,0.1,1.5,0.3c0.4,0.2,0.8,0.5,1.1,0.8c0.3,0.3,0.6,0.7,0.7,1.2c0.2,0.4,0.3,0.9,0.3,1.4c0,0.1,0,0.1,0,0.2
			c0,0.1,0,0.1,0,0.2h-6.2c0,0.4,0.1,0.8,0.3,1.1s0.4,0.6,0.6,0.9c0.2,0.2,0.5,0.4,0.8,0.6c0.3,0.1,0.6,0.2,1,0.2
			c0.2,0,0.5,0,0.7-0.1s0.4-0.2,0.6-0.3c0.2-0.1,0.4-0.2,0.5-0.4c0.2-0.2,0.3-0.3,0.4-0.5l0.8,0.2c-0.1,0.3-0.3,0.5-0.5,0.7
			c-0.2,0.2-0.4,0.4-0.7,0.6c-0.3,0.2-0.6,0.3-0.9,0.4C92.5,163.1,92.2,163.1,91.8,163.1z M94.5,159c0-0.4-0.1-0.7-0.3-1.1
			c-0.2-0.3-0.4-0.6-0.6-0.8c-0.2-0.2-0.5-0.4-0.8-0.5c-0.3-0.1-0.6-0.2-1-0.2c-0.4,0-0.7,0.1-1,0.2c-0.3,0.1-0.6,0.3-0.8,0.5
			c-0.2,0.2-0.4,0.5-0.6,0.8c-0.1,0.3-0.2,0.7-0.3,1.1H94.5z"/>
		<path class="st3" d="M99.3,163.1c-0.6,0-1.1-0.1-1.7-0.3c-0.5-0.2-1-0.5-1.4-0.8l0.4-0.6c0.4,0.3,0.8,0.6,1.3,0.8s0.9,0.3,1.4,0.3
			c0.6,0,1.1-0.1,1.4-0.4c0.3-0.2,0.5-0.6,0.5-1c0-0.2,0-0.4-0.1-0.5c-0.1-0.1-0.2-0.3-0.4-0.4s-0.4-0.2-0.7-0.3
			c-0.3-0.1-0.6-0.2-1-0.2c-0.4-0.1-0.8-0.2-1.1-0.3c-0.3-0.1-0.6-0.2-0.8-0.3s-0.4-0.3-0.4-0.5c-0.1-0.2-0.1-0.4-0.1-0.7
			c0-0.4,0.1-0.7,0.2-1c0.1-0.3,0.3-0.5,0.6-0.7c0.2-0.2,0.5-0.3,0.9-0.4c0.3-0.1,0.7-0.1,1.1-0.1c0.6,0,1.1,0.1,1.5,0.3
			c0.5,0.2,0.8,0.4,1.1,0.7l-0.5,0.6c-0.3-0.3-0.6-0.5-1-0.6s-0.8-0.2-1.2-0.2c-0.3,0-0.5,0-0.7,0.1c-0.2,0.1-0.4,0.1-0.6,0.2
			c-0.2,0.1-0.3,0.3-0.4,0.4s-0.1,0.4-0.1,0.6c0,0.2,0,0.4,0.1,0.5s0.2,0.2,0.3,0.3s0.3,0.2,0.6,0.2c0.2,0.1,0.5,0.1,0.8,0.2
			c0.5,0.1,0.9,0.2,1.2,0.3c0.4,0.1,0.7,0.2,0.9,0.4c0.2,0.1,0.4,0.3,0.5,0.5c0.1,0.2,0.2,0.5,0.2,0.8c0,0.7-0.3,1.2-0.8,1.6
			C100.9,163,100.2,163.1,99.3,163.1z"/>
	</g>
</g>
<g>
	<g>
		<line class="st0" x1="74.4" y1="101.4" x2="74.4" y2="95.4"/>
		<line class="st0" x1="74.4" y1="79" x2="74.4" y2="73"/>
	</g>
</g>
<polyline class="st0" points="82.1,97.9 74.4,107.4 66.7,97.9 "/>
<g>
	<g>
		<line class="st0" x1="240.2" y1="221.8" x2="240.2" y2="215.8"/>
		<line class="st0" x1="240.2" y1="199.6" x2="240.2" y2="193.6"/>
	</g>
</g>
<polyline class="st0" points="247.9,218.4 240.2,227.9 232.5,218.4 "/>
<path class="st3" d="M309.8,182.6H170.6c-2.6,0-4.7-2.1-4.7-4.7v-56.3c0-2.6,2.1-4.7,4.7-4.7h139.2c2.6,0,4.7,2.1,4.7,4.7v56.3
	C314.5,180.5,312.4,182.6,309.8,182.6z"/>
<path class="st1" d="M179.5,182.6h-9.6c-2.3,0-4.1-2.5-4.1-5.5v-54.7c0-3,1.8-5.5,4.1-5.5h9.6V182.6z"/>
<g>
	<g>
		<path class="st4" d="M202.1,141.9c0,0.4-0.1,0.7-0.2,1c-0.1,0.3-0.4,0.6-0.6,0.8s-0.5,0.4-0.9,0.5s-0.7,0.2-1.1,0.2h-4.7v-9.9h4.8
			c0.3,0,0.7,0.1,0.9,0.2c0.3,0.1,0.5,0.3,0.7,0.6c0.2,0.2,0.3,0.5,0.5,0.8c0.1,0.3,0.2,0.6,0.2,0.9c0,0.5-0.1,1-0.4,1.4
			c-0.3,0.4-0.6,0.7-1,0.9c0.6,0.2,1,0.5,1.4,0.9C201.9,140.7,202.1,141.3,202.1,141.9z M195.6,135.3v3.7h3.4c0.2,0,0.5-0.1,0.7-0.2
			c0.2-0.1,0.4-0.2,0.5-0.4c0.1-0.2,0.3-0.4,0.4-0.6c0.1-0.2,0.1-0.5,0.1-0.7c0-0.3,0-0.5-0.1-0.7c-0.1-0.2-0.2-0.4-0.3-0.6
			s-0.3-0.3-0.5-0.4c-0.2-0.1-0.4-0.1-0.6-0.1H195.6z M201.1,141.7c0-0.2,0-0.5-0.1-0.7c-0.1-0.2-0.2-0.4-0.4-0.6
			c-0.2-0.2-0.3-0.3-0.5-0.4s-0.4-0.2-0.7-0.2h-3.8v3.8h3.7c0.3,0,0.5-0.1,0.7-0.2s0.4-0.2,0.6-0.4c0.2-0.2,0.3-0.4,0.4-0.6
			C201.1,142.2,201.1,141.9,201.1,141.7z"/>
		<path class="st4" d="M203.8,134.2h1v8.6c0,0.3,0.1,0.5,0.2,0.6c0.1,0.2,0.4,0.2,0.6,0.2c0.1,0,0.2,0,0.4,0c0.1,0,0.3-0.1,0.4-0.1
			l0.2,0.8c-0.2,0.1-0.4,0.1-0.7,0.2c-0.3,0-0.5,0.1-0.7,0.1c-0.4,0-0.8-0.1-1-0.4c-0.3-0.2-0.4-0.6-0.4-1V134.2z"/>
		<path class="st4" d="M210.7,144.6c-0.5,0-1-0.1-1.5-0.3c-0.4-0.2-0.8-0.5-1.1-0.8c-0.3-0.3-0.6-0.7-0.7-1.2
			c-0.2-0.5-0.3-0.9-0.3-1.4c0-0.5,0.1-1,0.3-1.5c0.2-0.5,0.4-0.9,0.8-1.2c0.3-0.3,0.7-0.6,1.1-0.8c0.4-0.2,0.9-0.3,1.4-0.3
			c0.5,0,1,0.1,1.4,0.3c0.4,0.2,0.8,0.5,1.1,0.8c0.3,0.3,0.6,0.7,0.8,1.2c0.2,0.5,0.3,0.9,0.3,1.5c0,0.5-0.1,1-0.3,1.4
			c-0.2,0.5-0.4,0.9-0.7,1.2c-0.3,0.3-0.7,0.6-1.1,0.8C211.7,144.5,211.2,144.6,210.7,144.6z M208,140.8c0,0.4,0.1,0.8,0.2,1.1
			c0.1,0.3,0.3,0.7,0.6,0.9c0.2,0.3,0.5,0.5,0.8,0.6c0.3,0.1,0.7,0.2,1,0.2c0.4,0,0.7-0.1,1-0.2c0.3-0.2,0.6-0.4,0.8-0.6
			c0.2-0.3,0.4-0.6,0.6-0.9c0.1-0.4,0.2-0.7,0.2-1.1c0-0.4-0.1-0.8-0.2-1.1s-0.3-0.7-0.6-0.9c-0.2-0.3-0.5-0.5-0.8-0.6
			c-0.3-0.2-0.7-0.2-1-0.2c-0.4,0-0.7,0.1-1,0.2c-0.3,0.2-0.6,0.4-0.8,0.6s-0.4,0.6-0.6,0.9C208.1,140,208,140.4,208,140.8z"/>
		<path class="st4" d="M215.4,140.8c0-0.5,0.1-1,0.3-1.5s0.4-0.9,0.7-1.2c0.3-0.3,0.7-0.6,1.2-0.8c0.4-0.2,0.9-0.3,1.5-0.3
			c0.7,0,1.3,0.2,1.8,0.5s0.9,0.7,1.2,1.3l-0.9,0.3c-0.2-0.4-0.5-0.7-0.9-0.9s-0.8-0.3-1.2-0.3c-0.4,0-0.7,0.1-1,0.2
			c-0.3,0.1-0.6,0.4-0.8,0.6c-0.2,0.3-0.4,0.6-0.6,0.9s-0.2,0.7-0.2,1.2c0,0.4,0.1,0.8,0.2,1.2c0.1,0.4,0.3,0.7,0.6,0.9
			c0.2,0.3,0.5,0.5,0.8,0.6c0.3,0.2,0.7,0.2,1,0.2c0.2,0,0.5,0,0.7-0.1c0.2-0.1,0.4-0.2,0.6-0.3c0.2-0.1,0.4-0.2,0.5-0.4
			c0.1-0.1,0.2-0.3,0.3-0.5l0.9,0.3c-0.1,0.3-0.3,0.5-0.4,0.7c-0.2,0.2-0.4,0.4-0.7,0.6c-0.3,0.2-0.6,0.3-0.9,0.4
			c-0.3,0.1-0.7,0.1-1,0.1c-0.5,0-1-0.1-1.5-0.3c-0.4-0.2-0.8-0.5-1.2-0.8c-0.3-0.3-0.6-0.8-0.8-1.2
			C215.5,141.8,215.4,141.3,215.4,140.8z"/>
		<path class="st4" d="M228.8,144.4l-2.7-3.7l-1.6,1.5v2.3h-1v-10.2h1v6.9l4.1-4h1.1l-3,3l3.1,4.3H228.8z"/>
		<path class="st4" d="M233.4,144.6c-0.6,0-1.1-0.1-1.7-0.3c-0.5-0.2-1-0.5-1.4-0.8l0.4-0.6c0.4,0.3,0.8,0.6,1.3,0.8
			s0.9,0.3,1.4,0.3c0.6,0,1.1-0.1,1.4-0.4c0.3-0.2,0.5-0.6,0.5-1c0-0.2,0-0.4-0.1-0.5c-0.1-0.1-0.2-0.3-0.4-0.4s-0.4-0.2-0.7-0.3
			c-0.3-0.1-0.6-0.2-1-0.2c-0.4-0.1-0.8-0.2-1.1-0.3c-0.3-0.1-0.6-0.2-0.8-0.3s-0.4-0.3-0.4-0.5c-0.1-0.2-0.1-0.4-0.1-0.7
			c0-0.4,0.1-0.7,0.2-1c0.1-0.3,0.3-0.5,0.6-0.7c0.2-0.2,0.5-0.3,0.9-0.4c0.3-0.1,0.7-0.1,1.1-0.1c0.6,0,1.1,0.1,1.5,0.3
			c0.5,0.2,0.8,0.4,1.1,0.7l-0.5,0.6c-0.3-0.3-0.6-0.5-1-0.6s-0.8-0.2-1.2-0.2c-0.3,0-0.5,0-0.7,0.1c-0.2,0.1-0.4,0.1-0.6,0.2
			c-0.2,0.1-0.3,0.3-0.4,0.4s-0.1,0.4-0.1,0.6c0,0.2,0,0.4,0.1,0.5s0.2,0.2,0.3,0.3s0.3,0.2,0.6,0.2c0.2,0.1,0.5,0.1,0.8,0.2
			c0.5,0.1,0.9,0.2,1.2,0.3c0.4,0.1,0.7,0.2,0.9,0.4c0.2,0.1,0.4,0.3,0.5,0.5c0.1,0.2,0.2,0.5,0.2,0.8c0,0.7-0.3,1.2-0.8,1.6
			C235,144.4,234.3,144.6,233.4,144.6z"/>
		<path class="st4" d="M241.7,144.4v-6.5h-1v-0.8h1v-0.2c0-0.9,0.2-1.6,0.6-2.1c0.4-0.5,0.9-0.8,1.6-0.8c0.3,0,0.6,0,0.8,0.1
			c0.3,0.1,0.5,0.2,0.7,0.3l-0.3,0.7c-0.1-0.1-0.3-0.2-0.5-0.2c-0.2-0.1-0.4-0.1-0.6-0.1c-0.4,0-0.8,0.2-1,0.5
			c-0.2,0.3-0.4,0.8-0.4,1.5v0.2h2v0.8h-2v6.5H241.7z"/>
		<path class="st4" d="M249.6,138c-0.6,0-1.2,0.2-1.7,0.5c-0.5,0.3-0.8,0.8-1,1.4v4.5h-1v-7.3h0.9v1.8c0.3-0.6,0.6-1,1.1-1.3
			c0.5-0.3,0.9-0.5,1.5-0.5c0.1,0,0.1,0,0.2,0V138z"/>
		<path class="st4" d="M253.7,144.6c-0.5,0-1-0.1-1.5-0.3c-0.4-0.2-0.8-0.5-1.1-0.8c-0.3-0.3-0.6-0.7-0.7-1.2
			c-0.2-0.5-0.3-0.9-0.3-1.4c0-0.5,0.1-1,0.3-1.5c0.2-0.5,0.4-0.9,0.8-1.2c0.3-0.3,0.7-0.6,1.1-0.8c0.4-0.2,0.9-0.3,1.4-0.3
			c0.5,0,1,0.1,1.4,0.3c0.4,0.2,0.8,0.5,1.1,0.8c0.3,0.3,0.6,0.7,0.8,1.2c0.2,0.5,0.3,0.9,0.3,1.5c0,0.5-0.1,1-0.3,1.4
			c-0.2,0.5-0.4,0.9-0.7,1.2c-0.3,0.3-0.7,0.6-1.1,0.8C254.7,144.5,254.2,144.6,253.7,144.6z M251,140.8c0,0.4,0.1,0.8,0.2,1.1
			c0.1,0.3,0.3,0.7,0.6,0.9c0.2,0.3,0.5,0.5,0.8,0.6c0.3,0.1,0.7,0.2,1,0.2c0.4,0,0.7-0.1,1-0.2c0.3-0.2,0.6-0.4,0.8-0.6
			c0.2-0.3,0.4-0.6,0.6-0.9c0.1-0.4,0.2-0.7,0.2-1.1c0-0.4-0.1-0.8-0.2-1.1s-0.3-0.7-0.6-0.9c-0.2-0.3-0.5-0.5-0.8-0.6
			c-0.3-0.2-0.7-0.2-1-0.2c-0.4,0-0.7,0.1-1,0.2c-0.3,0.2-0.6,0.4-0.8,0.6s-0.4,0.6-0.6,0.9C251.1,140,251,140.4,251,140.8z"/>
		<path class="st4" d="M269.7,144.4h-1v-4.1c0-0.8-0.1-1.5-0.4-1.9c-0.3-0.4-0.7-0.6-1.2-0.6c-0.3,0-0.5,0.1-0.8,0.2
			c-0.2,0.1-0.5,0.2-0.7,0.4s-0.4,0.4-0.6,0.7s-0.3,0.5-0.4,0.8v4.5h-1v-4.1c0-0.9-0.1-1.5-0.4-1.9c-0.3-0.4-0.7-0.6-1.2-0.6
			c-0.6,0-1,0.2-1.5,0.6s-0.7,0.9-0.9,1.5v4.5h-1v-7.3h0.9v1.7c0.3-0.6,0.7-1,1.2-1.3c0.5-0.3,1-0.5,1.6-0.5c0.6,0,1.1,0.2,1.5,0.5
			c0.4,0.3,0.6,0.8,0.7,1.4c0.7-1.3,1.6-1.9,2.8-1.9c0.4,0,0.8,0.1,1,0.2c0.3,0.1,0.5,0.4,0.7,0.6s0.3,0.6,0.4,1
			c0.1,0.4,0.1,0.8,0.1,1.3V144.4z"/>
		<path class="st4" d="M196.7,161.4c-0.8,0-1.4-0.3-1.8-0.8c-0.4-0.5-0.6-1.3-0.6-2.4v-4.3h1v4.1c0,1.7,0.6,2.5,1.7,2.5
			c0.3,0,0.6,0,0.8-0.1c0.3-0.1,0.5-0.2,0.7-0.4c0.2-0.2,0.4-0.4,0.6-0.6c0.2-0.2,0.3-0.5,0.4-0.8v-4.6h1v6.1c0,0.3,0.1,0.4,0.3,0.4
			v0.8c-0.1,0-0.2,0-0.3,0s-0.1,0-0.1,0c-0.2,0-0.4-0.1-0.5-0.2s-0.2-0.3-0.2-0.6v-0.8c-0.3,0.6-0.7,1-1.3,1.3
			C197.9,161.2,197.3,161.4,196.7,161.4z"/>
		<path class="st4" d="M206.5,161.4c-0.6,0-1.2-0.2-1.6-0.5c-0.5-0.3-0.9-0.7-1.1-1.2v4.5h-1v-10.3h0.9v1.4c0.3-0.5,0.7-0.8,1.2-1.1
			c0.5-0.3,1-0.4,1.6-0.4c0.5,0,1,0.1,1.4,0.3c0.4,0.2,0.8,0.5,1.1,0.8c0.3,0.3,0.5,0.8,0.7,1.2s0.3,0.9,0.3,1.4
			c0,0.5-0.1,1-0.2,1.5c-0.2,0.5-0.4,0.9-0.7,1.2c-0.3,0.3-0.6,0.6-1.1,0.8C207.4,161.3,206.9,161.4,206.5,161.4z M206.2,160.5
			c0.4,0,0.7-0.1,1.1-0.3c0.3-0.2,0.6-0.4,0.8-0.7c0.2-0.3,0.4-0.6,0.5-0.9c0.1-0.4,0.2-0.7,0.2-1.1c0-0.4-0.1-0.8-0.2-1.1
			c-0.1-0.4-0.3-0.7-0.6-0.9c-0.2-0.3-0.5-0.5-0.9-0.6c-0.3-0.2-0.7-0.2-1.1-0.2c-0.2,0-0.5,0-0.8,0.1c-0.3,0.1-0.5,0.2-0.7,0.4
			c-0.2,0.2-0.4,0.4-0.6,0.6c-0.2,0.2-0.3,0.5-0.3,0.7v2.2c0.1,0.3,0.3,0.5,0.4,0.7c0.2,0.2,0.4,0.4,0.6,0.6
			c0.2,0.2,0.5,0.3,0.7,0.4C205.7,160.5,205.9,160.5,206.2,160.5z"/>
		<path class="st4" d="M214.3,161.3c-0.5,0-1-0.1-1.4-0.3c-0.4-0.2-0.8-0.5-1.1-0.8c-0.3-0.3-0.5-0.7-0.7-1.2s-0.3-0.9-0.3-1.4
			c0-0.5,0.1-1,0.2-1.4c0.2-0.5,0.4-0.9,0.7-1.2c0.3-0.3,0.7-0.6,1.1-0.8c0.4-0.2,0.9-0.3,1.4-0.3c0.6,0,1.2,0.2,1.6,0.5
			c0.5,0.3,0.8,0.7,1.2,1.2v-1.5h0.9v7.3c0,0.5-0.1,0.9-0.3,1.3c-0.2,0.4-0.4,0.7-0.8,1c-0.3,0.3-0.7,0.5-1.1,0.6s-0.9,0.2-1.4,0.2
			c-0.8,0-1.5-0.1-2-0.4s-0.9-0.7-1.2-1.2l0.6-0.5c0.3,0.5,0.7,0.8,1.1,1c0.5,0.2,1,0.3,1.5,0.3c0.4,0,0.7,0,1-0.1
			c0.3-0.1,0.6-0.2,0.8-0.4c0.2-0.2,0.4-0.4,0.6-0.7s0.2-0.6,0.2-1v-1.4c-0.3,0.5-0.7,0.8-1.1,1.1S214.8,161.3,214.3,161.3z
			 M214.6,160.5c0.3,0,0.6-0.1,0.8-0.2c0.3-0.1,0.5-0.2,0.7-0.4c0.2-0.2,0.4-0.4,0.6-0.6s0.2-0.4,0.3-0.7v-2.3
			c-0.1-0.3-0.2-0.5-0.4-0.7c-0.2-0.2-0.4-0.4-0.6-0.6c-0.2-0.2-0.5-0.3-0.7-0.4c-0.3-0.1-0.5-0.1-0.8-0.1c-0.4,0-0.8,0.1-1.1,0.3
			c-0.3,0.2-0.6,0.4-0.8,0.7c-0.2,0.3-0.4,0.6-0.5,1c-0.1,0.4-0.2,0.7-0.2,1.1c0,0.4,0.1,0.8,0.2,1.1c0.1,0.4,0.3,0.7,0.6,0.9
			c0.2,0.3,0.5,0.5,0.9,0.6C213.8,160.5,214.2,160.5,214.6,160.5z"/>
		<path class="st4" d="M223.7,154.8c-0.6,0-1.2,0.2-1.7,0.5c-0.5,0.3-0.8,0.8-1,1.4v4.5h-1v-7.3h0.9v1.8c0.3-0.6,0.6-1,1.1-1.3
			c0.5-0.3,0.9-0.5,1.5-0.5c0.1,0,0.1,0,0.2,0V154.8z"/>
		<path class="st4" d="M226.7,161.4c-0.3,0-0.7-0.1-1-0.2c-0.3-0.1-0.6-0.3-0.8-0.5c-0.2-0.2-0.4-0.4-0.5-0.7
			c-0.1-0.3-0.2-0.6-0.2-0.9s0.1-0.6,0.2-0.9c0.1-0.3,0.4-0.5,0.6-0.7s0.6-0.3,1-0.5c0.4-0.1,0.8-0.2,1.2-0.2c0.4,0,0.8,0,1.1,0.1
			s0.7,0.2,1,0.3v-0.7c0-0.6-0.2-1.2-0.5-1.5c-0.4-0.4-0.9-0.6-1.5-0.6c-0.4,0-0.8,0.1-1.1,0.2c-0.4,0.1-0.8,0.4-1.2,0.6l-0.3-0.6
			c0.9-0.6,1.9-1,2.7-1c0.9,0,1.6,0.3,2.2,0.8c0.5,0.5,0.8,1.2,0.8,2.1v3.3c0,0.3,0.1,0.4,0.4,0.4v0.8c-0.2,0-0.3,0-0.4,0
			c-0.2,0-0.4-0.1-0.6-0.2s-0.2-0.3-0.2-0.5l0-0.6c-0.3,0.4-0.8,0.8-1.3,1S227.3,161.4,226.7,161.4z M226.9,160.6
			c0.5,0,0.9-0.1,1.4-0.3c0.4-0.2,0.7-0.4,0.9-0.7c0.1-0.1,0.1-0.2,0.2-0.3c0-0.1,0.1-0.2,0.1-0.3v-1.2c-0.3-0.1-0.6-0.2-1-0.3
			c-0.3-0.1-0.7-0.1-1-0.1c-0.7,0-1.2,0.1-1.6,0.4c-0.4,0.3-0.6,0.6-0.6,1.1c0,0.2,0,0.4,0.1,0.6c0.1,0.2,0.2,0.4,0.4,0.5
			c0.2,0.1,0.3,0.3,0.6,0.3S226.7,160.6,226.9,160.6z"/>
		<path class="st4" d="M235.5,161.4c-0.5,0-1-0.1-1.4-0.3s-0.8-0.5-1.1-0.8s-0.5-0.7-0.7-1.2c-0.2-0.5-0.3-0.9-0.3-1.4
			c0-0.5,0.1-1,0.3-1.5s0.4-0.9,0.7-1.2c0.3-0.3,0.6-0.6,1.1-0.8c0.4-0.2,0.9-0.3,1.3-0.3c0.6,0,1.2,0.2,1.6,0.5
			c0.5,0.3,0.8,0.7,1.1,1.2V151h1v9c0,0.3,0.1,0.4,0.3,0.4v0.8c-0.1,0-0.3,0-0.3,0c-0.2,0-0.4-0.1-0.6-0.2s-0.3-0.3-0.3-0.5v-0.7
			c-0.3,0.5-0.7,0.9-1.2,1.1C236.5,161.2,236,161.4,235.5,161.4z M235.7,160.5c0.2,0,0.5,0,0.7-0.1c0.3-0.1,0.5-0.2,0.7-0.4
			c0.2-0.2,0.4-0.4,0.6-0.6c0.2-0.2,0.3-0.5,0.3-0.7v-2.3c-0.1-0.3-0.2-0.5-0.4-0.7c-0.2-0.2-0.4-0.4-0.6-0.6
			c-0.2-0.2-0.5-0.3-0.7-0.4c-0.3-0.1-0.5-0.1-0.8-0.1c-0.4,0-0.7,0.1-1.1,0.3s-0.6,0.4-0.8,0.7c-0.2,0.3-0.4,0.6-0.5,0.9
			c-0.1,0.4-0.2,0.7-0.2,1.1c0,0.4,0.1,0.8,0.2,1.1s0.3,0.7,0.6,0.9c0.2,0.3,0.5,0.5,0.9,0.6C234.9,160.5,235.3,160.5,235.7,160.5z"
			/>
		<path class="st4" d="M244.3,161.4c-0.5,0-1-0.1-1.5-0.3c-0.4-0.2-0.8-0.5-1.2-0.8c-0.3-0.3-0.6-0.8-0.8-1.2
			c-0.2-0.5-0.3-0.9-0.3-1.5c0-0.5,0.1-1,0.3-1.4c0.2-0.5,0.4-0.8,0.8-1.2c0.3-0.3,0.7-0.6,1.2-0.8c0.4-0.2,0.9-0.3,1.5-0.3
			c0.5,0,1,0.1,1.5,0.3c0.4,0.2,0.8,0.5,1.1,0.8c0.3,0.3,0.6,0.7,0.7,1.2c0.2,0.4,0.3,0.9,0.3,1.4c0,0.1,0,0.1,0,0.2
			c0,0.1,0,0.1,0,0.2h-6.2c0,0.4,0.1,0.8,0.3,1.1s0.4,0.6,0.6,0.9c0.2,0.2,0.5,0.4,0.8,0.6c0.3,0.1,0.6,0.2,1,0.2
			c0.2,0,0.5,0,0.7-0.1s0.4-0.2,0.6-0.3c0.2-0.1,0.4-0.2,0.5-0.4c0.2-0.2,0.3-0.3,0.4-0.5l0.8,0.2c-0.1,0.3-0.3,0.5-0.5,0.7
			c-0.2,0.2-0.4,0.4-0.7,0.6c-0.3,0.2-0.6,0.3-0.9,0.4C245,161.3,244.7,161.4,244.3,161.4z M247,157.2c0-0.4-0.1-0.7-0.3-1.1
			c-0.2-0.3-0.4-0.6-0.6-0.8c-0.2-0.2-0.5-0.4-0.8-0.5c-0.3-0.1-0.6-0.2-1-0.2c-0.4,0-0.7,0.1-1,0.2c-0.3,0.1-0.6,0.3-0.8,0.5
			c-0.2,0.2-0.4,0.5-0.6,0.8c-0.1,0.3-0.2,0.7-0.3,1.1H247z"/>
		<path class="st4" d="M252.4,161.4c-0.5,0-1-0.1-1.4-0.3s-0.8-0.5-1.1-0.8s-0.5-0.7-0.7-1.2c-0.2-0.5-0.3-0.9-0.3-1.4
			c0-0.5,0.1-1,0.3-1.5s0.4-0.9,0.7-1.2c0.3-0.3,0.6-0.6,1.1-0.8c0.4-0.2,0.9-0.3,1.3-0.3c0.6,0,1.2,0.2,1.6,0.5
			c0.5,0.3,0.8,0.7,1.1,1.2V151h1v9c0,0.3,0.1,0.4,0.3,0.4v0.8c-0.1,0-0.3,0-0.3,0c-0.2,0-0.4-0.1-0.6-0.2s-0.3-0.3-0.3-0.5v-0.7
			c-0.3,0.5-0.7,0.9-1.2,1.1C253.4,161.2,252.9,161.4,252.4,161.4z M252.6,160.5c0.2,0,0.5,0,0.7-0.1c0.3-0.1,0.5-0.2,0.7-0.4
			c0.2-0.2,0.4-0.4,0.6-0.6c0.2-0.2,0.3-0.5,0.3-0.7v-2.3c-0.1-0.3-0.2-0.5-0.4-0.7c-0.2-0.2-0.4-0.4-0.6-0.6
			c-0.2-0.2-0.5-0.3-0.7-0.4c-0.3-0.1-0.5-0.1-0.8-0.1c-0.4,0-0.7,0.1-1.1,0.3s-0.6,0.4-0.8,0.7c-0.2,0.3-0.4,0.6-0.5,0.9
			c-0.1,0.4-0.2,0.7-0.2,1.1c0,0.4,0.1,0.8,0.2,1.1s0.3,0.7,0.6,0.9c0.2,0.3,0.5,0.5,0.9,0.6C251.9,160.5,252.2,160.5,252.6,160.5z"
			/>
		<path class="st4" d="M267.8,161.2h-1v-4.1c0-0.9-0.1-1.5-0.4-1.9c-0.3-0.4-0.7-0.6-1.2-0.6c-0.3,0-0.6,0.1-0.8,0.2
			c-0.3,0.1-0.5,0.2-0.8,0.4c-0.2,0.2-0.5,0.4-0.6,0.7c-0.2,0.3-0.3,0.5-0.4,0.8v4.5h-1v-7.3h0.9v1.7c0.3-0.5,0.7-1,1.3-1.3
			c0.6-0.3,1.2-0.5,1.8-0.5c0.4,0,0.7,0.1,1,0.2c0.3,0.1,0.5,0.4,0.7,0.6c0.2,0.3,0.3,0.6,0.4,1c0.1,0.4,0.1,0.8,0.1,1.3V161.2z"/>
		<path class="st4" d="M272.9,161.4c-0.5,0-1-0.1-1.5-0.3c-0.4-0.2-0.8-0.5-1.1-0.8c-0.3-0.3-0.6-0.7-0.7-1.2
			c-0.2-0.5-0.3-0.9-0.3-1.4c0-0.5,0.1-1,0.3-1.5c0.2-0.5,0.4-0.9,0.8-1.2c0.3-0.3,0.7-0.6,1.1-0.8c0.4-0.2,0.9-0.3,1.4-0.3
			c0.5,0,1,0.1,1.4,0.3c0.4,0.2,0.8,0.5,1.1,0.8c0.3,0.3,0.6,0.7,0.8,1.2c0.2,0.5,0.3,0.9,0.3,1.5c0,0.5-0.1,1-0.3,1.4
			c-0.2,0.5-0.4,0.9-0.7,1.2c-0.3,0.3-0.7,0.6-1.1,0.8C274,161.3,273.5,161.4,272.9,161.4z M270.3,157.6c0,0.4,0.1,0.8,0.2,1.1
			c0.1,0.3,0.3,0.7,0.6,0.9c0.2,0.3,0.5,0.5,0.8,0.6c0.3,0.1,0.7,0.2,1,0.2c0.4,0,0.7-0.1,1-0.2c0.3-0.2,0.6-0.4,0.8-0.6
			c0.2-0.3,0.4-0.6,0.6-0.9c0.1-0.4,0.2-0.7,0.2-1.1c0-0.4-0.1-0.8-0.2-1.1s-0.3-0.7-0.6-0.9c-0.2-0.3-0.5-0.5-0.8-0.6
			c-0.3-0.2-0.7-0.2-1-0.2c-0.4,0-0.7,0.1-1,0.2c-0.3,0.2-0.6,0.4-0.8,0.6s-0.4,0.6-0.6,0.9C270.4,156.8,270.3,157.2,270.3,157.6z"
			/>
		<path class="st4" d="M281.2,161.4c-0.5,0-1-0.1-1.4-0.3s-0.8-0.5-1.1-0.8s-0.5-0.7-0.7-1.2c-0.2-0.5-0.3-0.9-0.3-1.4
			c0-0.5,0.1-1,0.3-1.5s0.4-0.9,0.7-1.2c0.3-0.3,0.6-0.6,1.1-0.8c0.4-0.2,0.9-0.3,1.3-0.3c0.6,0,1.2,0.2,1.6,0.5
			c0.5,0.3,0.8,0.7,1.1,1.2V151h1v9c0,0.3,0.1,0.4,0.3,0.4v0.8c-0.1,0-0.3,0-0.3,0c-0.2,0-0.4-0.1-0.6-0.2s-0.3-0.3-0.3-0.5v-0.7
			c-0.3,0.5-0.7,0.9-1.2,1.1C282.2,161.2,281.7,161.4,281.2,161.4z M281.4,160.5c0.2,0,0.5,0,0.7-0.1c0.3-0.1,0.5-0.2,0.7-0.4
			c0.2-0.2,0.4-0.4,0.6-0.6c0.2-0.2,0.3-0.5,0.3-0.7v-2.3c-0.1-0.3-0.2-0.5-0.4-0.7c-0.2-0.2-0.4-0.4-0.6-0.6
			c-0.2-0.2-0.5-0.3-0.7-0.4c-0.3-0.1-0.5-0.1-0.8-0.1c-0.4,0-0.7,0.1-1.1,0.3s-0.6,0.4-0.8,0.7c-0.2,0.3-0.4,0.6-0.5,0.9
			c-0.1,0.4-0.2,0.7-0.2,1.1c0,0.4,0.1,0.8,0.2,1.1s0.3,0.7,0.6,0.9c0.2,0.3,0.5,0.5,0.9,0.6C280.6,160.5,281,160.5,281.4,160.5z"/>
		<path class="st4" d="M290,161.4c-0.5,0-1-0.1-1.5-0.3c-0.4-0.2-0.8-0.5-1.2-0.8c-0.3-0.3-0.6-0.8-0.8-1.2
			c-0.2-0.5-0.3-0.9-0.3-1.5c0-0.5,0.1-1,0.3-1.4c0.2-0.5,0.4-0.8,0.8-1.2c0.3-0.3,0.7-0.6,1.2-0.8c0.4-0.2,0.9-0.3,1.5-0.3
			c0.5,0,1,0.1,1.5,0.3c0.4,0.2,0.8,0.5,1.1,0.8c0.3,0.3,0.6,0.7,0.7,1.2c0.2,0.4,0.3,0.9,0.3,1.4c0,0.1,0,0.1,0,0.2
			c0,0.1,0,0.1,0,0.2h-6.2c0,0.4,0.1,0.8,0.3,1.1s0.4,0.6,0.6,0.9c0.2,0.2,0.5,0.4,0.8,0.6c0.3,0.1,0.6,0.2,1,0.2
			c0.2,0,0.5,0,0.7-0.1s0.4-0.2,0.6-0.3c0.2-0.1,0.4-0.2,0.5-0.4c0.2-0.2,0.3-0.3,0.4-0.5l0.8,0.2c-0.1,0.3-0.3,0.5-0.5,0.7
			c-0.2,0.2-0.4,0.4-0.7,0.6c-0.3,0.2-0.6,0.3-0.9,0.4C290.7,161.3,290.4,161.4,290,161.4z M292.7,157.2c0-0.4-0.1-0.7-0.3-1.1
			c-0.2-0.3-0.4-0.6-0.6-0.8c-0.2-0.2-0.5-0.4-0.8-0.5c-0.3-0.1-0.6-0.2-1-0.2c-0.4,0-0.7,0.1-1,0.2c-0.3,0.1-0.6,0.3-0.8,0.5
			c-0.2,0.2-0.4,0.5-0.6,0.8c-0.1,0.3-0.2,0.7-0.3,1.1H292.7z"/>
		<path class="st4" d="M297.5,161.4c-0.6,0-1.1-0.1-1.7-0.3c-0.5-0.2-1-0.5-1.4-0.8l0.4-0.6c0.4,0.3,0.8,0.6,1.3,0.8
			s0.9,0.3,1.4,0.3c0.6,0,1.1-0.1,1.4-0.4c0.3-0.2,0.5-0.6,0.5-1c0-0.2,0-0.4-0.1-0.5c-0.1-0.1-0.2-0.3-0.4-0.4s-0.4-0.2-0.7-0.3
			c-0.3-0.1-0.6-0.2-1-0.2c-0.4-0.1-0.8-0.2-1.1-0.3c-0.3-0.1-0.6-0.2-0.8-0.3s-0.4-0.3-0.4-0.5c-0.1-0.2-0.1-0.4-0.1-0.7
			c0-0.4,0.1-0.7,0.2-1c0.1-0.3,0.3-0.5,0.6-0.7c0.2-0.2,0.5-0.3,0.9-0.4c0.3-0.1,0.7-0.1,1.1-0.1c0.6,0,1.1,0.1,1.5,0.3
			c0.5,0.2,0.8,0.4,1.1,0.7l-0.5,0.6c-0.3-0.3-0.6-0.5-1-0.6s-0.8-0.2-1.2-0.2c-0.3,0-0.5,0-0.7,0.1c-0.2,0.1-0.4,0.1-0.6,0.2
			c-0.2,0.1-0.3,0.3-0.4,0.4s-0.1,0.4-0.1,0.6c0,0.2,0,0.4,0.1,0.5s0.2,0.2,0.3,0.3s0.3,0.2,0.6,0.2c0.2,0.1,0.5,0.1,0.8,0.2
			c0.5,0.1,0.9,0.2,1.2,0.3c0.4,0.1,0.7,0.2,0.9,0.4c0.2,0.1,0.4,0.3,0.5,0.5c0.1,0.2,0.2,0.5,0.2,0.8c0,0.7-0.3,1.2-0.8,1.6
			C299.1,161.2,298.4,161.4,297.5,161.4z"/>
	</g>
</g>
<line class="st0" x1="76.6" y1="225.5" x2="76.6" y2="191.7"/>
<polyline class="st0" points="84.3,218.5 76.6,228 68.9,218.5 "/>
<path class="st5" d="M126.2,302.8h-99c-2.2,0-4.1-1.8-4.1-4.1v-58.5c0-2.2,1.8-4.1,4.1-4.1h99c2.2,0,4.1,1.8,4.1,4.1v58.5
	C130.3,301,128.4,302.8,126.2,302.8z"/>
<g>
	<g>
		<path class="st3" d="M52.9,265.6v-9.9h6.5v0.9h-5.5v3.7h4.7v0.8h-4.7v4.6H52.9z"/>
		<path class="st3" d="M63.6,265.7c-0.5,0-1-0.1-1.5-0.3c-0.4-0.2-0.8-0.5-1.1-0.8c-0.3-0.3-0.6-0.7-0.7-1.2
			c-0.2-0.5-0.3-0.9-0.3-1.4c0-0.5,0.1-1,0.3-1.5c0.2-0.5,0.4-0.9,0.8-1.2c0.3-0.3,0.7-0.6,1.1-0.8c0.4-0.2,0.9-0.3,1.4-0.3
			c0.5,0,1,0.1,1.4,0.3c0.4,0.2,0.8,0.5,1.1,0.8c0.3,0.3,0.6,0.7,0.8,1.2c0.2,0.5,0.3,0.9,0.3,1.5c0,0.5-0.1,1-0.3,1.4
			c-0.2,0.5-0.4,0.9-0.7,1.2c-0.3,0.3-0.7,0.6-1.1,0.8C64.6,265.6,64.1,265.7,63.6,265.7z M61,262c0,0.4,0.1,0.8,0.2,1.1
			c0.1,0.3,0.3,0.7,0.6,0.9c0.2,0.3,0.5,0.5,0.8,0.6c0.3,0.1,0.7,0.2,1,0.2c0.4,0,0.7-0.1,1-0.2s0.6-0.4,0.8-0.6
			c0.2-0.3,0.4-0.6,0.6-0.9s0.2-0.7,0.2-1.1c0-0.4-0.1-0.8-0.2-1.1s-0.3-0.7-0.6-0.9c-0.2-0.3-0.5-0.5-0.8-0.6s-0.7-0.2-1-0.2
			c-0.4,0-0.7,0.1-1,0.2c-0.3,0.2-0.6,0.4-0.8,0.6c-0.2,0.3-0.4,0.6-0.6,0.9C61,261.2,61,261.6,61,262z"/>
		<path class="st3" d="M68.9,255.4h1v8.6c0,0.3,0.1,0.5,0.2,0.6c0.1,0.2,0.4,0.2,0.6,0.2c0.1,0,0.2,0,0.4,0c0.1,0,0.3-0.1,0.4-0.1
			l0.2,0.8c-0.2,0.1-0.4,0.1-0.7,0.2s-0.5,0.1-0.7,0.1c-0.4,0-0.8-0.1-1-0.4c-0.3-0.2-0.4-0.6-0.4-1V255.4z"/>
		<path class="st3" d="M72.7,255.4h1v8.6c0,0.3,0.1,0.5,0.2,0.6c0.1,0.2,0.4,0.2,0.6,0.2c0.1,0,0.2,0,0.4,0c0.1,0,0.3-0.1,0.4-0.1
			l0.2,0.8c-0.2,0.1-0.4,0.1-0.7,0.2s-0.5,0.1-0.7,0.1c-0.4,0-0.8-0.1-1-0.4c-0.3-0.2-0.4-0.6-0.4-1V255.4z"/>
		<path class="st3" d="M79.6,265.7c-0.5,0-1-0.1-1.5-0.3c-0.4-0.2-0.8-0.5-1.1-0.8c-0.3-0.3-0.6-0.7-0.7-1.2
			c-0.2-0.5-0.3-0.9-0.3-1.4c0-0.5,0.1-1,0.3-1.5c0.2-0.5,0.4-0.9,0.8-1.2c0.3-0.3,0.7-0.6,1.1-0.8c0.4-0.2,0.9-0.3,1.4-0.3
			c0.5,0,1,0.1,1.4,0.3c0.4,0.2,0.8,0.5,1.1,0.8c0.3,0.3,0.6,0.7,0.8,1.2c0.2,0.5,0.3,0.9,0.3,1.5c0,0.5-0.1,1-0.3,1.4
			c-0.2,0.5-0.4,0.9-0.7,1.2c-0.3,0.3-0.7,0.6-1.1,0.8C80.6,265.6,80.1,265.7,79.6,265.7z M76.9,262c0,0.4,0.1,0.8,0.2,1.1
			c0.1,0.3,0.3,0.7,0.6,0.9c0.2,0.3,0.5,0.5,0.8,0.6c0.3,0.1,0.7,0.2,1,0.2c0.4,0,0.7-0.1,1-0.2s0.6-0.4,0.8-0.6
			c0.2-0.3,0.4-0.6,0.6-0.9s0.2-0.7,0.2-1.1c0-0.4-0.1-0.8-0.2-1.1s-0.3-0.7-0.6-0.9c-0.2-0.3-0.5-0.5-0.8-0.6s-0.7-0.2-1-0.2
			c-0.4,0-0.7,0.1-1,0.2c-0.3,0.2-0.6,0.4-0.8,0.6c-0.2,0.3-0.4,0.6-0.6,0.9C77,261.2,76.9,261.6,76.9,262z"/>
		<path class="st3" d="M93.7,258.3h0.9l-3.1,7.3h-0.8l-1.6-3.7l-1.6,3.7h-0.8l-3.1-7.3h0.9l2.7,6.3l1.4-3.3l-1.2-3h0.8l1,2.4l1-2.4
			h0.8l-1.2,3l1.4,3.3L93.7,258.3z"/>
		<path class="st3" d="M98.1,265.7c-0.6,0-1.1-0.1-1.7-0.3c-0.5-0.2-1-0.5-1.4-0.8l0.4-0.6c0.4,0.3,0.8,0.6,1.3,0.8s0.9,0.3,1.4,0.3
			c0.6,0,1.1-0.1,1.4-0.4c0.3-0.2,0.5-0.6,0.5-1c0-0.2,0-0.4-0.1-0.5c-0.1-0.1-0.2-0.3-0.4-0.4c-0.2-0.1-0.4-0.2-0.7-0.3
			s-0.6-0.2-1-0.2c-0.4-0.1-0.8-0.2-1.1-0.3s-0.6-0.2-0.8-0.3s-0.4-0.3-0.4-0.5c-0.1-0.2-0.1-0.4-0.1-0.7c0-0.4,0.1-0.7,0.2-1
			c0.1-0.3,0.3-0.5,0.6-0.7s0.5-0.3,0.9-0.4c0.3-0.1,0.7-0.1,1.1-0.1c0.6,0,1.1,0.1,1.5,0.3c0.5,0.2,0.8,0.4,1.1,0.7l-0.5,0.6
			c-0.3-0.3-0.6-0.5-1-0.6c-0.4-0.1-0.8-0.2-1.2-0.2c-0.3,0-0.5,0-0.7,0.1c-0.2,0.1-0.4,0.1-0.6,0.2c-0.2,0.1-0.3,0.3-0.4,0.4
			c-0.1,0.2-0.1,0.4-0.1,0.6c0,0.2,0,0.4,0.1,0.5s0.2,0.2,0.3,0.3c0.1,0.1,0.3,0.2,0.6,0.2c0.2,0.1,0.5,0.1,0.8,0.2
			c0.5,0.1,0.9,0.2,1.2,0.3c0.4,0.1,0.7,0.2,0.9,0.4c0.2,0.2,0.4,0.3,0.5,0.5c0.1,0.2,0.2,0.5,0.2,0.8c0,0.7-0.3,1.2-0.8,1.6
			C99.7,265.5,99,265.7,98.1,265.7z"/>
		<path class="st3" d="M52.5,282.5c-0.5,0-1-0.1-1.5-0.3c-0.4-0.2-0.8-0.5-1.1-0.8c-0.3-0.3-0.6-0.7-0.7-1.2s-0.3-0.9-0.3-1.4
			c0-0.5,0.1-1,0.3-1.5c0.2-0.5,0.4-0.9,0.8-1.2c0.3-0.3,0.7-0.6,1.1-0.8c0.4-0.2,0.9-0.3,1.4-0.3c0.5,0,1,0.1,1.4,0.3
			s0.8,0.5,1.1,0.8c0.3,0.3,0.6,0.7,0.8,1.2c0.2,0.5,0.3,0.9,0.3,1.5c0,0.5-0.1,1-0.3,1.4s-0.4,0.9-0.7,1.2
			c-0.3,0.3-0.7,0.6-1.1,0.8C53.5,282.4,53,282.5,52.5,282.5z M49.9,278.8c0,0.4,0.1,0.8,0.2,1.1c0.1,0.3,0.3,0.7,0.6,0.9
			c0.2,0.3,0.5,0.5,0.8,0.6c0.3,0.2,0.7,0.2,1,0.2c0.4,0,0.7-0.1,1-0.2c0.3-0.2,0.6-0.4,0.8-0.6c0.2-0.3,0.4-0.6,0.6-0.9
			c0.1-0.4,0.2-0.7,0.2-1.1c0-0.4-0.1-0.8-0.2-1.1s-0.3-0.7-0.6-0.9c-0.2-0.3-0.5-0.5-0.8-0.6c-0.3-0.2-0.7-0.2-1-0.2
			c-0.4,0-0.7,0.1-1,0.2c-0.3,0.2-0.6,0.4-0.8,0.6c-0.2,0.3-0.4,0.6-0.6,0.9C49.9,278,49.9,278.4,49.9,278.8z"/>
		<path class="st3" d="M57.8,272.2h1v8.6c0,0.3,0.1,0.5,0.2,0.6c0.1,0.2,0.4,0.2,0.6,0.2c0.1,0,0.2,0,0.4,0c0.1,0,0.3-0.1,0.4-0.1
			l0.2,0.8c-0.2,0.1-0.4,0.1-0.7,0.2c-0.3,0-0.5,0.1-0.7,0.1c-0.4,0-0.8-0.1-1-0.4c-0.3-0.2-0.4-0.6-0.4-1V272.2z"/>
		<path class="st3" d="M64.5,282.5c-0.5,0-1-0.1-1.4-0.3c-0.4-0.2-0.8-0.5-1.1-0.8s-0.5-0.7-0.7-1.2c-0.2-0.5-0.3-0.9-0.3-1.4
			c0-0.5,0.1-1,0.3-1.5c0.2-0.5,0.4-0.9,0.7-1.2c0.3-0.3,0.6-0.6,1.1-0.8c0.4-0.2,0.9-0.3,1.3-0.3c0.6,0,1.2,0.2,1.6,0.5
			c0.5,0.3,0.8,0.7,1.1,1.2v-4.5h1v9c0,0.3,0.1,0.4,0.3,0.4v0.8c-0.1,0-0.3,0-0.3,0c-0.2,0-0.4-0.1-0.6-0.2s-0.3-0.3-0.3-0.5V281
			c-0.3,0.5-0.7,0.9-1.2,1.1S65.1,282.5,64.5,282.5z M64.7,281.7c0.2,0,0.5,0,0.7-0.1s0.5-0.2,0.7-0.4s0.4-0.4,0.6-0.6
			c0.2-0.2,0.3-0.5,0.3-0.7v-2.3c-0.1-0.3-0.2-0.5-0.4-0.7c-0.2-0.2-0.4-0.4-0.6-0.6c-0.2-0.2-0.5-0.3-0.7-0.4s-0.5-0.1-0.8-0.1
			c-0.4,0-0.7,0.1-1.1,0.3s-0.6,0.4-0.8,0.7c-0.2,0.3-0.4,0.6-0.5,0.9c-0.1,0.4-0.2,0.7-0.2,1.1c0,0.4,0.1,0.8,0.2,1.1
			c0.1,0.4,0.3,0.7,0.6,0.9c0.2,0.3,0.5,0.5,0.9,0.6C64,281.6,64.4,281.7,64.7,281.7z"/>
		<path class="st3" d="M77.4,275.9c-0.6,0-1.2,0.2-1.7,0.5c-0.5,0.3-0.8,0.8-1,1.4v4.5h-1v-7.3h0.9v1.8c0.3-0.6,0.6-1,1.1-1.3
			c0.5-0.3,0.9-0.5,1.5-0.5c0.1,0,0.1,0,0.2,0V275.9z"/>
		<path class="st3" d="M81,282.5c-0.8,0-1.4-0.3-1.8-0.8s-0.6-1.3-0.6-2.4v-4.3h1v4.1c0,1.7,0.6,2.5,1.7,2.5c0.3,0,0.6,0,0.8-0.1
			c0.3-0.1,0.5-0.2,0.7-0.4c0.2-0.2,0.4-0.4,0.6-0.6s0.3-0.5,0.4-0.8v-4.6h1v6.1c0,0.3,0.1,0.4,0.3,0.4v0.8c-0.1,0-0.2,0-0.3,0
			s-0.1,0-0.1,0c-0.2,0-0.4-0.1-0.5-0.2c-0.1-0.2-0.2-0.3-0.2-0.6v-0.8c-0.3,0.6-0.7,1-1.3,1.3C82.2,282.4,81.6,282.5,81,282.5z"/>
		<path class="st3" d="M87.1,272.2h1v8.6c0,0.3,0.1,0.5,0.2,0.6c0.1,0.2,0.4,0.2,0.6,0.2c0.1,0,0.2,0,0.4,0c0.1,0,0.3-0.1,0.4-0.1
			l0.2,0.8c-0.2,0.1-0.4,0.1-0.7,0.2c-0.3,0-0.5,0.1-0.7,0.1c-0.4,0-0.8-0.1-1-0.4c-0.3-0.2-0.4-0.6-0.4-1V272.2z"/>
		<path class="st3" d="M94,282.5c-0.5,0-1-0.1-1.5-0.3s-0.8-0.5-1.2-0.8s-0.6-0.8-0.8-1.2c-0.2-0.5-0.3-0.9-0.3-1.5
			c0-0.5,0.1-1,0.3-1.4c0.2-0.5,0.4-0.8,0.8-1.2c0.3-0.3,0.7-0.6,1.2-0.8c0.4-0.2,0.9-0.3,1.5-0.3c0.5,0,1,0.1,1.5,0.3
			c0.4,0.2,0.8,0.5,1.1,0.8c0.3,0.3,0.6,0.7,0.7,1.2c0.2,0.4,0.3,0.9,0.3,1.4c0,0.1,0,0.2,0,0.2s0,0.1,0,0.2h-6.2
			c0,0.4,0.1,0.8,0.3,1.1c0.2,0.3,0.4,0.6,0.6,0.9c0.2,0.2,0.5,0.4,0.8,0.6c0.3,0.1,0.6,0.2,1,0.2c0.2,0,0.5,0,0.7-0.1
			c0.2-0.1,0.4-0.2,0.6-0.3c0.2-0.1,0.4-0.3,0.5-0.4c0.2-0.2,0.3-0.3,0.4-0.5l0.8,0.2c-0.1,0.3-0.3,0.5-0.5,0.7
			c-0.2,0.2-0.4,0.4-0.7,0.6c-0.3,0.2-0.6,0.3-0.9,0.4C94.7,282.5,94.3,282.5,94,282.5z M96.7,278.4c0-0.4-0.1-0.8-0.3-1.1
			c-0.2-0.3-0.4-0.6-0.6-0.8c-0.2-0.2-0.5-0.4-0.8-0.5c-0.3-0.1-0.6-0.2-1-0.2c-0.4,0-0.7,0.1-1,0.2c-0.3,0.1-0.6,0.3-0.8,0.5
			c-0.2,0.2-0.4,0.5-0.6,0.8c-0.1,0.3-0.2,0.7-0.3,1.1H96.7z"/>
		<path class="st3" d="M101.5,282.5c-0.6,0-1.1-0.1-1.7-0.3c-0.5-0.2-1-0.5-1.4-0.8l0.4-0.6c0.4,0.3,0.8,0.6,1.3,0.8
			s0.9,0.3,1.4,0.3c0.6,0,1.1-0.1,1.4-0.4c0.3-0.2,0.5-0.6,0.5-1c0-0.2,0-0.4-0.1-0.5s-0.2-0.3-0.4-0.4c-0.2-0.1-0.4-0.2-0.7-0.3
			c-0.3-0.1-0.6-0.2-1-0.2c-0.4-0.1-0.8-0.2-1.1-0.3c-0.3-0.1-0.6-0.2-0.8-0.3s-0.4-0.3-0.4-0.5c-0.1-0.2-0.1-0.4-0.1-0.7
			c0-0.4,0.1-0.7,0.2-1c0.1-0.3,0.3-0.5,0.6-0.7c0.2-0.2,0.5-0.3,0.9-0.4c0.3-0.1,0.7-0.1,1.1-0.1c0.6,0,1.1,0.1,1.5,0.3
			c0.5,0.2,0.8,0.4,1.1,0.7l-0.5,0.6c-0.3-0.3-0.6-0.5-1-0.6c-0.4-0.1-0.8-0.2-1.2-0.2c-0.3,0-0.5,0-0.7,0.1
			c-0.2,0.1-0.4,0.1-0.6,0.2c-0.2,0.1-0.3,0.3-0.4,0.4c-0.1,0.2-0.1,0.4-0.1,0.6c0,0.2,0,0.4,0.1,0.5s0.2,0.2,0.3,0.3
			c0.1,0.1,0.3,0.2,0.6,0.2c0.2,0.1,0.5,0.1,0.8,0.2c0.5,0.1,0.9,0.2,1.2,0.3c0.4,0.1,0.7,0.2,0.9,0.4c0.2,0.1,0.4,0.3,0.5,0.5
			c0.1,0.2,0.2,0.5,0.2,0.8c0,0.7-0.3,1.2-0.8,1.6S102.4,282.5,101.5,282.5z"/>
	</g>
</g>
<line class="st0" x1="76.6" y1="342.5" x2="76.6" y2="308.7"/>
<polyline class="st0" points="84.3,335.5 76.6,345 68.9,335.5 "/>
<path class="st5" d="M126.2,419.8h-99c-2.2,0-4.1-1.8-4.1-4.1v-58.5c0-2.2,1.8-4.1,4.1-4.1h99c2.2,0,4.1,1.8,4.1,4.1v58.5
	C130.3,418,128.4,419.8,126.2,419.8z"/>
<g>
	<g>
		<path class="st3" d="M52.9,382.6v-9.9h6.5v0.9h-5.5v3.7h4.7v0.8h-4.7v4.6H52.9z"/>
		<path class="st3" d="M63.6,382.8c-0.5,0-1-0.1-1.5-0.3c-0.4-0.2-0.8-0.5-1.1-0.8c-0.3-0.3-0.6-0.7-0.7-1.2
			c-0.2-0.5-0.3-0.9-0.3-1.4c0-0.5,0.1-1,0.3-1.5c0.2-0.5,0.4-0.9,0.8-1.2c0.3-0.3,0.7-0.6,1.1-0.8c0.4-0.2,0.9-0.3,1.4-0.3
			c0.5,0,1,0.1,1.4,0.3c0.4,0.2,0.8,0.5,1.1,0.8c0.3,0.3,0.6,0.7,0.8,1.2c0.2,0.5,0.3,0.9,0.3,1.5c0,0.5-0.1,1-0.3,1.4
			c-0.2,0.5-0.4,0.9-0.7,1.2c-0.3,0.3-0.7,0.6-1.1,0.8C64.6,382.7,64.1,382.8,63.6,382.8z M61,379c0,0.4,0.1,0.8,0.2,1.1
			c0.1,0.3,0.3,0.7,0.6,0.9c0.2,0.3,0.5,0.5,0.8,0.6c0.3,0.1,0.7,0.2,1,0.2c0.4,0,0.7-0.1,1-0.2c0.3-0.2,0.6-0.4,0.8-0.6
			c0.2-0.3,0.4-0.6,0.6-0.9c0.1-0.4,0.2-0.7,0.2-1.1c0-0.4-0.1-0.8-0.2-1.1s-0.3-0.7-0.6-0.9c-0.2-0.3-0.5-0.5-0.8-0.6
			c-0.3-0.2-0.7-0.2-1-0.2c-0.4,0-0.7,0.1-1,0.2c-0.3,0.2-0.6,0.4-0.8,0.6s-0.4,0.6-0.6,0.9C61,378.2,61,378.6,61,379z"/>
		<path class="st3" d="M68.9,372.4h1v8.6c0,0.3,0.1,0.5,0.2,0.6c0.1,0.2,0.4,0.2,0.6,0.2c0.1,0,0.2,0,0.4,0c0.1,0,0.3-0.1,0.4-0.1
			l0.2,0.8c-0.2,0.1-0.4,0.1-0.7,0.2c-0.3,0-0.5,0.1-0.7,0.1c-0.4,0-0.8-0.1-1-0.4c-0.3-0.2-0.4-0.6-0.4-1V372.4z"/>
		<path class="st3" d="M72.7,372.4h1v8.6c0,0.3,0.1,0.5,0.2,0.6c0.1,0.2,0.4,0.2,0.6,0.2c0.1,0,0.2,0,0.4,0c0.1,0,0.3-0.1,0.4-0.1
			l0.2,0.8c-0.2,0.1-0.4,0.1-0.7,0.2c-0.3,0-0.5,0.1-0.7,0.1c-0.4,0-0.8-0.1-1-0.4c-0.3-0.2-0.4-0.6-0.4-1V372.4z"/>
		<path class="st3" d="M79.6,382.8c-0.5,0-1-0.1-1.5-0.3c-0.4-0.2-0.8-0.5-1.1-0.8c-0.3-0.3-0.6-0.7-0.7-1.2
			c-0.2-0.5-0.3-0.9-0.3-1.4c0-0.5,0.1-1,0.3-1.5c0.2-0.5,0.4-0.9,0.8-1.2c0.3-0.3,0.7-0.6,1.1-0.8c0.4-0.2,0.9-0.3,1.4-0.3
			c0.5,0,1,0.1,1.4,0.3c0.4,0.2,0.8,0.5,1.1,0.8c0.3,0.3,0.6,0.7,0.8,1.2c0.2,0.5,0.3,0.9,0.3,1.5c0,0.5-0.1,1-0.3,1.4
			c-0.2,0.5-0.4,0.9-0.7,1.2c-0.3,0.3-0.7,0.6-1.1,0.8C80.6,382.7,80.1,382.8,79.6,382.8z M76.9,379c0,0.4,0.1,0.8,0.2,1.1
			c0.1,0.3,0.3,0.7,0.6,0.9c0.2,0.3,0.5,0.5,0.8,0.6c0.3,0.1,0.7,0.2,1,0.2c0.4,0,0.7-0.1,1-0.2c0.3-0.2,0.6-0.4,0.8-0.6
			c0.2-0.3,0.4-0.6,0.6-0.9c0.1-0.4,0.2-0.7,0.2-1.1c0-0.4-0.1-0.8-0.2-1.1s-0.3-0.7-0.6-0.9c-0.2-0.3-0.5-0.5-0.8-0.6
			c-0.3-0.2-0.7-0.2-1-0.2c-0.4,0-0.7,0.1-1,0.2c-0.3,0.2-0.6,0.4-0.8,0.6s-0.4,0.6-0.6,0.9C77,378.2,76.9,378.6,76.9,379z"/>
		<path class="st3" d="M93.7,375.3h0.9l-3.1,7.3h-0.8l-1.6-3.7l-1.6,3.7h-0.8l-3.1-7.3h0.9l2.7,6.3l1.4-3.3l-1.2-3h0.8l1,2.4l1-2.4
			h0.8l-1.2,3l1.4,3.3L93.7,375.3z"/>
		<path class="st3" d="M98.1,382.8c-0.6,0-1.1-0.1-1.7-0.3c-0.5-0.2-1-0.5-1.4-0.8l0.4-0.6c0.4,0.3,0.8,0.6,1.3,0.8s0.9,0.3,1.4,0.3
			c0.6,0,1.1-0.1,1.4-0.4c0.3-0.2,0.5-0.6,0.5-1c0-0.2,0-0.4-0.1-0.5c-0.1-0.1-0.2-0.3-0.4-0.4s-0.4-0.2-0.7-0.3
			c-0.3-0.1-0.6-0.2-1-0.2c-0.4-0.1-0.8-0.2-1.1-0.3c-0.3-0.1-0.6-0.2-0.8-0.3s-0.4-0.3-0.4-0.5c-0.1-0.2-0.1-0.4-0.1-0.7
			c0-0.4,0.1-0.7,0.2-1c0.1-0.3,0.3-0.5,0.6-0.7c0.2-0.2,0.5-0.3,0.9-0.4c0.3-0.1,0.7-0.1,1.1-0.1c0.6,0,1.1,0.1,1.5,0.3
			c0.5,0.2,0.8,0.4,1.1,0.7l-0.5,0.6c-0.3-0.3-0.6-0.5-1-0.6s-0.8-0.2-1.2-0.2c-0.3,0-0.5,0-0.7,0.1c-0.2,0.1-0.4,0.1-0.6,0.2
			c-0.2,0.1-0.3,0.3-0.4,0.4s-0.1,0.4-0.1,0.6c0,0.2,0,0.4,0.1,0.5s0.2,0.2,0.3,0.3s0.3,0.2,0.6,0.2c0.2,0.1,0.5,0.1,0.8,0.2
			c0.5,0.1,0.9,0.2,1.2,0.3c0.4,0.1,0.7,0.2,0.9,0.4c0.2,0.1,0.4,0.3,0.5,0.5c0.1,0.2,0.2,0.5,0.2,0.8c0,0.7-0.3,1.2-0.8,1.6
			C99.7,382.6,99,382.8,98.1,382.8z"/>
		<path class="st3" d="M52.5,399.6c-0.5,0-1-0.1-1.5-0.3c-0.4-0.2-0.8-0.5-1.1-0.8c-0.3-0.3-0.6-0.7-0.7-1.2
			c-0.2-0.5-0.3-0.9-0.3-1.4c0-0.5,0.1-1,0.3-1.5c0.2-0.5,0.4-0.9,0.8-1.2c0.3-0.3,0.7-0.6,1.1-0.8c0.4-0.2,0.9-0.3,1.4-0.3
			c0.5,0,1,0.1,1.4,0.3c0.4,0.2,0.8,0.5,1.1,0.8c0.3,0.3,0.6,0.7,0.8,1.2c0.2,0.5,0.3,0.9,0.3,1.5c0,0.5-0.1,1-0.3,1.4
			c-0.2,0.5-0.4,0.9-0.7,1.2c-0.3,0.3-0.7,0.6-1.1,0.8C53.5,399.5,53,399.6,52.5,399.6z M49.9,395.8c0,0.4,0.1,0.8,0.2,1.1
			c0.1,0.3,0.3,0.7,0.6,0.9c0.2,0.3,0.5,0.5,0.8,0.6c0.3,0.1,0.7,0.2,1,0.2c0.4,0,0.7-0.1,1-0.2c0.3-0.2,0.6-0.4,0.8-0.6
			c0.2-0.3,0.4-0.6,0.6-0.9c0.1-0.4,0.2-0.7,0.2-1.1c0-0.4-0.1-0.8-0.2-1.1s-0.3-0.7-0.6-0.9c-0.2-0.3-0.5-0.5-0.8-0.6
			c-0.3-0.2-0.7-0.2-1-0.2c-0.4,0-0.7,0.1-1,0.2c-0.3,0.2-0.6,0.4-0.8,0.6s-0.4,0.6-0.6,0.9C49.9,395,49.9,395.4,49.9,395.8z"/>
		<path class="st3" d="M57.8,389.2h1v8.6c0,0.3,0.1,0.5,0.2,0.6c0.1,0.2,0.4,0.2,0.6,0.2c0.1,0,0.2,0,0.4,0c0.1,0,0.3-0.1,0.4-0.1
			l0.2,0.8c-0.2,0.1-0.4,0.1-0.7,0.2c-0.3,0-0.5,0.1-0.7,0.1c-0.4,0-0.8-0.1-1-0.4c-0.3-0.2-0.4-0.6-0.4-1V389.2z"/>
		<path class="st3" d="M64.5,399.6c-0.5,0-1-0.1-1.4-0.3s-0.8-0.5-1.1-0.8s-0.5-0.7-0.7-1.2c-0.2-0.5-0.3-0.9-0.3-1.4
			c0-0.5,0.1-1,0.3-1.5s0.4-0.9,0.7-1.2c0.3-0.3,0.6-0.6,1.1-0.8c0.4-0.2,0.9-0.3,1.3-0.3c0.6,0,1.2,0.2,1.6,0.5
			c0.5,0.3,0.8,0.7,1.1,1.2v-4.5h1v9c0,0.3,0.1,0.4,0.3,0.4v0.8c-0.1,0-0.3,0-0.3,0c-0.2,0-0.4-0.1-0.6-0.2s-0.3-0.3-0.3-0.5V398
			c-0.3,0.5-0.7,0.9-1.2,1.1C65.6,399.4,65.1,399.6,64.5,399.6z M64.7,398.7c0.2,0,0.5,0,0.7-0.1c0.3-0.1,0.5-0.2,0.7-0.4
			c0.2-0.2,0.4-0.4,0.6-0.6c0.2-0.2,0.3-0.5,0.3-0.7v-2.3c-0.1-0.3-0.2-0.5-0.4-0.7c-0.2-0.2-0.4-0.4-0.6-0.6
			c-0.2-0.2-0.5-0.3-0.7-0.4c-0.3-0.1-0.5-0.1-0.8-0.1c-0.4,0-0.7,0.1-1.1,0.3s-0.6,0.4-0.8,0.7c-0.2,0.3-0.4,0.6-0.5,0.9
			c-0.1,0.4-0.2,0.7-0.2,1.1c0,0.4,0.1,0.8,0.2,1.1s0.3,0.7,0.6,0.9c0.2,0.3,0.5,0.5,0.9,0.6C64,398.6,64.4,398.7,64.7,398.7z"/>
		<path class="st3" d="M77.4,393c-0.6,0-1.2,0.2-1.7,0.5c-0.5,0.3-0.8,0.8-1,1.4v4.5h-1v-7.3h0.9v1.8c0.3-0.6,0.6-1,1.1-1.3
			c0.5-0.3,0.9-0.5,1.5-0.5c0.1,0,0.1,0,0.2,0V393z"/>
		<path class="st3" d="M81,399.6c-0.8,0-1.4-0.3-1.8-0.8c-0.4-0.5-0.6-1.3-0.6-2.4v-4.3h1v4.1c0,1.7,0.6,2.5,1.7,2.5
			c0.3,0,0.6,0,0.8-0.1c0.3-0.1,0.5-0.2,0.7-0.4c0.2-0.2,0.4-0.4,0.6-0.6c0.2-0.2,0.3-0.5,0.4-0.8v-4.6h1v6.1c0,0.3,0.1,0.4,0.3,0.4
			v0.8c-0.1,0-0.2,0-0.3,0s-0.1,0-0.1,0c-0.2,0-0.4-0.1-0.5-0.2s-0.2-0.3-0.2-0.6v-0.8c-0.3,0.6-0.7,1-1.3,1.3
			C82.2,399.4,81.6,399.6,81,399.6z"/>
		<path class="st3" d="M87.1,389.2h1v8.6c0,0.3,0.1,0.5,0.2,0.6c0.1,0.2,0.4,0.2,0.6,0.2c0.1,0,0.2,0,0.4,0c0.1,0,0.3-0.1,0.4-0.1
			l0.2,0.8c-0.2,0.1-0.4,0.1-0.7,0.2c-0.3,0-0.5,0.1-0.7,0.1c-0.4,0-0.8-0.1-1-0.4c-0.3-0.2-0.4-0.6-0.4-1V389.2z"/>
		<path class="st3" d="M94,399.6c-0.5,0-1-0.1-1.5-0.3c-0.4-0.2-0.8-0.5-1.2-0.8c-0.3-0.3-0.6-0.8-0.8-1.2c-0.2-0.5-0.3-0.9-0.3-1.5
			c0-0.5,0.1-1,0.3-1.4c0.2-0.5,0.4-0.8,0.8-1.2c0.3-0.3,0.7-0.6,1.2-0.8c0.4-0.2,0.9-0.3,1.5-0.3c0.5,0,1,0.1,1.5,0.3
			c0.4,0.2,0.8,0.5,1.1,0.8c0.3,0.3,0.6,0.7,0.7,1.2c0.2,0.4,0.3,0.9,0.3,1.4c0,0.1,0,0.1,0,0.2c0,0.1,0,0.1,0,0.2h-6.2
			c0,0.4,0.1,0.8,0.3,1.1s0.4,0.6,0.6,0.9c0.2,0.2,0.5,0.4,0.8,0.6c0.3,0.1,0.6,0.2,1,0.2c0.2,0,0.5,0,0.7-0.1s0.4-0.2,0.6-0.3
			c0.2-0.1,0.4-0.2,0.5-0.4c0.2-0.2,0.3-0.3,0.4-0.5l0.8,0.2c-0.1,0.3-0.3,0.5-0.5,0.7c-0.2,0.2-0.4,0.4-0.7,0.6
			c-0.3,0.2-0.6,0.3-0.9,0.4C94.7,399.5,94.3,399.6,94,399.6z M96.7,395.4c0-0.4-0.1-0.7-0.3-1.1c-0.2-0.3-0.4-0.6-0.6-0.8
			c-0.2-0.2-0.5-0.4-0.8-0.5c-0.3-0.1-0.6-0.2-1-0.2c-0.4,0-0.7,0.1-1,0.2c-0.3,0.1-0.6,0.3-0.8,0.5c-0.2,0.2-0.4,0.5-0.6,0.8
			c-0.1,0.3-0.2,0.7-0.3,1.1H96.7z"/>
		<path class="st3" d="M101.5,399.6c-0.6,0-1.1-0.1-1.7-0.3c-0.5-0.2-1-0.5-1.4-0.8l0.4-0.6c0.4,0.3,0.8,0.6,1.3,0.8
			s0.9,0.3,1.4,0.3c0.6,0,1.1-0.1,1.4-0.4c0.3-0.2,0.5-0.6,0.5-1c0-0.2,0-0.4-0.1-0.5c-0.1-0.1-0.2-0.3-0.4-0.4s-0.4-0.2-0.7-0.3
			c-0.3-0.1-0.6-0.2-1-0.2c-0.4-0.1-0.8-0.2-1.1-0.3c-0.3-0.1-0.6-0.2-0.8-0.3s-0.4-0.3-0.4-0.5c-0.1-0.2-0.1-0.4-0.1-0.7
			c0-0.4,0.1-0.7,0.2-1c0.1-0.3,0.3-0.5,0.6-0.7c0.2-0.2,0.5-0.3,0.9-0.4c0.3-0.1,0.7-0.1,1.1-0.1c0.6,0,1.1,0.1,1.5,0.3
			c0.5,0.2,0.8,0.4,1.1,0.7l-0.5,0.6c-0.3-0.3-0.6-0.5-1-0.6s-0.8-0.2-1.2-0.2c-0.3,0-0.5,0-0.7,0.1c-0.2,0.1-0.4,0.1-0.6,0.2
			c-0.2,0.1-0.3,0.3-0.4,0.4s-0.1,0.4-0.1,0.6c0,0.2,0,0.4,0.1,0.5s0.2,0.2,0.3,0.3s0.3,0.2,0.6,0.2c0.2,0.1,0.5,0.1,0.8,0.2
			c0.5,0.1,0.9,0.2,1.2,0.3c0.4,0.1,0.7,0.2,0.9,0.4c0.2,0.1,0.4,0.3,0.5,0.5c0.1,0.2,0.2,0.5,0.2,0.8c0,0.7-0.3,1.2-0.8,1.6
			C103,399.4,102.4,399.6,101.5,399.6z"/>
	</g>
</g>
<line class="st0" x1="238.5" y1="344.9" x2="238.5" y2="311.1"/>
<polyline class="st0" points="246.2,337.9 238.5,347.4 230.8,337.9 "/>
<path class="st1" d="M289,419.8H187.9c-2.3,0-4.1-1.8-4.1-4.1v-58.4c0-2.3,1.8-4.1,4.1-4.1H289c2.3,0,4.1,1.8,4.1,4.1v58.4
	C293.1,418,291.2,419.8,289,419.8z"/>
<g>
	<g>
		<path class="st2" d="M214.9,382.6v-9.9h6.5v0.9h-5.5v3.7h4.7v0.8h-4.7v4.6H214.9z"/>
		<path class="st2" d="M225.5,382.8c-0.5,0-1-0.1-1.5-0.3c-0.4-0.2-0.8-0.5-1.1-0.8c-0.3-0.3-0.6-0.7-0.7-1.2
			c-0.2-0.5-0.3-0.9-0.3-1.4c0-0.5,0.1-1,0.3-1.5c0.2-0.5,0.4-0.9,0.8-1.2c0.3-0.3,0.7-0.6,1.1-0.8c0.4-0.2,0.9-0.3,1.4-0.3
			c0.5,0,1,0.1,1.4,0.3c0.4,0.2,0.8,0.5,1.1,0.8c0.3,0.3,0.6,0.7,0.8,1.2c0.2,0.5,0.3,0.9,0.3,1.5c0,0.5-0.1,1-0.3,1.4
			c-0.2,0.5-0.4,0.9-0.7,1.2c-0.3,0.3-0.7,0.6-1.1,0.8C226.6,382.7,226.1,382.8,225.5,382.8z M222.9,379c0,0.4,0.1,0.8,0.2,1.1
			c0.1,0.3,0.3,0.7,0.6,0.9c0.2,0.3,0.5,0.5,0.8,0.6c0.3,0.1,0.7,0.2,1,0.2c0.4,0,0.7-0.1,1-0.2c0.3-0.2,0.6-0.4,0.8-0.6
			c0.2-0.3,0.4-0.6,0.6-0.9c0.1-0.4,0.2-0.7,0.2-1.1c0-0.4-0.1-0.8-0.2-1.1s-0.3-0.7-0.6-0.9c-0.2-0.3-0.5-0.5-0.8-0.6
			c-0.3-0.2-0.7-0.2-1-0.2c-0.4,0-0.7,0.1-1,0.2c-0.3,0.2-0.6,0.4-0.8,0.6s-0.4,0.6-0.6,0.9C223,378.2,222.9,378.6,222.9,379z"/>
		<path class="st2" d="M230.8,372.4h1v8.6c0,0.3,0.1,0.5,0.2,0.6c0.1,0.2,0.4,0.2,0.6,0.2c0.1,0,0.2,0,0.4,0c0.1,0,0.3-0.1,0.4-0.1
			l0.2,0.8c-0.2,0.1-0.4,0.1-0.7,0.2c-0.3,0-0.5,0.1-0.7,0.1c-0.4,0-0.8-0.1-1-0.4c-0.3-0.2-0.4-0.6-0.4-1V372.4z"/>
		<path class="st2" d="M234.6,372.4h1v8.6c0,0.3,0.1,0.5,0.2,0.6c0.1,0.2,0.4,0.2,0.6,0.2c0.1,0,0.2,0,0.4,0c0.1,0,0.3-0.1,0.4-0.1
			l0.2,0.8c-0.2,0.1-0.4,0.1-0.7,0.2c-0.3,0-0.5,0.1-0.7,0.1c-0.4,0-0.8-0.1-1-0.4c-0.3-0.2-0.4-0.6-0.4-1V372.4z"/>
		<path class="st2" d="M241.5,382.8c-0.5,0-1-0.1-1.5-0.3c-0.4-0.2-0.8-0.5-1.1-0.8c-0.3-0.3-0.6-0.7-0.7-1.2
			c-0.2-0.5-0.3-0.9-0.3-1.4c0-0.5,0.1-1,0.3-1.5c0.2-0.5,0.4-0.9,0.8-1.2c0.3-0.3,0.7-0.6,1.1-0.8c0.4-0.2,0.9-0.3,1.4-0.3
			c0.5,0,1,0.1,1.4,0.3c0.4,0.2,0.8,0.5,1.1,0.8c0.3,0.3,0.6,0.7,0.8,1.2c0.2,0.5,0.3,0.9,0.3,1.5c0,0.5-0.1,1-0.3,1.4
			c-0.2,0.5-0.4,0.9-0.7,1.2c-0.3,0.3-0.7,0.6-1.1,0.8C242.5,382.7,242,382.8,241.5,382.8z M238.8,379c0,0.4,0.1,0.8,0.2,1.1
			c0.1,0.3,0.3,0.7,0.6,0.9c0.2,0.3,0.5,0.5,0.8,0.6c0.3,0.1,0.7,0.2,1,0.2c0.4,0,0.7-0.1,1-0.2c0.3-0.2,0.6-0.4,0.8-0.6
			c0.2-0.3,0.4-0.6,0.6-0.9c0.1-0.4,0.2-0.7,0.2-1.1c0-0.4-0.1-0.8-0.2-1.1s-0.3-0.7-0.6-0.9c-0.2-0.3-0.5-0.5-0.8-0.6
			c-0.3-0.2-0.7-0.2-1-0.2c-0.4,0-0.7,0.1-1,0.2c-0.3,0.2-0.6,0.4-0.8,0.6s-0.4,0.6-0.6,0.9C238.9,378.2,238.8,378.6,238.8,379z"/>
		<path class="st2" d="M255.6,375.3h0.9l-3.1,7.3h-0.8l-1.6-3.7l-1.6,3.7h-0.8l-3.1-7.3h0.9l2.7,6.3l1.4-3.3l-1.2-3h0.8l1,2.4l1-2.4
			h0.8l-1.2,3l1.4,3.3L255.6,375.3z"/>
		<path class="st2" d="M260.1,382.8c-0.6,0-1.1-0.1-1.7-0.3c-0.5-0.2-1-0.5-1.4-0.8l0.4-0.6c0.4,0.3,0.8,0.6,1.3,0.8
			s0.9,0.3,1.4,0.3c0.6,0,1.1-0.1,1.4-0.4c0.3-0.2,0.5-0.6,0.5-1c0-0.2,0-0.4-0.1-0.5c-0.1-0.1-0.2-0.3-0.4-0.4s-0.4-0.2-0.7-0.3
			c-0.3-0.1-0.6-0.2-1-0.2c-0.4-0.1-0.8-0.2-1.1-0.3c-0.3-0.1-0.6-0.2-0.8-0.3s-0.4-0.3-0.4-0.5c-0.1-0.2-0.1-0.4-0.1-0.7
			c0-0.4,0.1-0.7,0.2-1c0.1-0.3,0.3-0.5,0.6-0.7c0.2-0.2,0.5-0.3,0.9-0.4c0.3-0.1,0.7-0.1,1.1-0.1c0.6,0,1.1,0.1,1.5,0.3
			c0.5,0.2,0.8,0.4,1.1,0.7l-0.5,0.6c-0.3-0.3-0.6-0.5-1-0.6s-0.8-0.2-1.2-0.2c-0.3,0-0.5,0-0.7,0.1c-0.2,0.1-0.4,0.1-0.6,0.2
			c-0.2,0.1-0.3,0.3-0.4,0.4s-0.1,0.4-0.1,0.6c0,0.2,0,0.4,0.1,0.5s0.2,0.2,0.3,0.3s0.3,0.2,0.6,0.2c0.2,0.1,0.5,0.1,0.8,0.2
			c0.5,0.1,0.9,0.2,1.2,0.3c0.4,0.1,0.7,0.2,0.9,0.4c0.2,0.1,0.4,0.3,0.5,0.5c0.1,0.2,0.2,0.5,0.2,0.8c0,0.7-0.3,1.2-0.8,1.6
			C261.6,382.6,260.9,382.8,260.1,382.8z"/>
		<path class="st2" d="M214.3,399.4h-1v-4.1c0-0.9-0.1-1.5-0.4-1.9c-0.3-0.4-0.7-0.6-1.2-0.6c-0.3,0-0.6,0.1-0.8,0.2
			c-0.3,0.1-0.5,0.2-0.8,0.4c-0.2,0.2-0.5,0.4-0.6,0.7c-0.2,0.3-0.3,0.5-0.4,0.8v4.5h-1v-7.3h0.9v1.7c0.3-0.5,0.7-1,1.3-1.3
			c0.6-0.3,1.2-0.5,1.8-0.5c0.4,0,0.7,0.1,1,0.2c0.3,0.1,0.5,0.4,0.7,0.6c0.2,0.3,0.3,0.6,0.4,1c0.1,0.4,0.1,0.8,0.1,1.3V399.4z"/>
		<path class="st2" d="M219.5,399.6c-0.5,0-1-0.1-1.5-0.3c-0.4-0.2-0.8-0.5-1.2-0.8c-0.3-0.3-0.6-0.8-0.8-1.2
			c-0.2-0.5-0.3-0.9-0.3-1.5c0-0.5,0.1-1,0.3-1.4c0.2-0.5,0.4-0.8,0.8-1.2c0.3-0.3,0.7-0.6,1.2-0.8c0.4-0.2,0.9-0.3,1.5-0.3
			c0.5,0,1,0.1,1.5,0.3c0.4,0.2,0.8,0.5,1.1,0.8c0.3,0.3,0.6,0.7,0.7,1.2c0.2,0.4,0.3,0.9,0.3,1.4c0,0.1,0,0.1,0,0.2
			c0,0.1,0,0.1,0,0.2h-6.2c0,0.4,0.1,0.8,0.3,1.1s0.4,0.6,0.6,0.9c0.2,0.2,0.5,0.4,0.8,0.6c0.3,0.1,0.6,0.2,1,0.2
			c0.2,0,0.5,0,0.7-0.1s0.4-0.2,0.6-0.3c0.2-0.1,0.4-0.2,0.5-0.4c0.2-0.2,0.3-0.3,0.4-0.5l0.8,0.2c-0.1,0.3-0.3,0.5-0.5,0.7
			c-0.2,0.2-0.4,0.4-0.7,0.6c-0.3,0.2-0.6,0.3-0.9,0.4C220.2,399.5,219.8,399.6,219.5,399.6z M222.1,395.4c0-0.4-0.1-0.7-0.3-1.1
			c-0.2-0.3-0.4-0.6-0.6-0.8c-0.2-0.2-0.5-0.4-0.8-0.5c-0.3-0.1-0.6-0.2-1-0.2c-0.4,0-0.7,0.1-1,0.2c-0.3,0.1-0.6,0.3-0.8,0.5
			c-0.2,0.2-0.4,0.5-0.6,0.8c-0.1,0.3-0.2,0.7-0.3,1.1H222.1z"/>
		<path class="st2" d="M233.5,392.1h0.9l-3.1,7.3h-0.8l-1.6-3.7l-1.6,3.7h-0.8l-3.1-7.3h0.9l2.7,6.3l1.4-3.3l-1.2-3h0.8l1,2.4l1-2.4
			h0.8l-1.2,3l1.4,3.3L233.5,392.1z"/>
		<path class="st2" d="M242.5,393c-0.6,0-1.2,0.2-1.7,0.5c-0.5,0.3-0.8,0.8-1,1.4v4.5h-1v-7.3h0.9v1.8c0.3-0.6,0.6-1,1.1-1.3
			c0.5-0.3,0.9-0.5,1.5-0.5c0.1,0,0.1,0,0.2,0V393z"/>
		<path class="st2" d="M246.1,399.6c-0.8,0-1.4-0.3-1.8-0.8c-0.4-0.5-0.6-1.3-0.6-2.4v-4.3h1v4.1c0,1.7,0.6,2.5,1.7,2.5
			c0.3,0,0.6,0,0.8-0.1c0.3-0.1,0.5-0.2,0.7-0.4c0.2-0.2,0.4-0.4,0.6-0.6c0.2-0.2,0.3-0.5,0.4-0.8v-4.6h1v6.1c0,0.3,0.1,0.4,0.3,0.4
			v0.8c-0.1,0-0.2,0-0.3,0s-0.1,0-0.1,0c-0.2,0-0.4-0.1-0.5-0.2s-0.2-0.3-0.2-0.6v-0.8c-0.3,0.6-0.7,1-1.3,1.3
			C247.3,399.4,246.7,399.6,246.1,399.6z"/>
		<path class="st2" d="M252.2,389.2h1v8.6c0,0.3,0.1,0.5,0.2,0.6c0.1,0.2,0.4,0.2,0.6,0.2c0.1,0,0.2,0,0.4,0c0.1,0,0.3-0.1,0.4-0.1
			l0.2,0.8c-0.2,0.1-0.4,0.1-0.7,0.2c-0.3,0-0.5,0.1-0.7,0.1c-0.4,0-0.8-0.1-1-0.4c-0.3-0.2-0.4-0.6-0.4-1V389.2z"/>
		<path class="st2" d="M259.1,399.6c-0.5,0-1-0.1-1.5-0.3c-0.4-0.2-0.8-0.5-1.2-0.8c-0.3-0.3-0.6-0.8-0.8-1.2
			c-0.2-0.5-0.3-0.9-0.3-1.5c0-0.5,0.1-1,0.3-1.4c0.2-0.5,0.4-0.8,0.8-1.2c0.3-0.3,0.7-0.6,1.2-0.8c0.4-0.2,0.9-0.3,1.5-0.3
			c0.5,0,1,0.1,1.5,0.3c0.4,0.2,0.8,0.5,1.1,0.8c0.3,0.3,0.6,0.7,0.7,1.2c0.2,0.4,0.3,0.9,0.3,1.4c0,0.1,0,0.1,0,0.2
			c0,0.1,0,0.1,0,0.2h-6.2c0,0.4,0.1,0.8,0.3,1.1s0.4,0.6,0.6,0.9c0.2,0.2,0.5,0.4,0.8,0.6c0.3,0.1,0.6,0.2,1,0.2
			c0.2,0,0.5,0,0.7-0.1s0.4-0.2,0.6-0.3c0.2-0.1,0.4-0.2,0.5-0.4c0.2-0.2,0.3-0.3,0.4-0.5l0.8,0.2c-0.1,0.3-0.3,0.5-0.5,0.7
			c-0.2,0.2-0.4,0.4-0.7,0.6c-0.3,0.2-0.6,0.3-0.9,0.4C259.8,399.5,259.4,399.6,259.1,399.6z M261.8,395.4c0-0.4-0.1-0.7-0.3-1.1
			c-0.2-0.3-0.4-0.6-0.6-0.8c-0.2-0.2-0.5-0.4-0.8-0.5c-0.3-0.1-0.6-0.2-1-0.2c-0.4,0-0.7,0.1-1,0.2c-0.3,0.1-0.6,0.3-0.8,0.5
			c-0.2,0.2-0.4,0.5-0.6,0.8c-0.1,0.3-0.2,0.7-0.3,1.1H261.8z"/>
		<path class="st2" d="M266.6,399.6c-0.6,0-1.1-0.1-1.7-0.3c-0.5-0.2-1-0.5-1.4-0.8l0.4-0.6c0.4,0.3,0.8,0.6,1.3,0.8
			s0.9,0.3,1.4,0.3c0.6,0,1.1-0.1,1.4-0.4c0.3-0.2,0.5-0.6,0.5-1c0-0.2,0-0.4-0.1-0.5c-0.1-0.1-0.2-0.3-0.4-0.4s-0.4-0.2-0.7-0.3
			c-0.3-0.1-0.6-0.2-1-0.2c-0.4-0.1-0.8-0.2-1.1-0.3c-0.3-0.1-0.6-0.2-0.8-0.3s-0.4-0.3-0.4-0.5c-0.1-0.2-0.1-0.4-0.1-0.7
			c0-0.4,0.1-0.7,0.2-1c0.1-0.3,0.3-0.5,0.6-0.7c0.2-0.2,0.5-0.3,0.9-0.4c0.3-0.1,0.7-0.1,1.1-0.1c0.6,0,1.1,0.1,1.5,0.3
			c0.5,0.2,0.8,0.4,1.1,0.7l-0.5,0.6c-0.3-0.3-0.6-0.5-1-0.6s-0.8-0.2-1.2-0.2c-0.3,0-0.5,0-0.7,0.1c-0.2,0.1-0.4,0.1-0.6,0.2
			c-0.2,0.1-0.3,0.3-0.4,0.4s-0.1,0.4-0.1,0.6c0,0.2,0,0.4,0.1,0.5s0.2,0.2,0.3,0.3s0.3,0.2,0.6,0.2c0.2,0.1,0.5,0.1,0.8,0.2
			c0.5,0.1,0.9,0.2,1.2,0.3c0.4,0.1,0.7,0.2,0.9,0.4c0.2,0.1,0.4,0.3,0.5,0.5c0.1,0.2,0.2,0.5,0.2,0.8c0,0.7-0.3,1.2-0.8,1.6
			C268.1,399.4,267.4,399.6,266.6,399.6z"/>
	</g>
</g>
</svg>
