<?xml version="1.0" encoding="utf-8"?>
<!-- Generator: Adobe Illustrator 22.1.0, SVG Export Plug-In . SVG Version: 6.00 Build 0)  -->
<svg version="1.1" id="Layer_1" xmlns="http://www.w3.org/2000/svg" xmlns:xlink="http://www.w3.org/1999/xlink" x="0px" y="0px"
	 viewBox="0 0 372.3 332.7" style="enable-background:new 0 0 372.3 332.7;" xml:space="preserve">
<style type="text/css">
	.st0{fill:#4A556D;}
	.st1{fill:#293249;}
	.st2{fill:#101628;}
	.st3{fill:#F79A36;}
	.st4{fill:#F7AB59;}
	.st5{fill:#E38D32;}
	.st6{fill:#DE821F;}
	.st7{fill:#F7A145;}
	.st8{fill:#DE9547;}
	.st9{fill:#C9761C;}
	.st10{fill:none;stroke:#293249;stroke-width:2;stroke-linecap:round;stroke-miterlimit:10;}
	.st11{fill:#3E4552;}
	.st12{fill:#FE533D;}
	.st13{fill:none;stroke:#293249;stroke-width:1.8527;stroke-linecap:round;stroke-miterlimit:10;}
	.st14{fill:#FD9C00;}
	.st15{fill:url(#SVGID_1_);}
	.st16{opacity:0.8;}
	.st17{fill:#A1AEB7;}
	.st18{fill:#BEC7CE;}
	.st19{fill:#D1D2D3;}
	.st20{fill:none;stroke:#D1D2D3;stroke-width:1.8114;stroke-linecap:round;stroke-miterlimit:10;}
	.st21{fill:none;stroke:#D1D2D3;stroke-width:1.8114;stroke-linecap:round;stroke-miterlimit:10;stroke-dasharray:6.7625,6.7625;}
	.st22{fill:none;stroke:#D1D2D3;stroke-width:1.8114;stroke-linecap:round;stroke-miterlimit:10;stroke-dasharray:8.0906,8.0906;}
	.st23{fill:none;stroke:#D1D2D3;stroke-width:1.8114;stroke-linecap:round;stroke-miterlimit:10;stroke-dasharray:7.4357,7.4357;}
</style>
<path class="st0" d="M44.1,207.4c10.8,0,20.3,5.7,25.5,14.3l13.5-8.1l-38.4-23.2L5.1,213.7l13.5,8.1
	C23.8,213.2,33.3,207.4,44.1,207.4z"/>
<path class="st1" d="M74,237.3c0,16.5-13.4,29.9-29.9,29.9v17l39-23.5v-47l-13.5,8.1C72.4,226.3,74,231.6,74,237.3z"/>
<path class="st2" d="M14.2,237.3c0-5.7,1.6-11,4.3-15.5l-13.5-8.1v47l39,23.5v-17C27.6,267.2,14.2,253.8,14.2,237.3z"/>
<polygon class="st3" points="66.2,223.9 69.6,221.8 69.6,221.8 66.2,223.9 "/>
<path class="st4" d="M44.1,207.4c-10.8,0-20.3,5.7-25.5,14.3l3.4,2.1c4.5-7.4,12.7-12.4,22.1-12.4c9.4,0,17.5,5,22.1,12.4l3.4-2.1
	C64.4,213.2,54.9,207.4,44.1,207.4z"/>
<path class="st3" d="M70,237.3c0,14.3-11.6,25.9-25.9,25.9v4c16.5,0,29.9-13.4,29.9-29.9c0-5.7-1.6-11-4.3-15.5l-3.4,2.1
	C68.6,227.8,70,232.4,70,237.3z"/>
<path class="st5" d="M18.2,237.3c0-4.9,1.4-9.5,3.8-13.5l-3.4-2.1c-2.8,4.5-4.3,9.8-4.3,15.5c0,16.5,13.4,29.9,29.9,29.9v-4
	C29.8,263.2,18.2,251.6,18.2,237.3z"/>
<polygon class="st6" points="57.4,229.1 66.2,223.9 66.2,223.9 57.4,229.1 "/>
<polygon class="st7" points="57.4,229.1 57.4,229.1 44.1,237.2 "/>
<path class="st8" d="M44.1,211.5c-9.4,0-17.5,5-22.1,12.4l12.5,7.5l9.6,5.8l13.3-8l8.8-5.3C61.6,216.4,53.5,211.5,44.1,211.5z
	 M40.9,226.8h5.5c0.8,0,1.5,0.2,2.1,0.7c0.4,0.3,0.8,0.6,1,1c-0.3-0.4-0.6-0.8-1-1c-0.6-0.4-1.3-0.7-2.1-0.7H40.9L40.9,226.8z"/>
<path class="st6" d="M66.2,223.9l-8.8,5.3l-13.3,8v1.8v7.6v11.3v5.3c14.3,0,25.9-11.6,25.9-25.9C70,232.4,68.6,227.8,66.2,223.9z
	 M50.6,240.6c-0.3-0.4-0.6-0.8-1-1C50,239.9,50.4,240.2,50.6,240.6z M51.3,242.7c0-0.5-0.1-1-0.3-1.5
	C51.2,241.7,51.3,242.2,51.3,242.7L51.3,242.7z"/>
<path class="st9" d="M34.5,231.4L22,223.9c-2.4,3.9-3.8,8.5-3.8,13.5c0,14.3,11.6,25.9,25.9,25.9v-5.3v-11.3v-7.6v-1.8L34.5,231.4z"
	/>
<polyline class="st10" points="329.9,295.3 329.9,328.5 43.9,328.5 43.9,295.3 "/>
<line class="st10" x1="99" y1="239.1" x2="275.5" y2="239.1"/>
<g>
	<g>
		<path class="st11" d="M104,318.5c-0.7,0-1.3-0.1-1.8-0.4c-0.5-0.3-1-0.6-1.4-1.1c-0.4-0.4-0.7-0.9-0.9-1.5
			c-0.2-0.6-0.3-1.1-0.3-1.7c0-0.6,0.1-1.2,0.3-1.8c0.2-0.6,0.5-1.1,0.9-1.5c0.4-0.4,0.9-0.8,1.4-1c0.5-0.3,1.1-0.4,1.8-0.4
			c0.7,0,1.3,0.1,1.8,0.4c0.5,0.3,1,0.6,1.4,1.1c0.4,0.4,0.7,0.9,0.9,1.5c0.2,0.6,0.3,1.1,0.3,1.7c0,0.6-0.1,1.2-0.3,1.8
			c-0.2,0.6-0.5,1.1-0.9,1.5s-0.9,0.8-1.4,1C105.2,318.3,104.6,318.5,104,318.5z M101,313.8c0,0.4,0.1,0.9,0.2,1.3
			c0.1,0.4,0.3,0.8,0.6,1.1c0.3,0.3,0.6,0.6,0.9,0.7c0.4,0.2,0.8,0.3,1.2,0.3c0.5,0,0.9-0.1,1.2-0.3c0.4-0.2,0.7-0.5,0.9-0.8
			c0.3-0.3,0.4-0.7,0.6-1.1c0.1-0.4,0.2-0.8,0.2-1.2c0-0.4-0.1-0.9-0.2-1.3s-0.3-0.8-0.6-1.1c-0.3-0.3-0.6-0.6-0.9-0.7
			c-0.4-0.2-0.8-0.3-1.2-0.3c-0.5,0-0.9,0.1-1.2,0.3c-0.4,0.2-0.7,0.4-0.9,0.8c-0.3,0.3-0.4,0.7-0.6,1.1
			C101.1,313,101,313.4,101,313.8z"/>
		<path class="st11" d="M113.6,318.5c-0.5,0-1-0.1-1.4-0.4c-0.4-0.3-0.7-0.6-1-1v4h-1.4v-9.6h1.3v1.2c0.3-0.4,0.6-0.7,1-1
			c0.4-0.2,0.9-0.4,1.4-0.4c0.5,0,0.9,0.1,1.3,0.3s0.7,0.4,1,0.8c0.3,0.3,0.5,0.7,0.7,1.1c0.2,0.4,0.2,0.9,0.2,1.3
			c0,0.5-0.1,1-0.2,1.4c-0.1,0.4-0.4,0.8-0.6,1.1c-0.3,0.3-0.6,0.6-1,0.8C114.4,318.4,114,318.5,113.6,318.5z M113.1,317.3
			c0.3,0,0.6-0.1,0.8-0.2s0.5-0.3,0.6-0.5c0.2-0.2,0.3-0.5,0.4-0.7c0.1-0.3,0.1-0.6,0.1-0.9c0-0.3-0.1-0.6-0.2-0.9s-0.3-0.5-0.4-0.7
			c-0.2-0.2-0.4-0.4-0.7-0.5c-0.3-0.1-0.5-0.2-0.8-0.2c-0.2,0-0.4,0-0.6,0.1c-0.2,0.1-0.4,0.2-0.6,0.3c-0.2,0.1-0.3,0.3-0.5,0.4
			s-0.2,0.3-0.3,0.5v1.8c0.1,0.2,0.2,0.4,0.3,0.6s0.3,0.3,0.5,0.5s0.4,0.2,0.6,0.3C112.7,317.3,112.9,317.3,113.1,317.3z"/>
		<path class="st11" d="M121,318.5c-0.5,0-1-0.1-1.4-0.3c-0.4-0.2-0.8-0.4-1.1-0.8s-0.5-0.7-0.7-1.1s-0.3-0.9-0.3-1.4
			s0.1-0.9,0.3-1.4c0.2-0.4,0.4-0.8,0.7-1.1c0.3-0.3,0.7-0.6,1.1-0.8c0.4-0.2,0.9-0.3,1.5-0.3c0.5,0,1,0.1,1.4,0.3
			c0.4,0.2,0.8,0.4,1.1,0.8c0.3,0.3,0.5,0.7,0.7,1.1c0.2,0.4,0.2,0.9,0.2,1.3c0,0.1,0,0.2,0,0.3c0,0.1,0,0.2,0,0.2H119
			c0,0.3,0.1,0.6,0.2,0.8c0.1,0.2,0.3,0.5,0.5,0.6s0.4,0.3,0.6,0.4c0.2,0.1,0.5,0.1,0.7,0.1c0.2,0,0.4,0,0.6-0.1
			c0.2,0,0.4-0.1,0.5-0.2c0.2-0.1,0.3-0.2,0.4-0.3c0.1-0.1,0.2-0.3,0.3-0.4l1.2,0.4c-0.2,0.5-0.6,0.9-1.2,1.3
			C122.3,318.4,121.7,318.5,121,318.5z M123,314.5c0-0.3-0.1-0.6-0.2-0.8c-0.1-0.2-0.3-0.4-0.4-0.6c-0.2-0.2-0.4-0.3-0.6-0.4
			c-0.2-0.1-0.5-0.1-0.8-0.1s-0.5,0-0.8,0.1c-0.2,0.1-0.4,0.2-0.6,0.4c-0.2,0.2-0.3,0.4-0.4,0.6c-0.1,0.2-0.2,0.5-0.2,0.8H123z"/>
		<path class="st11" d="M131.7,318.4h-1.4v-3.8c0-0.6-0.1-1.1-0.3-1.4c-0.2-0.3-0.5-0.4-0.9-0.4c-0.2,0-0.4,0-0.6,0.1
			s-0.4,0.2-0.6,0.3c-0.2,0.1-0.3,0.3-0.5,0.5c-0.1,0.2-0.3,0.4-0.3,0.6v4h-1.4v-6.8h1.3v1.4c0.3-0.5,0.6-0.8,1.1-1.1s1-0.4,1.6-0.4
			c0.4,0,0.7,0.1,1,0.2c0.3,0.1,0.5,0.3,0.6,0.6s0.3,0.6,0.3,0.9c0.1,0.3,0.1,0.7,0.1,1.1V318.4z"/>
		<path class="st11" d="M133.4,310.5v-1.6h1.4v1.6H133.4z M133.4,318.4v-6.8h1.4v6.8H133.4z"/>
		<path class="st11" d="M142.6,318.4h-1.4v-3.8c0-0.6-0.1-1.1-0.3-1.4c-0.2-0.3-0.5-0.4-0.9-0.4c-0.2,0-0.4,0-0.6,0.1
			s-0.4,0.2-0.6,0.3c-0.2,0.1-0.3,0.3-0.5,0.5c-0.1,0.2-0.3,0.4-0.3,0.6v4h-1.4v-6.8h1.3v1.4c0.3-0.5,0.6-0.8,1.1-1.1s1-0.4,1.6-0.4
			c0.4,0,0.7,0.1,1,0.2c0.3,0.1,0.5,0.3,0.6,0.6s0.3,0.6,0.3,0.9c0.1,0.3,0.1,0.7,0.1,1.1V318.4z"/>
		<path class="st11" d="M147,318.5c-0.5,0-0.9-0.1-1.3-0.3s-0.7-0.4-1-0.8c-0.3-0.3-0.5-0.7-0.6-1.1c-0.2-0.4-0.2-0.9-0.2-1.3
			c0-0.5,0.1-0.9,0.2-1.4c0.2-0.4,0.4-0.8,0.7-1.1c0.3-0.3,0.6-0.6,1-0.8s0.8-0.3,1.3-0.3c0.5,0,1,0.1,1.4,0.4s0.8,0.6,1,1v-1.3h1.3
			v6.6c0,0.5-0.1,0.9-0.3,1.3c-0.2,0.4-0.4,0.7-0.8,1c-0.3,0.3-0.7,0.5-1.2,0.6c-0.4,0.1-0.9,0.2-1.4,0.2c-0.8,0-1.4-0.1-1.9-0.4
			c-0.5-0.3-0.9-0.6-1.3-1.1l0.8-0.8c0.3,0.4,0.6,0.6,1,0.8c0.4,0.2,0.9,0.3,1.3,0.3c0.3,0,0.6,0,0.8-0.1c0.3-0.1,0.5-0.2,0.7-0.4
			c0.2-0.2,0.4-0.4,0.5-0.6c0.1-0.3,0.2-0.6,0.2-0.9v-1c-0.2,0.4-0.6,0.7-1,1C147.9,318.4,147.5,318.5,147,318.5z M147.5,317.3
			c0.2,0,0.4,0,0.6-0.1c0.2-0.1,0.4-0.2,0.6-0.3c0.2-0.1,0.3-0.3,0.4-0.4s0.2-0.3,0.3-0.5v-1.8c-0.1-0.2-0.2-0.4-0.3-0.6
			s-0.3-0.3-0.5-0.5c-0.2-0.1-0.4-0.2-0.6-0.3c-0.2-0.1-0.4-0.1-0.6-0.1c-0.3,0-0.6,0.1-0.8,0.2c-0.2,0.1-0.5,0.3-0.6,0.5
			c-0.2,0.2-0.3,0.5-0.4,0.7c-0.1,0.3-0.1,0.6-0.1,0.9c0,0.3,0.1,0.6,0.2,0.9c0.1,0.3,0.3,0.5,0.4,0.7c0.2,0.2,0.4,0.4,0.7,0.5
			C146.9,317.2,147.2,317.3,147.5,317.3z"/>
		<path class="st11" d="M159.6,318.5c-0.5,0-1-0.1-1.4-0.4c-0.4-0.3-0.7-0.6-1-1v4h-1.4v-9.6h1.3v1.2c0.3-0.4,0.6-0.7,1-1
			c0.4-0.2,0.9-0.4,1.4-0.4c0.5,0,0.9,0.1,1.3,0.3s0.7,0.4,1,0.8c0.3,0.3,0.5,0.7,0.7,1.1c0.2,0.4,0.2,0.9,0.2,1.3
			c0,0.5-0.1,1-0.2,1.4c-0.1,0.4-0.4,0.8-0.6,1.1c-0.3,0.3-0.6,0.6-1,0.8C160.4,318.4,160,318.5,159.6,318.5z M159.1,317.3
			c0.3,0,0.6-0.1,0.8-0.2s0.5-0.3,0.6-0.5c0.2-0.2,0.3-0.5,0.4-0.7c0.1-0.3,0.1-0.6,0.1-0.9c0-0.3-0.1-0.6-0.2-0.9s-0.3-0.5-0.4-0.7
			c-0.2-0.2-0.4-0.4-0.7-0.5c-0.3-0.1-0.5-0.2-0.8-0.2c-0.2,0-0.4,0-0.6,0.1c-0.2,0.1-0.4,0.2-0.6,0.3c-0.2,0.1-0.3,0.3-0.5,0.4
			s-0.2,0.3-0.3,0.5v1.8c0.1,0.2,0.2,0.4,0.3,0.6s0.3,0.3,0.5,0.5s0.4,0.2,0.6,0.3C158.7,317.3,158.9,317.3,159.1,317.3z"/>
		<path class="st11" d="M165.7,318.5c-0.3,0-0.6-0.1-0.9-0.2c-0.3-0.1-0.5-0.3-0.7-0.4c-0.2-0.2-0.4-0.4-0.5-0.7s-0.2-0.5-0.2-0.8
			c0-0.3,0.1-0.6,0.2-0.9s0.3-0.5,0.6-0.7c0.3-0.2,0.6-0.3,0.9-0.4c0.4-0.1,0.7-0.2,1.2-0.2c0.3,0,0.6,0,0.9,0.1s0.6,0.1,0.8,0.2
			v-0.5c0-0.5-0.1-0.9-0.4-1.2c-0.3-0.3-0.7-0.4-1.2-0.4c-0.4,0-0.7,0.1-1.1,0.2c-0.4,0.1-0.7,0.3-1.1,0.6l-0.4-0.9
			c0.9-0.6,1.8-0.9,2.7-0.9c0.9,0,1.7,0.2,2.2,0.7s0.8,1.2,0.8,2.1v2.5c0,0.3,0.1,0.5,0.4,0.5v1.2c-0.1,0-0.3,0-0.4,0.1
			s-0.2,0-0.3,0c-0.3,0-0.5-0.1-0.6-0.2c-0.2-0.1-0.2-0.3-0.3-0.5l0-0.4c-0.3,0.4-0.7,0.7-1.1,0.9
			C166.7,318.4,166.2,318.5,165.7,318.5z M166.1,317.5c0.3,0,0.7-0.1,1-0.2c0.3-0.1,0.5-0.3,0.7-0.5c0.2-0.2,0.3-0.3,0.3-0.5v-0.9
			c-0.2-0.1-0.5-0.2-0.8-0.2s-0.5-0.1-0.8-0.1c-0.5,0-0.9,0.1-1.3,0.3c-0.3,0.2-0.5,0.5-0.5,0.9c0,0.3,0.1,0.6,0.4,0.9
			S165.7,317.5,166.1,317.5z"/>
		<path class="st11" d="M171.3,320c0.1,0,0.3,0,0.4,0.1c0.1,0,0.2,0,0.3,0c0.1,0,0.2,0,0.3-0.1c0.1,0,0.2-0.1,0.3-0.3
			c0.1-0.1,0.2-0.3,0.3-0.5c0.1-0.2,0.2-0.5,0.3-0.9l-2.8-6.8h1.5l2.1,5.5l1.9-5.5h1.4L174,320c-0.1,0.4-0.4,0.7-0.7,1
			c-0.3,0.3-0.8,0.4-1.3,0.4c-0.1,0-0.2,0-0.3,0c-0.1,0-0.2,0-0.4-0.1V320z"/>
		<path class="st11" d="M188.5,318.4h-1.4v-3.8c0-0.6-0.1-1.1-0.3-1.4s-0.5-0.4-0.9-0.4c-0.4,0-0.8,0.1-1.1,0.4
			c-0.3,0.3-0.6,0.7-0.7,1.2v4h-1.4v-3.8c0-0.6-0.1-1.1-0.3-1.4c-0.2-0.3-0.5-0.4-0.9-0.4c-0.4,0-0.8,0.1-1.1,0.4s-0.6,0.7-0.7,1.2
			v4h-1.4v-6.8h1.3v1.4c0.3-0.5,0.6-0.8,1.1-1.1c0.4-0.3,0.9-0.4,1.5-0.4c0.6,0,1,0.1,1.3,0.4c0.3,0.3,0.5,0.7,0.6,1.1
			c0.3-0.5,0.6-0.9,1.1-1.2c0.4-0.3,0.9-0.4,1.5-0.4c0.4,0,0.7,0.1,1,0.2s0.5,0.4,0.6,0.6c0.2,0.3,0.3,0.5,0.3,0.9
			c0.1,0.3,0.1,0.7,0.1,1.1V318.4z"/>
		<path class="st11" d="M193.3,318.5c-0.5,0-1-0.1-1.4-0.3c-0.4-0.2-0.8-0.4-1.1-0.8s-0.5-0.7-0.7-1.1s-0.3-0.9-0.3-1.4
			s0.1-0.9,0.3-1.4c0.2-0.4,0.4-0.8,0.7-1.1c0.3-0.3,0.7-0.6,1.1-0.8c0.4-0.2,0.9-0.3,1.5-0.3c0.5,0,1,0.1,1.4,0.3
			c0.4,0.2,0.8,0.4,1.1,0.8c0.3,0.3,0.5,0.7,0.7,1.1c0.2,0.4,0.2,0.9,0.2,1.3c0,0.1,0,0.2,0,0.3c0,0.1,0,0.2,0,0.2h-5.4
			c0,0.3,0.1,0.6,0.2,0.8c0.1,0.2,0.3,0.5,0.5,0.6s0.4,0.3,0.6,0.4c0.2,0.1,0.5,0.1,0.7,0.1c0.2,0,0.4,0,0.6-0.1
			c0.2,0,0.4-0.1,0.5-0.2c0.2-0.1,0.3-0.2,0.4-0.3c0.1-0.1,0.2-0.3,0.3-0.4l1.2,0.4c-0.2,0.5-0.6,0.9-1.2,1.3
			C194.6,318.4,194,318.5,193.3,318.5z M195.3,314.5c0-0.3-0.1-0.6-0.2-0.8c-0.1-0.2-0.3-0.4-0.4-0.6c-0.2-0.2-0.4-0.3-0.6-0.4
			c-0.2-0.1-0.5-0.1-0.8-0.1s-0.5,0-0.8,0.1c-0.2,0.1-0.4,0.2-0.6,0.4c-0.2,0.2-0.3,0.4-0.4,0.6c-0.1,0.2-0.2,0.5-0.2,0.8H195.3z"/>
		<path class="st11" d="M204,318.4h-1.4v-3.8c0-0.6-0.1-1.1-0.3-1.4c-0.2-0.3-0.5-0.4-0.9-0.4c-0.2,0-0.4,0-0.6,0.1
			s-0.4,0.2-0.6,0.3c-0.2,0.1-0.3,0.3-0.5,0.5c-0.1,0.2-0.3,0.4-0.3,0.6v4h-1.4v-6.8h1.3v1.4c0.3-0.5,0.6-0.8,1.1-1.1s1-0.4,1.6-0.4
			c0.4,0,0.7,0.1,1,0.2c0.3,0.1,0.5,0.3,0.6,0.6s0.3,0.6,0.3,0.9c0.1,0.3,0.1,0.7,0.1,1.1V318.4z"/>
		<path class="st11" d="M209.4,318c-0.2,0.1-0.4,0.2-0.8,0.3c-0.3,0.1-0.7,0.2-1,0.2c-0.2,0-0.4,0-0.6-0.1c-0.2-0.1-0.4-0.2-0.5-0.3
			c-0.2-0.1-0.3-0.3-0.4-0.5c-0.1-0.2-0.1-0.4-0.1-0.7v-4.3h-0.9v-1.1h0.9v-2.2h1.4v2.2h1.5v1.1h-1.5v3.8c0,0.2,0.1,0.4,0.2,0.5
			c0.1,0.1,0.3,0.2,0.5,0.2c0.2,0,0.4,0,0.6-0.1s0.3-0.1,0.4-0.2L209.4,318z"/>
		<path class="st11" d="M213.1,315c0-0.5,0.1-0.9,0.2-1.4c0.2-0.4,0.4-0.8,0.7-1.1s0.7-0.6,1.1-0.8s0.9-0.3,1.5-0.3
			c0.7,0,1.3,0.2,1.8,0.5s0.9,0.7,1.1,1.2l-1.4,0.4c-0.2-0.3-0.4-0.5-0.7-0.7c-0.3-0.2-0.6-0.2-0.9-0.2c-0.3,0-0.6,0.1-0.8,0.2
			c-0.2,0.1-0.5,0.3-0.6,0.5c-0.2,0.2-0.3,0.4-0.4,0.7s-0.2,0.6-0.2,0.9c0,0.3,0.1,0.6,0.2,0.9c0.1,0.3,0.3,0.5,0.4,0.7
			c0.2,0.2,0.4,0.4,0.7,0.5s0.5,0.2,0.8,0.2c0.2,0,0.3,0,0.5-0.1c0.2,0,0.3-0.1,0.5-0.2s0.3-0.2,0.4-0.3s0.2-0.2,0.2-0.4l1.4,0.4
			c-0.2,0.5-0.6,0.9-1.1,1.3c-0.5,0.3-1.2,0.5-1.9,0.5c-0.5,0-1-0.1-1.4-0.3c-0.4-0.2-0.8-0.4-1.1-0.8s-0.5-0.7-0.7-1.1
			C213.2,315.9,213.1,315.5,213.1,315z"/>
		<path class="st11" d="M227,318.4h-1.4v-3.8c0-0.6-0.1-1.1-0.3-1.4c-0.2-0.3-0.5-0.4-1-0.4c-0.2,0-0.4,0-0.6,0.1
			c-0.2,0.1-0.4,0.2-0.6,0.3c-0.2,0.1-0.3,0.3-0.5,0.5c-0.1,0.2-0.2,0.4-0.3,0.6v4h-1.4v-9.5h1.4v4.1c0.3-0.5,0.6-0.8,1.1-1.1
			c0.4-0.3,0.9-0.4,1.5-0.4c0.4,0,0.8,0.1,1,0.2s0.5,0.4,0.7,0.6c0.2,0.3,0.3,0.5,0.3,0.9c0.1,0.3,0.1,0.7,0.1,1.1V318.4z"/>
		<path class="st11" d="M230.4,318.5c-0.3,0-0.6-0.1-0.9-0.2c-0.3-0.1-0.5-0.3-0.7-0.4c-0.2-0.2-0.4-0.4-0.5-0.7s-0.2-0.5-0.2-0.8
			c0-0.3,0.1-0.6,0.2-0.9s0.3-0.5,0.6-0.7c0.3-0.2,0.6-0.3,0.9-0.4c0.4-0.1,0.7-0.2,1.2-0.2c0.3,0,0.6,0,0.9,0.1s0.6,0.1,0.8,0.2
			v-0.5c0-0.5-0.1-0.9-0.4-1.2c-0.3-0.3-0.7-0.4-1.2-0.4c-0.4,0-0.7,0.1-1.1,0.2c-0.4,0.1-0.7,0.3-1.1,0.6l-0.4-0.9
			c0.9-0.6,1.8-0.9,2.7-0.9c0.9,0,1.7,0.2,2.2,0.7s0.8,1.2,0.8,2.1v2.5c0,0.3,0.1,0.5,0.4,0.5v1.2c-0.1,0-0.3,0-0.4,0.1
			s-0.2,0-0.3,0c-0.3,0-0.5-0.1-0.6-0.2c-0.2-0.1-0.2-0.3-0.3-0.5l0-0.4c-0.3,0.4-0.7,0.7-1.1,0.9
			C231.4,318.4,230.9,318.5,230.4,318.5z M230.8,317.5c0.3,0,0.7-0.1,1-0.2c0.3-0.1,0.5-0.3,0.7-0.5c0.2-0.2,0.3-0.3,0.3-0.5v-0.9
			c-0.2-0.1-0.5-0.2-0.8-0.2s-0.5-0.1-0.8-0.1c-0.5,0-0.9,0.1-1.3,0.3c-0.3,0.2-0.5,0.5-0.5,0.9c0,0.3,0.1,0.6,0.4,0.9
			S230.4,317.5,230.8,317.5z"/>
		<path class="st11" d="M242,318.4h-1.4v-3.8c0-0.6-0.1-1.1-0.3-1.4c-0.2-0.3-0.5-0.4-0.9-0.4c-0.2,0-0.4,0-0.6,0.1
			s-0.4,0.2-0.6,0.3c-0.2,0.1-0.3,0.3-0.5,0.5c-0.1,0.2-0.3,0.4-0.3,0.6v4H236v-6.8h1.3v1.4c0.3-0.5,0.6-0.8,1.1-1.1s1-0.4,1.6-0.4
			c0.4,0,0.7,0.1,1,0.2c0.3,0.1,0.5,0.3,0.6,0.6s0.3,0.6,0.3,0.9c0.1,0.3,0.1,0.7,0.1,1.1V318.4z"/>
		<path class="st11" d="M249.8,318.4h-1.4v-3.8c0-0.6-0.1-1.1-0.3-1.4c-0.2-0.3-0.5-0.4-0.9-0.4c-0.2,0-0.4,0-0.6,0.1
			s-0.4,0.2-0.6,0.3c-0.2,0.1-0.3,0.3-0.5,0.5c-0.1,0.2-0.3,0.4-0.3,0.6v4h-1.4v-6.8h1.3v1.4c0.3-0.5,0.6-0.8,1.1-1.1s1-0.4,1.6-0.4
			c0.4,0,0.7,0.1,1,0.2c0.3,0.1,0.5,0.3,0.6,0.6s0.3,0.6,0.3,0.9c0.1,0.3,0.1,0.7,0.1,1.1V318.4z"/>
		<path class="st11" d="M254.6,318.5c-0.5,0-1-0.1-1.4-0.3c-0.4-0.2-0.8-0.4-1.1-0.8s-0.5-0.7-0.7-1.1s-0.3-0.9-0.3-1.4
			s0.1-0.9,0.3-1.4c0.2-0.4,0.4-0.8,0.7-1.1c0.3-0.3,0.7-0.6,1.1-0.8c0.4-0.2,0.9-0.3,1.5-0.3c0.5,0,1,0.1,1.4,0.3
			c0.4,0.2,0.8,0.4,1.1,0.8c0.3,0.3,0.5,0.7,0.7,1.1c0.2,0.4,0.2,0.9,0.2,1.3c0,0.1,0,0.2,0,0.3c0,0.1,0,0.2,0,0.2h-5.4
			c0,0.3,0.1,0.6,0.2,0.8c0.1,0.2,0.3,0.5,0.5,0.6s0.4,0.3,0.6,0.4c0.2,0.1,0.5,0.1,0.7,0.1c0.2,0,0.4,0,0.6-0.1
			c0.2,0,0.4-0.1,0.5-0.2c0.2-0.1,0.3-0.2,0.4-0.3c0.1-0.1,0.2-0.3,0.3-0.4l1.2,0.4c-0.2,0.5-0.6,0.9-1.2,1.3
			C255.9,318.4,255.3,318.5,254.6,318.5z M256.6,314.5c0-0.3-0.1-0.6-0.2-0.8c-0.1-0.2-0.3-0.4-0.4-0.6c-0.2-0.2-0.4-0.3-0.6-0.4
			c-0.2-0.1-0.5-0.1-0.8-0.1s-0.5,0-0.8,0.1c-0.2,0.1-0.4,0.2-0.6,0.4c-0.2,0.2-0.3,0.4-0.4,0.6c-0.1,0.2-0.2,0.5-0.2,0.8H256.6z"/>
		<path class="st11" d="M259.2,308.9h1.4v7.5c0,0.3,0.1,0.4,0.2,0.6c0.1,0.1,0.3,0.2,0.5,0.2c0.1,0,0.2,0,0.3-0.1
			c0.1,0,0.2-0.1,0.4-0.1l0.2,1.1c-0.2,0.1-0.5,0.2-0.7,0.2c-0.3,0.1-0.5,0.1-0.8,0.1c-0.5,0-0.9-0.1-1.2-0.4
			c-0.3-0.3-0.4-0.7-0.4-1.1V308.9z"/>
	</g>
</g>
<g>
	<g>
		<path class="st11" d="M109.9,253.7c0-0.6,0.1-1.1,0.3-1.7c0.2-0.5,0.5-1,0.9-1.5s0.9-0.8,1.4-1.1s1.2-0.4,1.9-0.4
			c0.8,0,1.6,0.2,2.2,0.6c0.6,0.4,1,0.9,1.4,1.5l-1.1,0.8c-0.1-0.3-0.3-0.5-0.5-0.7c-0.2-0.2-0.4-0.3-0.6-0.5
			c-0.2-0.1-0.4-0.2-0.7-0.2c-0.2,0-0.5-0.1-0.7-0.1c-0.5,0-0.9,0.1-1.3,0.3c-0.4,0.2-0.7,0.5-0.9,0.8c-0.2,0.3-0.4,0.7-0.6,1.1
			s-0.2,0.8-0.2,1.2c0,0.5,0.1,0.9,0.2,1.3c0.1,0.4,0.4,0.8,0.6,1.1c0.3,0.3,0.6,0.6,0.9,0.7c0.4,0.2,0.8,0.3,1.2,0.3
			c0.2,0,0.5,0,0.7-0.1c0.2-0.1,0.5-0.1,0.7-0.3c0.2-0.1,0.4-0.3,0.6-0.5c0.2-0.2,0.3-0.4,0.5-0.7l1.2,0.7c-0.1,0.3-0.4,0.7-0.6,0.9
			c-0.3,0.3-0.6,0.5-0.9,0.7c-0.3,0.2-0.7,0.3-1.1,0.4c-0.4,0.1-0.7,0.1-1.1,0.1c-0.6,0-1.2-0.1-1.8-0.4c-0.5-0.3-1-0.6-1.4-1.1
			s-0.7-1-0.9-1.5C110,254.9,109.9,254.3,109.9,253.7z"/>
		<path class="st11" d="M119.2,248.9h1.4v7.5c0,0.3,0.1,0.4,0.2,0.6c0.1,0.1,0.3,0.2,0.5,0.2c0.1,0,0.2,0,0.3-0.1
			c0.1,0,0.2-0.1,0.4-0.1l0.2,1.1c-0.2,0.1-0.5,0.2-0.7,0.2c-0.3,0.1-0.5,0.1-0.8,0.1c-0.5,0-0.9-0.1-1.2-0.4
			c-0.3-0.3-0.4-0.7-0.4-1.1V248.9z"/>
		<path class="st11" d="M126.2,258.5c-0.5,0-1-0.1-1.4-0.3c-0.4-0.2-0.8-0.4-1.1-0.8c-0.3-0.3-0.5-0.7-0.7-1.1
			c-0.2-0.4-0.2-0.9-0.2-1.3c0-0.5,0.1-0.9,0.2-1.3c0.2-0.4,0.4-0.8,0.7-1.1s0.7-0.6,1.1-0.8c0.4-0.2,0.9-0.3,1.4-0.3
			c0.5,0,1,0.1,1.4,0.3c0.4,0.2,0.8,0.4,1.1,0.8s0.5,0.7,0.7,1.1c0.2,0.4,0.2,0.9,0.2,1.3c0,0.5-0.1,0.9-0.2,1.3
			c-0.2,0.4-0.4,0.8-0.7,1.1c-0.3,0.3-0.7,0.6-1.1,0.8C127.2,258.4,126.7,258.5,126.2,258.5z M124.1,255c0,0.3,0.1,0.6,0.2,0.9
			c0.1,0.3,0.2,0.5,0.4,0.7c0.2,0.2,0.4,0.4,0.6,0.5c0.2,0.1,0.5,0.2,0.8,0.2s0.6-0.1,0.8-0.2s0.5-0.3,0.6-0.5s0.3-0.5,0.4-0.7
			s0.2-0.6,0.2-0.9c0-0.3-0.1-0.6-0.2-0.9c-0.1-0.3-0.2-0.5-0.4-0.7s-0.4-0.4-0.6-0.5s-0.5-0.2-0.8-0.2c-0.3,0-0.5,0.1-0.8,0.2
			c-0.2,0.1-0.5,0.3-0.6,0.5s-0.3,0.5-0.4,0.7C124.2,254.4,124.1,254.7,124.1,255z"/>
		<path class="st11" d="M133.4,258.5c-0.5,0-1.1-0.1-1.6-0.3s-1-0.4-1.4-0.8l0.6-0.9c0.4,0.3,0.8,0.5,1.2,0.7
			c0.4,0.2,0.8,0.2,1.2,0.2c0.4,0,0.8-0.1,1-0.2c0.2-0.2,0.4-0.4,0.4-0.7c0-0.3-0.1-0.5-0.4-0.6c-0.3-0.1-0.7-0.3-1.3-0.4
			c-0.4-0.1-0.8-0.2-1.1-0.3c-0.3-0.1-0.6-0.2-0.7-0.4s-0.3-0.3-0.4-0.5c-0.1-0.2-0.1-0.4-0.1-0.7c0-0.3,0.1-0.7,0.2-0.9
			c0.1-0.3,0.3-0.5,0.6-0.7c0.2-0.2,0.5-0.3,0.8-0.4c0.3-0.1,0.7-0.1,1-0.1c0.5,0,1,0.1,1.4,0.2c0.4,0.2,0.8,0.4,1.2,0.7l-0.6,0.9
			c-0.6-0.5-1.3-0.8-2-0.8c-0.4,0-0.7,0.1-0.9,0.2s-0.4,0.4-0.4,0.7c0,0.1,0,0.3,0.1,0.4c0.1,0.1,0.1,0.2,0.3,0.2
			c0.1,0.1,0.3,0.1,0.5,0.2c0.2,0.1,0.4,0.1,0.7,0.2c0.5,0.1,0.9,0.2,1.2,0.3c0.3,0.1,0.6,0.2,0.8,0.4c0.2,0.2,0.4,0.3,0.5,0.5
			c0.1,0.2,0.2,0.4,0.2,0.7c0,0.7-0.2,1.2-0.7,1.5C134.9,258.3,134.2,258.5,133.4,258.5z"/>
		<path class="st11" d="M137.4,250.5v-1.6h1.4v1.6H137.4z M137.4,258.4v-6.8h1.4v6.8H137.4z"/>
		<path class="st11" d="M146.6,258.4h-1.4v-3.8c0-0.6-0.1-1.1-0.3-1.4c-0.2-0.3-0.5-0.4-0.9-0.4c-0.2,0-0.4,0-0.6,0.1
			s-0.4,0.2-0.6,0.3c-0.2,0.1-0.3,0.3-0.5,0.5c-0.1,0.2-0.3,0.4-0.3,0.6v4h-1.4v-6.8h1.3v1.4c0.3-0.5,0.6-0.8,1.1-1.1s1-0.4,1.6-0.4
			c0.4,0,0.7,0.1,1,0.2c0.3,0.1,0.5,0.3,0.6,0.6s0.3,0.6,0.3,0.9c0.1,0.3,0.1,0.7,0.1,1.1V258.4z"/>
		<path class="st11" d="M151,258.5c-0.5,0-0.9-0.1-1.3-0.3s-0.7-0.4-1-0.8c-0.3-0.3-0.5-0.7-0.6-1.1c-0.2-0.4-0.2-0.9-0.2-1.3
			c0-0.5,0.1-0.9,0.2-1.4c0.2-0.4,0.4-0.8,0.7-1.1c0.3-0.3,0.6-0.6,1-0.8s0.8-0.3,1.3-0.3c0.5,0,1,0.1,1.4,0.4s0.8,0.6,1,1v-1.3h1.3
			v6.6c0,0.5-0.1,0.9-0.3,1.3c-0.2,0.4-0.4,0.7-0.8,1c-0.3,0.3-0.7,0.5-1.2,0.6c-0.4,0.1-0.9,0.2-1.4,0.2c-0.8,0-1.4-0.1-1.9-0.4
			c-0.5-0.3-0.9-0.6-1.3-1.1l0.8-0.8c0.3,0.4,0.6,0.6,1,0.8c0.4,0.2,0.9,0.3,1.3,0.3c0.3,0,0.6,0,0.8-0.1c0.3-0.1,0.5-0.2,0.7-0.4
			c0.2-0.2,0.4-0.4,0.5-0.6c0.1-0.3,0.2-0.6,0.2-0.9v-1c-0.2,0.4-0.6,0.7-1,1C151.9,258.4,151.4,258.5,151,258.5z M151.4,257.3
			c0.2,0,0.4,0,0.6-0.1c0.2-0.1,0.4-0.2,0.6-0.3c0.2-0.1,0.3-0.3,0.4-0.4s0.2-0.3,0.3-0.5v-1.8c-0.1-0.2-0.2-0.4-0.3-0.6
			s-0.3-0.3-0.5-0.5c-0.2-0.1-0.4-0.2-0.6-0.3c-0.2-0.1-0.4-0.1-0.6-0.1c-0.3,0-0.6,0.1-0.8,0.2c-0.2,0.1-0.5,0.3-0.6,0.5
			c-0.2,0.2-0.3,0.5-0.4,0.7c-0.1,0.3-0.1,0.6-0.1,0.9c0,0.3,0.1,0.6,0.2,0.9c0.1,0.3,0.3,0.5,0.4,0.7c0.2,0.2,0.4,0.4,0.7,0.5
			C150.9,257.2,151.1,257.3,151.4,257.3z"/>
		<path class="st11" d="M163.5,258.5c-0.5,0-1-0.1-1.4-0.4c-0.4-0.3-0.7-0.6-1-1v4h-1.4v-9.6h1.3v1.2c0.3-0.4,0.6-0.7,1-1
			c0.4-0.2,0.9-0.4,1.4-0.4c0.5,0,0.9,0.1,1.3,0.3s0.7,0.4,1,0.8c0.3,0.3,0.5,0.7,0.7,1.1c0.2,0.4,0.2,0.9,0.2,1.3
			c0,0.5-0.1,1-0.2,1.4c-0.1,0.4-0.4,0.8-0.6,1.1c-0.3,0.3-0.6,0.6-1,0.8C164.4,258.4,164,258.5,163.5,258.5z M163.1,257.3
			c0.3,0,0.6-0.1,0.8-0.2s0.5-0.3,0.6-0.5c0.2-0.2,0.3-0.5,0.4-0.7c0.1-0.3,0.1-0.6,0.1-0.9c0-0.3-0.1-0.6-0.2-0.9s-0.3-0.5-0.4-0.7
			c-0.2-0.2-0.4-0.4-0.7-0.5c-0.3-0.1-0.5-0.2-0.8-0.2c-0.2,0-0.4,0-0.6,0.1c-0.2,0.1-0.4,0.2-0.6,0.3c-0.2,0.1-0.3,0.3-0.5,0.4
			s-0.2,0.3-0.3,0.5v1.8c0.1,0.2,0.2,0.4,0.3,0.6s0.3,0.3,0.5,0.5s0.4,0.2,0.6,0.3C162.7,257.3,162.9,257.3,163.1,257.3z"/>
		<path class="st11" d="M169.6,258.5c-0.3,0-0.6-0.1-0.9-0.2c-0.3-0.1-0.5-0.3-0.7-0.4c-0.2-0.2-0.4-0.4-0.5-0.7s-0.2-0.5-0.2-0.8
			c0-0.3,0.1-0.6,0.2-0.9s0.3-0.5,0.6-0.7c0.3-0.2,0.6-0.3,0.9-0.4c0.4-0.1,0.7-0.2,1.2-0.2c0.3,0,0.6,0,0.9,0.1s0.6,0.1,0.8,0.2
			v-0.5c0-0.5-0.1-0.9-0.4-1.2c-0.3-0.3-0.7-0.4-1.2-0.4c-0.4,0-0.7,0.1-1.1,0.2c-0.4,0.1-0.7,0.3-1.1,0.6l-0.4-0.9
			c0.9-0.6,1.8-0.9,2.7-0.9c0.9,0,1.7,0.2,2.2,0.7s0.8,1.2,0.8,2.1v2.5c0,0.3,0.1,0.5,0.4,0.5v1.2c-0.1,0-0.3,0-0.4,0.1
			s-0.2,0-0.3,0c-0.3,0-0.5-0.1-0.6-0.2c-0.2-0.1-0.2-0.3-0.3-0.5l0-0.4c-0.3,0.4-0.7,0.7-1.1,0.9
			C170.6,258.4,170.2,258.5,169.6,258.5z M170,257.5c0.3,0,0.7-0.1,1-0.2c0.3-0.1,0.5-0.3,0.7-0.5c0.2-0.2,0.3-0.3,0.3-0.5v-0.9
			c-0.2-0.1-0.5-0.2-0.8-0.2s-0.5-0.1-0.8-0.1c-0.5,0-0.9,0.1-1.3,0.3c-0.3,0.2-0.5,0.5-0.5,0.9c0,0.3,0.1,0.6,0.4,0.9
			S169.6,257.5,170,257.5z"/>
		<path class="st11" d="M175.2,260c0.1,0,0.3,0,0.4,0.1c0.1,0,0.2,0,0.3,0c0.1,0,0.2,0,0.3-0.1c0.1,0,0.2-0.1,0.3-0.3
			c0.1-0.1,0.2-0.3,0.3-0.5c0.1-0.2,0.2-0.5,0.3-0.9l-2.8-6.8h1.5l2.1,5.5l1.9-5.5h1.4L178,260c-0.1,0.4-0.4,0.7-0.7,1
			c-0.3,0.3-0.8,0.4-1.3,0.4c-0.1,0-0.2,0-0.3,0c-0.1,0-0.2,0-0.4-0.1V260z"/>
		<path class="st11" d="M192.5,258.4h-1.4v-3.8c0-0.6-0.1-1.1-0.3-1.4s-0.5-0.4-0.9-0.4c-0.4,0-0.8,0.1-1.1,0.4
			c-0.3,0.3-0.6,0.7-0.7,1.2v4h-1.4v-3.8c0-0.6-0.1-1.1-0.3-1.4c-0.2-0.3-0.5-0.4-0.9-0.4c-0.4,0-0.8,0.1-1.1,0.4s-0.6,0.7-0.7,1.2
			v4h-1.4v-6.8h1.3v1.4c0.3-0.5,0.6-0.8,1.1-1.1c0.4-0.3,0.9-0.4,1.5-0.4c0.6,0,1,0.1,1.3,0.4c0.3,0.3,0.5,0.7,0.6,1.1
			c0.3-0.5,0.6-0.9,1.1-1.2c0.4-0.3,0.9-0.4,1.5-0.4c0.4,0,0.7,0.1,1,0.2s0.5,0.4,0.6,0.6c0.2,0.3,0.3,0.5,0.3,0.9
			c0.1,0.3,0.1,0.7,0.1,1.1V258.4z"/>
		<path class="st11" d="M197.2,258.5c-0.5,0-1-0.1-1.4-0.3c-0.4-0.2-0.8-0.4-1.1-0.8s-0.5-0.7-0.7-1.1s-0.3-0.9-0.3-1.4
			s0.1-0.9,0.3-1.4c0.2-0.4,0.4-0.8,0.7-1.1c0.3-0.3,0.7-0.6,1.1-0.8c0.4-0.2,0.9-0.3,1.5-0.3c0.5,0,1,0.1,1.4,0.3
			c0.4,0.2,0.8,0.4,1.1,0.8c0.3,0.3,0.5,0.7,0.7,1.1c0.2,0.4,0.2,0.9,0.2,1.3c0,0.1,0,0.2,0,0.3c0,0.1,0,0.2,0,0.2h-5.4
			c0,0.3,0.1,0.6,0.2,0.8c0.1,0.2,0.3,0.5,0.5,0.6s0.4,0.3,0.6,0.4c0.2,0.1,0.5,0.1,0.7,0.1c0.2,0,0.4,0,0.6-0.1
			c0.2,0,0.4-0.1,0.5-0.2c0.2-0.1,0.3-0.2,0.4-0.3c0.1-0.1,0.2-0.3,0.3-0.4l1.2,0.4c-0.2,0.5-0.6,0.9-1.2,1.3
			C198.6,258.4,198,258.5,197.2,258.5z M199.3,254.5c0-0.3-0.1-0.6-0.2-0.8c-0.1-0.2-0.3-0.4-0.4-0.6c-0.2-0.2-0.4-0.3-0.6-0.4
			c-0.2-0.1-0.5-0.1-0.8-0.1s-0.5,0-0.8,0.1c-0.2,0.1-0.4,0.2-0.6,0.4c-0.2,0.2-0.3,0.4-0.4,0.6c-0.1,0.2-0.2,0.5-0.2,0.8H199.3z"/>
		<path class="st11" d="M208,258.4h-1.4v-3.8c0-0.6-0.1-1.1-0.3-1.4c-0.2-0.3-0.5-0.4-0.9-0.4c-0.2,0-0.4,0-0.6,0.1
			s-0.4,0.2-0.6,0.3c-0.2,0.1-0.3,0.3-0.5,0.5c-0.1,0.2-0.3,0.4-0.3,0.6v4h-1.4v-6.8h1.3v1.4c0.3-0.5,0.6-0.8,1.1-1.1s1-0.4,1.6-0.4
			c0.4,0,0.7,0.1,1,0.2c0.3,0.1,0.5,0.3,0.6,0.6s0.3,0.6,0.3,0.9c0.1,0.3,0.1,0.7,0.1,1.1V258.4z"/>
		<path class="st11" d="M213.4,258c-0.2,0.1-0.4,0.2-0.8,0.3c-0.3,0.1-0.7,0.2-1,0.2c-0.2,0-0.4,0-0.6-0.1c-0.2-0.1-0.4-0.2-0.5-0.3
			c-0.2-0.1-0.3-0.3-0.4-0.5c-0.1-0.2-0.1-0.4-0.1-0.7v-4.3H209v-1.1h0.9v-2.2h1.4v2.2h1.5v1.1h-1.5v3.8c0,0.2,0.1,0.4,0.2,0.5
			c0.1,0.1,0.3,0.2,0.5,0.2c0.2,0,0.4,0,0.6-0.1s0.3-0.1,0.4-0.2L213.4,258z"/>
		<path class="st11" d="M217.1,255c0-0.5,0.1-0.9,0.2-1.4c0.2-0.4,0.4-0.8,0.7-1.1s0.7-0.6,1.1-0.8s0.9-0.3,1.5-0.3
			c0.7,0,1.3,0.2,1.8,0.5s0.9,0.7,1.1,1.2l-1.4,0.4c-0.2-0.3-0.4-0.5-0.7-0.7c-0.3-0.2-0.6-0.2-0.9-0.2c-0.3,0-0.6,0.1-0.8,0.2
			c-0.2,0.1-0.5,0.3-0.6,0.5c-0.2,0.2-0.3,0.4-0.4,0.7s-0.2,0.6-0.2,0.9c0,0.3,0.1,0.6,0.2,0.9c0.1,0.3,0.3,0.5,0.4,0.7
			c0.2,0.2,0.4,0.4,0.7,0.5s0.5,0.2,0.8,0.2c0.2,0,0.3,0,0.5-0.1c0.2,0,0.3-0.1,0.5-0.2s0.3-0.2,0.4-0.3s0.2-0.2,0.2-0.4l1.4,0.4
			c-0.2,0.5-0.6,0.9-1.1,1.3c-0.5,0.3-1.2,0.5-1.9,0.5c-0.5,0-1-0.1-1.4-0.3c-0.4-0.2-0.8-0.4-1.1-0.8s-0.5-0.7-0.7-1.1
			C217.2,255.9,217.1,255.5,217.1,255z"/>
		<path class="st11" d="M230.9,258.4h-1.4v-3.8c0-0.6-0.1-1.1-0.3-1.4c-0.2-0.3-0.5-0.4-1-0.4c-0.2,0-0.4,0-0.6,0.1
			c-0.2,0.1-0.4,0.2-0.6,0.3c-0.2,0.1-0.3,0.3-0.5,0.5c-0.1,0.2-0.2,0.4-0.3,0.6v4h-1.4v-9.5h1.4v4.1c0.3-0.5,0.6-0.8,1.1-1.1
			c0.4-0.3,0.9-0.4,1.5-0.4c0.4,0,0.8,0.1,1,0.2s0.5,0.4,0.7,0.6c0.2,0.3,0.3,0.5,0.3,0.9c0.1,0.3,0.1,0.7,0.1,1.1V258.4z"/>
		<path class="st11" d="M234.4,258.5c-0.3,0-0.6-0.1-0.9-0.2c-0.3-0.1-0.5-0.3-0.7-0.4c-0.2-0.2-0.4-0.4-0.5-0.7s-0.2-0.5-0.2-0.8
			c0-0.3,0.1-0.6,0.2-0.9s0.3-0.5,0.6-0.7c0.3-0.2,0.6-0.3,0.9-0.4c0.4-0.1,0.7-0.2,1.2-0.2c0.3,0,0.6,0,0.9,0.1s0.6,0.1,0.8,0.2
			v-0.5c0-0.5-0.1-0.9-0.4-1.2c-0.3-0.3-0.7-0.4-1.2-0.4c-0.4,0-0.7,0.1-1.1,0.2c-0.4,0.1-0.7,0.3-1.1,0.6l-0.4-0.9
			c0.9-0.6,1.8-0.9,2.7-0.9c0.9,0,1.7,0.2,2.2,0.7s0.8,1.2,0.8,2.1v2.5c0,0.3,0.1,0.5,0.4,0.5v1.2c-0.1,0-0.3,0-0.4,0.1
			s-0.2,0-0.3,0c-0.3,0-0.5-0.1-0.6-0.2c-0.2-0.1-0.2-0.3-0.3-0.5l0-0.4c-0.3,0.4-0.7,0.7-1.1,0.9
			C235.4,258.4,234.9,258.5,234.4,258.5z M234.8,257.5c0.3,0,0.7-0.1,1-0.2c0.3-0.1,0.5-0.3,0.7-0.5c0.2-0.2,0.3-0.3,0.3-0.5v-0.9
			c-0.2-0.1-0.5-0.2-0.8-0.2s-0.5-0.1-0.8-0.1c-0.5,0-0.9,0.1-1.3,0.3c-0.3,0.2-0.5,0.5-0.5,0.9c0,0.3,0.1,0.6,0.4,0.9
			S234.4,257.5,234.8,257.5z"/>
		<path class="st11" d="M246,258.4h-1.4v-3.8c0-0.6-0.1-1.1-0.3-1.4c-0.2-0.3-0.5-0.4-0.9-0.4c-0.2,0-0.4,0-0.6,0.1
			s-0.4,0.2-0.6,0.3c-0.2,0.1-0.3,0.3-0.5,0.5c-0.1,0.2-0.3,0.4-0.3,0.6v4h-1.4v-6.8h1.3v1.4c0.3-0.5,0.6-0.8,1.1-1.1s1-0.4,1.6-0.4
			c0.4,0,0.7,0.1,1,0.2c0.3,0.1,0.5,0.3,0.6,0.6s0.3,0.6,0.3,0.9c0.1,0.3,0.1,0.7,0.1,1.1V258.4z"/>
		<path class="st11" d="M253.8,258.4h-1.4v-3.8c0-0.6-0.1-1.1-0.3-1.4c-0.2-0.3-0.5-0.4-0.9-0.4c-0.2,0-0.4,0-0.6,0.1
			s-0.4,0.2-0.6,0.3c-0.2,0.1-0.3,0.3-0.5,0.5c-0.1,0.2-0.3,0.4-0.3,0.6v4h-1.4v-6.8h1.3v1.4c0.3-0.5,0.6-0.8,1.1-1.1s1-0.4,1.6-0.4
			c0.4,0,0.7,0.1,1,0.2c0.3,0.1,0.5,0.3,0.6,0.6s0.3,0.6,0.3,0.9c0.1,0.3,0.1,0.7,0.1,1.1V258.4z"/>
		<path class="st11" d="M258.5,258.5c-0.5,0-1-0.1-1.4-0.3c-0.4-0.2-0.8-0.4-1.1-0.8s-0.5-0.7-0.7-1.1s-0.3-0.9-0.3-1.4
			s0.1-0.9,0.3-1.4c0.2-0.4,0.4-0.8,0.7-1.1c0.3-0.3,0.7-0.6,1.1-0.8c0.4-0.2,0.9-0.3,1.5-0.3c0.5,0,1,0.1,1.4,0.3
			c0.4,0.2,0.8,0.4,1.1,0.8c0.3,0.3,0.5,0.7,0.7,1.1c0.2,0.4,0.2,0.9,0.2,1.3c0,0.1,0,0.2,0,0.3c0,0.1,0,0.2,0,0.2h-5.4
			c0,0.3,0.1,0.6,0.2,0.8c0.1,0.2,0.3,0.5,0.5,0.6s0.4,0.3,0.6,0.4c0.2,0.1,0.5,0.1,0.7,0.1c0.2,0,0.4,0,0.6-0.1
			c0.2,0,0.4-0.1,0.5-0.2c0.2-0.1,0.3-0.2,0.4-0.3c0.1-0.1,0.2-0.3,0.3-0.4l1.2,0.4c-0.2,0.5-0.6,0.9-1.2,1.3
			C259.9,258.4,259.3,258.5,258.5,258.5z M260.6,254.5c0-0.3-0.1-0.6-0.2-0.8c-0.1-0.2-0.3-0.4-0.4-0.6c-0.2-0.2-0.4-0.3-0.6-0.4
			c-0.2-0.1-0.5-0.1-0.8-0.1s-0.5,0-0.8,0.1c-0.2,0.1-0.4,0.2-0.6,0.4c-0.2,0.2-0.3,0.4-0.4,0.6c-0.1,0.2-0.2,0.5-0.2,0.8H260.6z"/>
		<path class="st11" d="M263.2,248.9h1.4v7.5c0,0.3,0.1,0.4,0.2,0.6c0.1,0.1,0.3,0.2,0.5,0.2c0.1,0,0.2,0,0.3-0.1
			c0.1,0,0.2-0.1,0.4-0.1l0.2,1.1c-0.2,0.1-0.5,0.2-0.7,0.2c-0.3,0.1-0.5,0.1-0.8,0.1c-0.5,0-0.9-0.1-1.2-0.4
			c-0.3-0.3-0.4-0.7-0.4-1.1V248.9z"/>
	</g>
</g>
<g>
	<g>
		<path class="st12" d="M61.5,298.8v2.1h-6.9v-2.1H57v-5.2c-0.1,0.1-0.3,0.3-0.5,0.4c-0.2,0.1-0.5,0.3-0.7,0.4
			c-0.3,0.1-0.5,0.2-0.8,0.3s-0.5,0.1-0.7,0.1v-2.1c0.2,0,0.5-0.1,0.7-0.2c0.3-0.1,0.6-0.3,0.9-0.5s0.5-0.4,0.7-0.5
			c0.2-0.2,0.3-0.3,0.4-0.4h2.3v7.7H61.5z"/>
		<path class="st12" d="M62.9,300.8v-2.4h1.9v2.4H62.9z"/>
	</g>
</g>
<g>
	<g>
		<path class="st12" d="M276,222.9c0.7,0.1,1.3,0.5,1.7,1c0.4,0.6,0.7,1.2,0.7,2c0,0.5-0.1,1-0.3,1.4c-0.2,0.4-0.5,0.8-0.9,1.1
			c-0.4,0.3-0.8,0.5-1.4,0.7c-0.5,0.2-1.2,0.2-1.8,0.2c-0.9,0-1.6-0.1-2.3-0.4c-0.7-0.3-1.2-0.7-1.7-1.2l1.3-1.6
			c0.3,0.4,0.6,0.7,1.1,0.9c0.4,0.2,0.9,0.3,1.5,0.3c0.7,0,1.2-0.1,1.6-0.4c0.4-0.3,0.5-0.7,0.5-1.3c0-0.6-0.2-1-0.6-1.4
			c-0.4-0.3-1.1-0.5-1.9-0.5h-0.5v-1.7h0.5c0.7,0,1.2-0.2,1.6-0.5s0.6-0.7,0.6-1.2c0-0.5-0.2-0.8-0.5-1c-0.3-0.2-0.7-0.3-1.2-0.3
			c-0.5,0-1,0.1-1.4,0.4s-0.8,0.6-1,1l-1.4-1.6c0.2-0.3,0.4-0.5,0.7-0.7c0.3-0.2,0.6-0.4,1-0.5s0.7-0.3,1.2-0.4
			c0.4-0.1,0.8-0.1,1.3-0.1c0.6,0,1.1,0.1,1.6,0.2c0.5,0.1,0.9,0.4,1.2,0.6c0.3,0.3,0.6,0.6,0.8,0.9s0.3,0.8,0.3,1.2
			c0,0.3-0.1,0.7-0.2,1c-0.1,0.3-0.2,0.6-0.4,0.8c-0.2,0.3-0.4,0.5-0.7,0.6C276.6,222.8,276.3,222.9,276,222.9z"/>
		<path class="st12" d="M279.9,226.9v-2.4h1.9v2.4H279.9z"/>
	</g>
</g>
<g>
	<g>
		<path class="st12" d="M306.4,182.4c0-0.5,0-1,0.1-1.4c0.1-0.4,0.2-0.8,0.4-1.1c0.2-0.4,0.5-0.7,0.8-1c0.3-0.3,0.8-0.6,1.3-0.9
			c0.5-0.2,0.9-0.5,1.2-0.7c0.4-0.2,0.7-0.4,0.9-0.5c0.2-0.2,0.4-0.3,0.5-0.5s0.2-0.4,0.2-0.6c0-0.3-0.1-0.6-0.4-0.9
			c-0.3-0.2-0.7-0.4-1.2-0.4c-0.3,0-0.5,0-0.7,0.1c-0.2,0.1-0.4,0.2-0.6,0.3c-0.2,0.1-0.4,0.3-0.5,0.4c-0.2,0.2-0.3,0.3-0.5,0.5
			l-1.5-1.7c0.1-0.2,0.4-0.3,0.6-0.5c0.3-0.2,0.6-0.4,1-0.5s0.8-0.3,1.2-0.4c0.4-0.1,0.9-0.2,1.4-0.2c0.6,0,1.1,0.1,1.5,0.2
			s0.8,0.3,1.1,0.6s0.5,0.6,0.7,0.9c0.2,0.4,0.2,0.7,0.2,1.2c0,0.4-0.1,0.7-0.2,1.1c-0.1,0.3-0.3,0.6-0.6,0.8
			c-0.2,0.2-0.5,0.4-0.7,0.6s-0.5,0.3-0.8,0.5c-0.2,0.1-0.4,0.2-0.7,0.4c-0.3,0.1-0.5,0.3-0.8,0.5c-0.3,0.2-0.5,0.4-0.7,0.5
			c-0.2,0.2-0.4,0.4-0.5,0.6h5.2v2.1H306.4z"/>
		<path class="st12" d="M316.3,182.4v-2.4h1.9v2.4H316.3z"/>
	</g>
</g>
<circle class="st1" cx="43.9" cy="296.1" r="5"/>
<circle class="st1" cx="276" cy="239.1" r="5"/>
<polyline class="st10" points="322.2,302.6 329.9,293.1 337.6,302.6 "/>
<polyline class="st13" points="101.7,246.2 92.9,239.1 101.7,231.9 "/>
<polyline class="st10" points="312.4,119.6 302.9,111.9 312.4,104.2 "/>
<polyline class="st10" points="337.5,171.7 329.8,181.2 322.1,171.7 "/>
<g>
	<polygon class="st14" points="347.8,234.7 347.8,232.8 334.5,233.7 348,211.5 348,209.2 328.8,210 315.8,238.9 316.7,239.7 
		335.1,239.8 320.8,263.7 321.6,264.5 	"/>
	
		<linearGradient id="SVGID_1_" gradientUnits="userSpaceOnUse" x1="-153.6638" y1="-286.1157" x2="-152.6638" y2="-286.1157" gradientTransform="matrix(32.5517 -0.3972 -0.433 -35.4632 5193.9243 -9971.1064)">
		<stop  offset="0" style="stop-color:#FD9C00"/>
		<stop  offset="0.5524" style="stop-color:#FDC600"/>
		<stop  offset="1" style="stop-color:#FDE400"/>
	</linearGradient>
	<polygon class="st15" points="347.8,232.8 333.7,232.8 348,209.2 327.9,209.2 315.8,238.9 334.3,238.9 320.8,263.7 	"/>
</g>
<g class="st16">
	<polygon class="st17" points="291,210.5 291,257.5 330,281 329.8,233.8 	"/>
	<polygon class="st18" points="329.8,233.8 330,280.9 369,257.4 369,210.4 	"/>
	<polygon class="st19" points="290.8,210.3 330.4,187.1 368.8,210.3 329.8,233.8 	"/>
</g>
<g>
	<g>
		<line class="st20" x1="230.3" y1="99.8" x2="226.6" y2="99.8"/>
		<line class="st21" x1="219.9" y1="99.8" x2="196.2" y2="99.8"/>
		<line class="st20" x1="192.8" y1="99.8" x2="189.2" y2="99.8"/>
	</g>
</g>
<g>
	<g>
		<line class="st20" x1="133.5" y1="99.8" x2="129.9" y2="99.8"/>
		<line class="st21" x1="123.2" y1="99.8" x2="99.5" y2="99.8"/>
		<line class="st20" x1="96.1" y1="99.8" x2="92.5" y2="99.8"/>
	</g>
</g>
<g>
	<g>
		<line class="st20" x1="262.5" y1="144.4" x2="262.6" y2="148.1"/>
		<line class="st22" x1="262.6" y1="156.1" x2="262.7" y2="168.3"/>
		<polyline class="st20" points="262.7,172.3 262.7,176 259.1,176 		"/>
		<polyline class="st23" points="251.7,176 243.4,176 195.9,176 		"/>
		<line class="st20" x1="192.2" y1="176" x2="188.5" y2="176"/>
	</g>
</g>
<g>
	<g>
		<line class="st20" x1="262.5" y1="59.3" x2="262.6" y2="55.7"/>
		<line class="st22" x1="262.6" y1="47.6" x2="262.7" y2="35.5"/>
		<polyline class="st20" points="262.7,31.4 262.7,27.8 259.1,27.8 		"/>
		<polyline class="st23" points="251.7,27.8 243.4,27.8 195.9,27.8 		"/>
		<line class="st20" x1="192.2" y1="27.8" x2="188.5" y2="27.8"/>
	</g>
</g>
<path class="st1" d="M237.9,116.7v9.5c0,1.3,1.1,2.4,2.4,2.4h52.5c1.3,0,2.4-1.1,2.4-2.4v-9.5c0-10.4-7.5-19.2-17.4-21.1
	c3.4-3.1,5.5-7.4,5.5-12.3c0-9.2-7.5-16.7-16.7-16.7c-9.2,0-16.7,7.5-16.7,16.7c0,4.9,2.1,9.3,5.5,12.3
	C245.4,97.5,237.9,106.2,237.9,116.7z M266.5,95.2c-6.6,0-11.9-5.3-11.9-11.9c0-6.6,5.3-11.9,11.9-11.9c6.6,0,11.9,5.3,11.9,11.9
	C278.5,89.9,273.1,95.2,266.5,95.2z M242.7,116.7c0-9.2,7.5-16.7,16.7-16.7h14.3c9.2,0,16.7,7.5,16.7,16.7v7.2h-47.7V116.7z"/>
<path class="st1" d="M139,114.2v6.5c0,0.9,0.7,1.6,1.6,1.6h35.9c0.9,0,1.6-0.7,1.6-1.6v-6.5c0-7.1-5.1-13.1-11.9-14.4
	c2.3-2.1,3.7-5.1,3.7-8.4c0-6.3-5.1-11.4-11.4-11.4c-6.3,0-11.4,5.1-11.4,11.4c0,3.3,1.5,6.3,3.7,8.4C144.1,101,139,107,139,114.2z
	 M158.6,99.5c-4.5,0-8.2-3.7-8.2-8.2s3.7-8.2,8.2-8.2s8.2,3.7,8.2,8.2S163.1,99.5,158.6,99.5z M142.2,114.2
	c0-6.3,5.1-11.4,11.4-11.4h9.8c6.3,0,11.4,5.1,11.4,11.4v4.9h-32.6V114.2z"/>
<path class="st1" d="M139,187.4v6.5c0,0.9,0.7,1.6,1.6,1.6h35.9c0.9,0,1.6-0.7,1.6-1.6v-6.5c0-7.1-5.1-13.1-11.9-14.4
	c2.3-2.1,3.7-5.1,3.7-8.4c0-6.3-5.1-11.4-11.4-11.4c-6.3,0-11.4,5.1-11.4,11.4c0,3.3,1.5,6.3,3.7,8.4
	C144.1,174.3,139,180.2,139,187.4z M158.6,172.7c-4.5,0-8.2-3.7-8.2-8.2c0-4.5,3.7-8.2,8.2-8.2s8.2,3.7,8.2,8.2
	C166.7,169,163.1,172.7,158.6,172.7z M142.2,187.4c0-6.3,5.1-11.4,11.4-11.4h9.8c6.3,0,11.4,5.1,11.4,11.4v4.9h-32.6V187.4z"/>
<path class="st1" d="M47.9,113.9v6.5c0,0.9,0.7,1.6,1.6,1.6h35.9c0.9,0,1.6-0.7,1.6-1.6v-6.5c0-7.1-5.1-13.1-11.9-14.4
	c2.3-2.1,3.7-5.1,3.7-8.4c0-6.3-5.1-11.4-11.4-11.4c-6.3,0-11.4,5.1-11.4,11.4c0,3.3,1.5,6.3,3.7,8.4
	C53,100.8,47.9,106.8,47.9,113.9z M67.5,99.2c-4.5,0-8.2-3.7-8.2-8.2c0-4.5,3.7-8.2,8.2-8.2c4.5,0,8.2,3.7,8.2,8.2
	C75.6,95.6,72,99.2,67.5,99.2z M51.2,113.9c0-6.3,5.1-11.4,11.4-11.4h9.8c6.3,0,11.4,5.1,11.4,11.4v4.9H51.2V113.9z"/>
<path class="st1" d="M139,38.7v6.5c0,0.9,0.7,1.6,1.6,1.6h35.9c0.9,0,1.6-0.7,1.6-1.6v-6.5c0-7.1-5.1-13.1-11.9-14.4
	c2.3-2.1,3.7-5.1,3.7-8.4c0-6.3-5.1-11.4-11.4-11.4c-6.3,0-11.4,5.1-11.4,11.4c0,3.3,1.5,6.3,3.7,8.4C144.1,25.6,139,31.5,139,38.7z
	 M158.6,24c-4.5,0-8.2-3.7-8.2-8.2s3.7-8.2,8.2-8.2s8.2,3.7,8.2,8.2S163.1,24,158.6,24z M142.2,38.7c0-6.3,5.1-11.4,11.4-11.4h9.8
	c6.3,0,11.4,5.1,11.4,11.4v4.9h-32.6V38.7z"/>
<polyline class="st10" points="330,175 330,111.9 310.5,111.9 "/>
</svg>
